<svg width="747" height="426" viewBox="0 0 747 426" fill="none" xmlns="http://www.w3.org/2000/svg">
<g filter="url(#filter0_f_739_783)">
<ellipse cx="376.5" cy="391" rx="354.5" ry="19" fill="black" fill-opacity="0.12"/>
</g>
<path d="M151.028 155.767C148.556 158.033 145.671 160.3 143.405 162.978L110.026 232.826L134.957 200.684L161.33 145.877C157.827 149.38 154.531 152.676 151.028 155.767Z" fill="#0B0A56"/>
<path d="M131.248 144.229C133.721 140.932 135.987 137.017 138.872 133.515L80.3559 104.875L24.7249 110.438L122.182 155.355C125.067 151.852 128.363 148.143 131.248 144.229Z" fill="#0B0A56"/>
<path d="M139.49 134.133C136.399 138.047 133.926 142.58 130.836 146.289C128.157 149.586 125.479 152.882 122.8 155.973L167.099 176.371L183.17 155.355L139.49 134.133Z" fill="#5C5BC4"/>
<path d="M72.9385 215.313L90.0399 179.462L0 136.399L14.4229 106.317L162.566 18.9558L202.95 38.3237L143.611 162.566L168.129 174.311L151.646 208.72L127.127 196.975L110.026 232.826L72.9385 215.313ZM139.49 76.0292L137.223 74.7929L57.8975 121.152L106.523 144.435L139.49 76.0292Z" fill="#1A1885"/>
<path d="M168.129 174.105L183.17 155.355L171.426 181.316L151.028 209.956L168.129 174.105Z" fill="#0B0A56"/>
<path d="M162.36 145.053L220.876 16.8954L203.156 38.1176L143.817 162.36C145.259 160.712 161.536 145.877 162.36 145.053Z" fill="#0B0A56"/>
<path d="M14.4229 106.111L41.0021 83.0345L185.643 0L162.772 18.7497L14.4229 106.111Z" fill="#5C5BC4"/>
<path d="M162.772 18.7497L203.157 38.1176L220.876 16.8954L185.643 0L162.772 18.7497Z" fill="#ADACF8"/>
<path d="M113.117 112.292C108.172 108.79 104.669 110.232 102.402 110.644C99.7239 111.056 97.8696 109.614 97.8696 109.614C96.8394 108.996 95.3971 109.202 94.5729 110.232C93.9548 111.262 94.1608 112.704 95.191 113.529C95.3971 113.529 97.2515 114.971 100.96 115.795C97.0454 119.298 93.1306 123.625 92.9246 123.831C92.1004 124.861 92.1004 126.303 93.1306 127.127C93.5427 127.539 94.1608 127.745 94.779 127.745C95.3971 127.745 96.0152 127.539 96.4273 126.921C96.4273 126.921 99.3119 123.831 102.196 120.946C99.3119 124.449 96.6333 128.158 96.2213 128.982C95.3971 130.012 95.8092 131.454 96.8394 132.278C97.2515 132.484 97.6635 132.69 98.2817 132.69C98.8998 132.69 99.7239 132.278 100.136 131.66C101.578 129.6 103.845 126.715 105.905 124.037C105.081 125.479 104.257 127.333 102.196 130.424C101.578 131.454 101.784 132.896 103.021 133.721C103.433 133.927 103.845 134.133 104.257 134.133C105.081 134.133 105.699 133.721 106.317 133.102C107.141 131.866 107.76 130.836 108.378 129.806C107.966 130.836 108.378 132.072 109.202 132.69C109.614 132.896 110.026 133.102 110.438 133.102C111.262 133.102 111.88 132.69 112.292 132.072C114.559 128.776 115.589 126.097 116.001 123.831C117.031 117.237 115.383 114.147 113.117 112.292ZM108.378 128.776C109.202 127.333 109.614 126.509 110.232 125.479C109.82 126.303 109.202 127.333 108.378 128.776Z" fill="#4644BA"/>
<path d="M42.0324 138.666C34.6149 138.254 24.1068 152.676 35.027 156.591C25.137 156.385 22.6645 170.396 31.7303 174.105C15.8652 171.014 17.7195 191.618 25.137 199.036C19.986 198.211 14.8349 203.156 15.6591 208.307C16.4833 213.664 18.5437 221.082 31.7303 224.997C44.9169 228.912 52.9525 221.494 59.5458 214.489C63.6667 223.142 84.4768 211.398 82.2104 201.302C90.0399 203.981 97.0453 195.121 97.2513 188.115C97.4574 181.11 92.5124 175.959 87.9795 171.426C91.2761 168.542 91.8943 162.978 91.0701 158.652C89.6278 151.646 80.9741 151.028 80.9741 145.465C80.9741 143.611 81.3862 137.429 79.7378 134.751C77.0593 130.424 72.5264 126.303 66.7573 128.364C42.0324 116.825 42.0324 138.666 42.0324 138.666Z" fill="#000B6A"/>
<path d="M56.2492 363.868C49.6559 362.632 48.4197 363.044 41.8264 361.396L26.5793 380.146H85.9191L51.5103 370.874L56.2492 363.868Z" fill="#00034F"/>
<path d="M166.687 369.225L163.184 364.693C160.094 366.753 156.797 368.401 153.088 369.637L162.36 380.146H197.181L166.687 369.225Z" fill="#00034F"/>
<path d="M35.645 363.868C42.2383 365.517 49.0377 367.165 55.631 368.401L104.669 308.031L96.2211 284.131L61.8122 244.571L71.7022 300.614L35.645 363.868Z" fill="#00034F"/>
<path d="M102.196 227.881C88.8038 224.379 70.4662 228.912 57.4856 233.857C57.4856 233.857 65.5212 265.793 70.8783 275.271C86.1253 303.086 152.677 372.316 152.677 372.316C156.385 371.08 163.391 365.929 166.481 363.868L102.196 227.881Z" fill="#000B6A"/>
<path d="M55.631 246.219C68.6116 241.274 94.5728 233.032 107.965 236.535C107.965 236.535 90.2459 194.915 82.2103 185.849C76.8533 179.668 47.1833 162.154 47.1833 185.025C47.3894 216.137 55.631 246.219 55.631 246.219Z" fill="#CFCDE8"/>
<path d="M67.1694 182.964C66.9634 182.964 66.7574 183.17 66.5513 183.17C62.6365 184.201 58.5157 181.934 57.4855 178.019C56.4553 173.899 56.2493 168.748 56.2493 168.129C56.2493 164.009 59.5459 160.712 63.6668 160.712C67.7876 160.712 71.0842 164.009 71.0842 168.129C71.0842 169.572 71.2903 172.456 71.7023 174.311C72.9386 177.813 70.8782 181.728 67.1694 182.964Z" fill="#4644BA"/>
<path d="M72.1144 175.547C72.1144 174.929 72.1144 174.517 71.9084 173.899C71.4963 172.25 71.2903 169.366 71.2903 167.717C71.2903 163.597 67.9936 160.3 63.8728 160.3C59.752 160.3 56.4553 163.597 56.4553 167.717C56.4553 167.717 56.4553 168.129 56.4553 168.335C60.1641 172.868 66.1392 174.723 72.1144 175.547Z" fill="#201F6F"/>
<path d="M79.3257 153.295C81.7982 160.712 77.6774 168.542 70.2599 171.014C62.8424 173.487 55.0129 169.366 52.5404 161.948L49.4498 152.676C46.9773 145.259 51.0981 137.429 58.5156 134.957C65.933 132.484 73.7626 136.605 76.2351 144.023L79.3257 153.295Z" fill="#4644BA"/>
<path d="M162.154 145.877C161.948 145.671 161.536 145.465 161.124 145.465C161.536 145.053 161.742 144.641 162.154 144.229C162.978 143.199 162.978 141.756 161.948 140.932C161.742 140.726 161.742 140.726 161.536 140.726C162.154 139.696 162.154 138.46 161.124 137.635C160.506 137.017 159.476 136.811 158.651 137.223C159.682 136.193 160.3 135.369 160.506 135.369C161.33 134.339 161.33 132.896 160.3 132.072C159.27 131.248 157.827 131.248 157.003 132.278C157.003 132.278 151.852 138.048 146.701 140.932C144.435 137.429 141.344 136.399 141.344 136.193C140.108 135.781 138.872 136.399 138.459 137.429C138.047 138.666 138.665 139.902 139.696 140.52C139.696 140.52 141.55 141.344 142.992 143.405C142.786 144.023 142.58 144.641 142.374 145.465C108.171 191.618 63.0484 175.341 60.988 174.517C56.8672 172.868 52.3343 174.929 50.892 179.05C49.2437 183.17 51.3041 187.703 55.4249 189.352C56.0431 189.558 66.9632 193.679 82.8284 193.679C85.919 193.679 89.4217 193.473 92.9244 193.06C110.026 191 135.163 181.316 155.355 155.355C155.767 155.149 156.179 154.943 156.797 154.325C157.209 154.119 157.621 153.707 158.033 153.501C159.27 152.47 160.712 151.028 162.36 149.174C163.184 148.144 162.978 146.701 162.154 145.877Z" fill="#4644BA"/>
<path d="M99.3119 174.723L97.4575 175.135C92.7185 176.165 87.9796 176.577 83.0346 176.577C71.0842 176.577 62.8426 173.486 61.8124 173.28C60.7822 172.868 59.546 172.662 58.5157 172.662C54.601 172.662 51.3043 174.929 49.862 178.637C49.0379 180.904 48.8318 183.582 50.0681 185.643C54.601 193.678 66.9634 196.975 83.0346 196.975C86.5373 196.975 89.834 196.769 93.3367 196.357C95.3971 196.151 97.4575 195.739 99.7239 195.327L101.166 194.915C101.166 194.915 99.3119 189.146 98.8998 183.17C98.4877 181.11 99.3119 174.723 99.3119 174.723Z" fill="#E1E6F6"/>
<path d="M49.4499 160.3C54.3949 157.209 56.0432 151.44 55.4251 145.671C59.7519 148.556 63.0486 146.701 65.7271 141.756C73.7627 153.088 86.1252 136.193 69.4358 130.218C56.0432 125.273 42.8566 138.666 46.1532 152.058L49.4499 160.3Z" fill="#000B6A"/>
<path d="M393.044 153.088C393.044 153.088 388.511 135.781 410.969 131.66L409.321 152.47L393.044 153.088Z" fill="#B6BFD2"/>
<path d="M303.416 196.769C298.471 196.769 293.938 195.739 289.817 193.885C269.625 184.201 267.359 155.561 267.153 154.325C266.947 149.998 270.037 146.289 274.364 145.877C278.691 145.671 282.4 148.762 282.812 153.089C283.224 158.858 286.521 174.929 296.411 179.668C304.652 183.583 317.221 179.668 333.086 168.336C336.589 165.863 341.534 166.687 344.006 170.19C346.479 173.693 345.654 178.638 342.152 181.11C327.729 191.412 314.748 196.769 303.416 196.769Z" fill="#CFCDE8"/>
<path d="M345.448 211.398C347.715 205.629 349.775 199.86 352.042 194.091C350.393 193.885 348.745 193.679 347.303 193.473C339.679 192.03 333.086 188.94 327.935 184.201C322.578 179.462 318.457 173.487 315.572 166.069C312.688 158.858 311.039 150.41 310.627 141.138C310.215 131.866 310.833 121.976 312.894 111.674C314.954 101.166 317.839 91.6883 321.754 83.2407C325.668 74.793 330.201 67.7876 335.558 62.0184C340.915 56.2493 346.891 52.1285 353.69 49.656C360.283 47.1835 367.495 46.7714 375.118 48.2137C381.093 49.4499 386.45 51.7164 391.189 55.0131C393.456 50.4802 395.928 46.1533 398.195 41.8264C400.873 36.6754 403.346 31.3183 405.818 26.1673C406.848 23.9009 407.673 21.6344 408.703 19.1619C400.873 14.835 392.22 11.5384 382.536 9.68404C368.937 7.00551 355.956 7.62363 344.006 11.1263C332.056 14.629 321.135 20.8103 311.452 29.2579C301.768 37.7056 293.526 48.2137 286.933 60.9882C280.133 73.7628 275.394 87.9796 272.304 103.639C269.213 119.298 268.595 134.339 270.037 148.762C271.686 163.185 275.188 175.959 281.164 187.291C286.933 198.624 294.968 208.308 304.858 216.137C314.13 223.348 324.844 228.294 337.413 231.178C340.091 224.791 342.976 218.197 345.448 211.398Z" fill="#5C5BC4"/>
<path d="M452.177 92.9246C450.529 78.5017 447.026 65.7272 441.051 54.3949C435.282 43.0627 427.246 33.3787 417.563 25.5492C414.884 23.4888 412.205 21.6344 409.115 19.78C408.291 22.0465 407.26 24.519 406.23 26.7854C403.758 32.1425 401.285 37.2935 398.607 42.4445C396.34 46.7714 393.868 51.3043 391.601 55.8372C392.426 56.4553 393.25 57.0734 393.868 57.6916C399.225 62.4305 403.346 68.4057 406.23 75.8232C409.321 83.2406 410.969 91.4823 411.381 100.548C411.793 109.82 411.175 119.71 409.115 130.218C407.054 140.52 404.17 149.998 400.255 158.446C396.34 166.893 391.807 174.105 386.244 179.668C380.681 185.437 374.706 189.558 367.907 192.03C362.962 193.885 357.811 194.709 352.454 194.297C349.775 200.478 347.715 206.865 345.242 213.252C342.976 219.434 340.297 225.615 337.413 231.59C338.031 231.796 338.649 231.796 339.267 232.002C352.866 234.681 365.846 234.063 377.797 230.56C389.747 227.057 400.667 220.876 410.351 212.428C420.035 203.981 428.277 193.473 434.87 180.698C441.669 167.923 446.408 153.707 449.499 138.048C453.002 122.182 453.826 107.347 452.177 92.9246Z" fill="#0B0A56"/>
<path d="M363.992 240.244C350.393 237.565 338.649 232.414 328.759 224.585C318.869 216.755 311.04 207.277 305.27 195.739C299.501 184.407 295.793 171.426 294.144 157.209C292.496 142.786 293.32 127.952 296.411 112.086C299.501 96.4273 304.24 82.2104 311.04 69.4359C317.839 56.6614 325.875 46.1532 335.558 37.7056C345.242 29.2579 355.956 23.2827 368.113 19.574C380.063 16.0713 393.044 15.4531 406.643 18.1317C420.241 20.8102 431.986 25.9612 441.876 33.7908C451.766 41.6204 459.595 51.0982 465.57 62.6365C471.339 73.9688 475.048 86.9494 476.697 101.166C478.345 115.589 477.521 130.424 474.43 146.289C471.339 161.948 466.6 176.165 459.801 188.94C453.002 201.714 444.966 212.222 435.282 220.67C425.598 229.118 414.884 235.093 402.728 238.802C390.365 242.304 377.591 242.716 363.992 240.244ZM371.41 201.714C378.827 203.156 385.832 202.538 392.632 200.066C399.225 197.593 405.406 193.473 410.969 187.703C416.533 181.934 421.065 174.929 424.98 166.481C428.895 158.033 431.78 148.556 433.84 138.254C435.9 127.745 436.519 117.856 436.106 108.584C435.694 99.3118 433.84 91.0702 430.955 83.8588C427.865 76.4413 423.744 70.4661 418.593 65.7271C413.236 60.9882 406.849 57.8976 399.431 56.4553C391.808 55.013 384.596 55.4251 378.003 57.8976C371.41 60.3701 365.228 64.4909 359.871 70.26C354.514 76.0292 349.981 83.0346 346.067 91.4823C342.152 99.9299 339.267 109.408 337.207 119.916C335.146 130.218 334.528 140.108 334.94 149.38C335.352 158.652 337.001 166.893 339.885 174.311C342.77 181.522 346.891 187.703 352.248 192.442C357.193 197.181 363.58 200.272 371.41 201.714Z" fill="#1A1885"/>
<path d="M503.07 124.449L503.688 153.501C503.688 153.501 495.447 160.918 488.029 153.501L490.708 120.74L503.07 124.449Z" fill="#000B6A"/>
<path d="M468.867 355.627C468.455 355.215 465.158 353.772 464.746 353.36C463.098 356.039 461.862 357.481 459.801 359.541C464.952 364.074 463.51 369.431 463.51 369.431C463.51 369.431 459.801 372.522 458.565 373.14C454.032 375.407 445.791 378.497 445.791 378.497L466.807 380.146L482.26 364.28C476.697 361.19 472.37 358.511 468.867 355.627Z" fill="#00034F"/>
<path d="M386.863 356.863C383.566 356.245 379.239 358.923 376.561 356.863C375.943 362.632 376.149 365.929 376.149 365.929L345.242 378.703H384.802C385.214 374.583 384.39 370.462 385.008 366.547C385.214 364.28 386.451 358.717 386.863 356.863Z" fill="#00034F"/>
<path d="M422.92 216.137L387.893 282.688C387.893 282.688 402.11 294.639 416.121 298.759L442.288 220.258L422.92 216.137Z" fill="#CFCDE8"/>
<path d="M461.244 361.19C463.304 359.13 465.158 356.451 466.807 353.772C457.741 345.943 453.414 337.907 441.052 324.309C435.901 318.539 449.499 285.985 452.796 280.422C458.771 270.532 459.595 263.527 464.128 246.631L429.925 259.406C421.684 288.663 412.206 317.715 421.89 331.726C431.986 346.355 449.705 358.305 458.359 364.281C458.565 364.487 461.038 360.984 461.244 361.19Z" fill="#00034F"/>
<path d="M403.758 149.792C403.346 149.792 402.728 149.586 402.316 149.38C401.286 148.556 401.08 147.113 401.698 146.083C404.376 142.168 404.994 139.078 404.994 139.078C405.2 137.841 406.437 137.017 407.673 137.223C408.909 137.429 409.733 138.666 409.527 139.902C409.527 140.108 408.703 144.023 405.407 148.762C405.201 149.38 404.376 149.792 403.758 149.792Z" fill="#4644BA"/>
<path d="M461.656 253.843C471.752 225.821 480.611 181.934 483.702 164.421C481.848 163.597 480.199 163.184 478.757 162.772C475.666 161.948 472.164 160.918 469.073 161.948C467.425 162.36 466.189 163.184 464.746 164.009C463.51 167.717 462.892 171.014 462.892 171.014C462.892 171.014 441.052 212.84 426.835 241.274C438.991 244.159 450.735 248.073 461.656 253.843Z" fill="#F6EE9E"/>
<path d="M426.422 242.304C425.186 244.777 423.95 247.249 422.92 249.516C420.035 254.461 417.151 258.993 414.266 263.526C386.038 305.971 375.53 339.762 373.676 355.833C376.355 357.893 386.451 359.129 389.953 359.748C395.104 333.168 408.703 316.273 432.81 296.287C440.845 289.694 447.027 281.04 452.384 274.034C455.474 269.914 458.771 263.114 461.656 254.873C450.323 248.898 438.579 244.983 426.422 242.304Z" fill="#000B6A"/>
<path d="M399.019 254.049C395.722 254.049 392.632 251.988 391.602 248.692C390.159 244.571 392.426 240.038 396.547 238.596C406.025 235.299 420.859 222.112 430.749 208.101C450.735 179.668 464.952 163.803 465.57 163.185C468.455 159.888 473.4 159.682 476.697 162.566C479.993 165.451 480.199 170.396 477.315 173.693C477.109 173.899 463.098 189.558 443.73 217.167C434.046 230.972 416.739 248.279 401.904 253.43C400.874 253.843 400.049 254.049 399.019 254.049Z" fill="#4644BA"/>
<path d="M478.345 167.099C478.139 167.099 477.933 167.099 477.727 167.099C473.606 166.893 470.515 163.184 470.927 159.064C471.339 154.737 472.988 149.998 472.988 149.38C474.224 145.465 478.551 143.405 482.466 144.847C486.38 146.083 488.441 150.41 486.998 154.325C486.586 155.767 485.762 158.446 485.556 160.3C485.35 164.215 482.053 167.099 478.345 167.099Z" fill="#4644BA"/>
<path d="M480.405 159.27C481.642 160.712 483.084 162.154 484.732 163.39C485.35 162.36 485.556 161.33 485.762 160.3C485.968 158.445 486.587 155.767 487.205 154.325C488.441 150.41 486.381 146.289 482.672 144.847C479.375 143.817 476.078 145.053 474.224 147.525C474.636 151.852 478.139 156.591 480.405 159.27Z" fill="#201F6F"/>
<path d="M499.567 143.199C499.361 151.028 492.974 157.003 485.144 157.003C477.315 156.797 471.34 150.41 471.34 142.58L471.546 132.896C471.752 125.067 478.139 119.092 485.969 119.092C493.798 119.298 499.773 125.685 499.773 133.515L499.567 143.199Z" fill="#4644BA"/>
<path d="M387.893 251.782C384.596 251.782 380.888 250.958 376.767 249.104C375.53 248.691 375.118 247.249 375.531 246.013C375.943 244.777 377.385 244.365 378.621 244.777C384.802 247.249 389.541 247.661 392.632 245.807C393.662 245.189 395.104 245.395 395.723 246.631C396.341 247.661 396.135 249.104 394.898 249.722C393.044 251.164 390.778 251.782 387.893 251.782Z" fill="#4644BA"/>
<path d="M390.777 255.079C387.069 255.079 384.184 254.461 380.681 253.637L379.651 253.43C378.415 253.224 377.591 251.782 378.003 250.546C378.209 249.31 379.651 248.486 380.888 248.898L381.918 249.104C387.481 250.546 391.19 251.37 399.431 249.31C400.667 248.898 401.904 249.722 402.316 250.958C402.728 252.194 401.904 253.43 400.667 253.843C396.547 254.667 393.456 255.079 390.777 255.079Z" fill="#4644BA"/>
<path d="M387.893 247.249C380.682 247.249 375.531 242.716 375.324 242.51C374.294 241.686 374.294 240.244 375.118 239.214C375.943 238.183 377.385 238.183 378.415 239.008C378.621 239.214 383.978 243.953 391.19 242.098C392.426 241.686 393.662 242.51 394.074 243.747C394.486 244.983 393.662 246.219 392.426 246.631C390.778 247.043 389.129 247.249 387.893 247.249Z" fill="#4644BA"/>
<path d="M392.632 244.777H392.426C384.596 243.953 381.3 238.183 381.094 237.977C380.476 236.947 380.888 235.505 381.918 234.887C382.948 234.269 384.39 234.681 385.008 235.711C385.214 235.917 387.275 239.626 392.632 240.244C393.868 240.45 394.898 241.48 394.692 242.716C394.898 243.747 393.868 244.777 392.632 244.777Z" fill="#4644BA"/>
<path d="M420.447 153.088C420.241 153.088 420.241 153.088 420.035 153.088C416.121 152.47 405.613 150.822 403.346 150.822C402.11 150.822 401.08 149.792 401.08 148.556C401.08 147.319 402.11 146.289 403.346 146.289C406.643 146.289 419.417 148.349 420.86 148.556C422.096 148.762 422.92 149.998 422.714 151.234C422.508 152.264 421.478 153.088 420.447 153.088Z" fill="#4644BA"/>
<path d="M418.799 158.034C418.593 158.034 418.387 158.034 418.181 158.034C417.975 158.034 407.055 154.943 401.904 154.737C400.667 154.737 399.637 153.501 399.637 152.264C399.637 151.028 400.873 149.998 402.11 149.998C407.673 150.41 418.799 153.295 419.417 153.501C420.653 153.913 421.478 155.149 421.066 156.385C420.859 157.209 419.829 158.034 418.799 158.034Z" fill="#4644BA"/>
<path d="M417.769 162.978C417.563 162.978 417.357 162.978 417.151 162.772C406.643 159.476 404.17 159.27 402.728 159.064C402.11 159.064 401.492 159.064 400.873 158.858C399.637 158.446 398.813 157.209 399.225 155.973C399.637 154.737 400.873 153.913 402.11 154.325C402.522 154.325 402.728 154.531 403.14 154.531C404.788 154.737 407.673 154.943 418.593 158.446C419.829 158.858 420.447 160.094 420.035 161.33C419.623 162.36 418.799 162.978 417.769 162.978Z" fill="#4644BA"/>
<path d="M413.236 166.687C413.03 166.687 413.03 166.687 413.236 166.687C402.522 165.863 402.11 160.3 402.11 159.682L406.849 159.476C406.849 159.476 406.849 159.476 406.849 159.27C406.849 159.27 407.261 161.536 413.442 161.948C414.678 161.948 415.708 163.185 415.502 164.421C415.502 165.863 414.472 166.687 413.236 166.687Z" fill="#4644BA"/>
<path d="M404.376 164.009C404.376 164.009 402.316 162.978 399.225 162.978C396.547 162.978 393.044 158.446 393.044 153.913C393.044 153.913 391.808 140.314 406.231 146.495L404.376 164.009Z" fill="#4644BA"/>
<path d="M449.911 204.599L429.719 304.323C429.719 304.323 461.037 311.946 480.405 300.82L485.35 162.154C485.144 162.36 463.716 154.737 449.911 204.599Z" fill="#CFCDE8"/>
<path d="M454.65 259.612L474.018 258.581C474.018 258.581 474.43 288.251 462.892 287.015C462.892 287.015 447.027 290.518 454.65 259.612Z" fill="#E1E6F6"/>
<path d="M478.963 159.888C476.903 158.034 474.018 157.003 471.134 157.003C467.837 157.003 464.746 158.446 462.48 160.918C461.862 161.536 447.645 177.401 427.453 206.247C426.217 208.102 424.568 209.956 423.126 212.016L421.066 214.489L423.332 216.755C425.805 219.228 428.277 221.7 430.75 224.173C431.986 225.409 433.428 226.851 434.664 228.087L437.549 230.972L440.227 227.881C442.494 225.203 444.76 222.318 446.615 219.64C465.983 192.236 479.787 176.577 479.993 176.577C484.114 171.632 483.702 164.215 478.963 159.888Z" fill="#E1E6F6"/>
<path d="M425.833 205.323L417.984 214.06L438.369 232.374L446.218 223.637L425.833 205.323Z" fill="#F8FDFF"/>
<path d="M457.535 148.762L475.46 155.767C475.46 155.767 483.084 118.886 477.521 113.323C477.315 113.323 457.535 111.468 457.535 148.762Z" fill="#000B6A"/>
<path d="M478.345 119.71C478.963 120.74 492.768 129.806 503.688 127.333C503.688 127.333 501.834 111.056 476.49 113.323L478.345 119.71Z" fill="#000B6A"/>
<path d="M489.059 137.223C489.059 141.55 485.556 145.053 481.229 145.053C476.903 145.053 473.4 141.55 473.4 137.223C473.4 132.897 476.903 129.394 481.229 129.394C485.556 129.394 489.059 132.897 489.059 137.223Z" stroke="#DDDD67" stroke-width="0.8679" stroke-miterlimit="10"/>
<path d="M506.573 138.666C506.573 142.374 503.482 145.465 499.773 145.465C496.064 145.465 492.974 142.374 492.974 138.666C492.974 134.957 496.064 131.866 499.773 131.866C503.482 131.866 506.573 134.957 506.573 138.666Z" stroke="#DDDD67" stroke-width="0.755" stroke-miterlimit="10"/>
<path d="M489.059 137.223C489.059 137.223 491.532 136.193 493.18 137.842" stroke="#DDDD67" stroke-width="0.8679" stroke-miterlimit="10"/>
<path d="M263.444 150.822C263.238 150.822 263.032 150.822 262.826 150.822C258.705 150.616 255.615 146.907 256.027 142.786C256.439 138.46 258.087 133.721 258.087 133.103C259.323 129.188 263.65 127.127 267.565 128.57C271.48 129.806 273.54 134.133 272.098 138.048C271.686 139.49 270.862 142.168 270.656 144.023C270.449 147.731 267.359 150.822 263.444 150.822Z" fill="#201F6F"/>
<path d="M259.117 356.657C271.48 362.426 281.576 362.22 282.4 362.426C290.435 348.209 314.542 309.474 292.496 277.949L261.384 261.26C261.384 261.054 292.496 293.608 259.117 356.657Z" fill="#00034F"/>
<path d="M275.189 369.432C275.189 369.432 278.073 363.662 280.34 359.748C278.691 359.542 271.068 359.336 267.977 358.099C265.093 364.074 258.705 372.728 254.378 378.703H296.205L275.189 369.432Z" fill="#00034F"/>
<path d="M326.699 279.598C321.548 269.502 283.842 239.214 280.339 221.7C280.133 220.258 279.721 218.61 279.515 216.961C273.54 220.258 265.504 221.082 259.323 221.288C252.318 221.7 247.991 222.112 241.192 218.816C241.81 229.53 239.955 240.038 246.343 250.958C258.911 272.798 300.531 291.342 305.064 298.553C314.13 312.77 317.427 343.47 320.517 362.22C325.462 362.22 337.001 362.014 341.74 360.366C340.297 350.888 342.976 311.328 326.699 279.598Z" fill="#000B6A"/>
<path d="M339.679 367.577C339.679 367.577 338.237 362.014 337.825 359.542C333.086 361.19 330.201 359.542 325.256 359.542C326.081 364.28 325.462 372.934 325.874 378.085H365.434L339.679 367.577Z" fill="#00034F"/>
<path d="M259.735 227.263C265.711 227.057 278.485 225.409 283.43 220.258C282.4 212.016 278.691 198.624 279.927 187.909C284.254 151.646 266.535 140.726 266.535 140.726C266.535 140.726 258.293 134.957 251.7 141.756C241.81 152.058 231.92 181.11 232.95 223.967C240.161 227.469 252.524 227.469 259.735 227.263Z" fill="#CFCDE8"/>
<path d="M350.805 238.596C350.187 238.596 349.569 238.596 348.951 238.39C320.311 231.796 296.205 214.695 278.897 188.94C265.917 169.572 261.59 152.264 261.384 151.646C260.353 147.525 262.826 143.199 267.153 142.168C271.274 141.138 275.601 143.611 276.631 147.938C276.631 148.35 280.752 163.803 292.29 180.904C307.331 203.363 327.729 217.579 352.454 223.349C356.781 224.379 359.253 228.5 358.429 232.826C357.605 236.123 354.308 238.596 350.805 238.596Z" fill="#4644BA"/>
<path d="M333.292 214.901C317.633 207.483 304.24 195.533 293.526 179.668C282.194 162.772 278.073 147.319 278.073 147.113C277.043 142.992 273.334 140.108 269.007 140.108C268.183 140.108 267.565 140.108 266.741 140.314C264.268 140.932 262.414 142.374 260.972 144.641C259.735 146.701 259.323 149.174 259.941 151.646V151.852C261.178 157.209 266.123 175.753 277.661 193.266C291.466 214.077 310.421 229.53 332.056 238.183C332.262 238.183 332.468 238.183 332.468 238.183C332.674 238.183 333.086 238.183 333.292 237.977C333.704 237.771 333.91 237.359 333.91 236.741V215.931C334.116 215.725 333.91 215.107 333.292 214.901Z" fill="#E1E6F6"/>
<path d="M356.575 239.214C354.102 239.214 351.424 239.008 348.539 238.39C347.303 238.183 346.479 236.947 346.685 235.711C346.891 234.475 348.127 233.651 349.363 233.857C356.369 235.299 361.932 234.681 366.465 232.414C367.495 231.796 368.937 232.208 369.555 233.445C370.173 234.475 369.761 235.917 368.525 236.535C365.228 238.184 361.107 239.214 356.575 239.214Z" fill="#4644BA"/>
<path d="M356.987 234.063C355.957 234.063 354.72 234.063 353.69 233.856C352.454 233.65 351.63 232.414 351.63 231.178C351.836 229.942 353.072 229.118 354.308 229.118C361.726 230.148 368.525 226.439 368.731 226.233C369.761 225.615 371.204 226.027 371.822 227.057C372.44 228.087 372.028 229.53 370.997 230.148C370.585 230.56 364.404 234.063 356.987 234.063Z" fill="#4644BA"/>
<path d="M354.926 229.53C354.514 229.53 354.102 229.53 353.896 229.53C352.66 229.53 351.63 228.293 351.63 227.057C351.63 225.821 352.866 224.791 354.102 224.791C359.665 225.203 362.55 221.7 362.55 221.7C363.374 220.67 364.816 220.464 365.846 221.288C366.877 222.112 367.083 223.554 366.259 224.585C365.846 224.791 362.138 229.53 354.926 229.53Z" fill="#4644BA"/>
<path d="M346.891 225.615C345.654 225.615 344.624 224.585 344.624 223.348C344.624 222.112 345.654 221.082 346.891 221.082C347.097 221.082 351.63 220.876 354.308 217.167C355.132 216.137 356.575 215.931 357.605 216.549C358.635 217.373 358.841 218.816 358.223 219.846C354.102 225.409 347.097 225.615 346.891 225.615Z" fill="#4644BA"/>
<path d="M339.267 173.281C338.443 173.281 337.825 172.868 337.413 172.25C333.91 167.511 333.292 163.391 333.292 163.391C333.086 162.154 333.91 160.918 335.146 160.712C336.383 160.506 337.619 161.33 337.825 162.566C337.825 162.566 338.443 165.657 341.122 169.572C341.946 170.602 341.534 172.044 340.503 172.868C340.297 173.074 339.679 173.281 339.267 173.281Z" fill="#4644BA"/>
<path d="M339.679 174.105C339.473 174.105 339.473 174.105 339.267 174.105C334.116 173.075 324.226 173.075 324.02 173.075C322.784 173.075 321.754 172.044 321.754 170.808C321.754 169.572 322.784 168.542 324.02 168.542C324.432 168.542 334.528 168.542 340.091 169.572C341.328 169.778 342.152 171.014 341.946 172.25C341.74 173.487 340.915 174.105 339.679 174.105Z" fill="#4644BA"/>
<path d="M322.784 179.05C321.548 179.05 320.723 178.225 320.517 176.989C320.311 175.753 321.342 174.517 322.578 174.311C324.02 174.105 337.001 172.456 341.328 173.281C342.564 173.487 343.388 174.723 343.182 175.959C342.976 177.195 341.74 178.02 340.503 177.813C337.825 177.401 328.553 178.226 323.196 178.844C322.99 179.05 322.99 179.05 322.784 179.05Z" fill="#4644BA"/>
<path d="M325.875 184.201C324.844 184.201 323.814 183.376 323.608 182.346C323.402 181.11 324.226 179.874 325.463 179.668C331.026 178.638 332.674 178.019 335.353 177.195C336.589 176.783 338.237 176.371 340.504 175.547C341.74 175.135 342.976 175.959 343.388 177.195C343.8 178.432 342.976 179.668 341.74 180.08C339.473 180.698 338.031 181.316 336.589 181.728C333.704 182.552 332.056 183.17 326.287 184.407C326.081 184.201 325.875 184.201 325.875 184.201Z" fill="#4644BA"/>
<path d="M330.819 187.909C329.789 187.909 328.759 187.085 328.553 186.055C328.347 184.819 329.171 183.583 330.407 183.376C337.825 182.14 339.473 179.256 339.473 179.256C339.885 178.019 341.122 177.401 342.358 177.813C343.594 178.226 344.212 179.462 343.8 180.698C343.594 181.522 341.534 186.261 331.232 187.909C331.026 187.909 331.026 187.909 330.819 187.909Z" fill="#4644BA"/>
<path d="M339.679 185.231L337.825 166.275C337.825 166.275 346.067 166.893 346.067 175.547C346.273 178.432 345.448 181.728 339.679 185.231Z" fill="#4644BA"/>
<path d="M287.551 123.625C289.611 131.454 284.872 139.696 277.043 141.756C269.213 143.817 260.972 139.078 258.911 131.248L256.233 121.358C254.172 113.529 258.911 105.287 266.741 103.227C274.57 101.166 282.812 105.905 284.872 113.735L287.551 123.625Z" fill="#4644BA"/>
<path d="M286.109 118.268C285.079 121.358 283.43 124.449 280.958 126.715C274.983 131.866 265.917 133.309 258.499 130.218L258.705 131.248C260.766 139.078 269.007 143.817 276.837 141.756C284.666 139.696 289.405 131.454 287.345 123.625L286.109 118.268Z" fill="#000B6A"/>
<path d="M258.911 130.63C253.348 127.127 247.373 113.529 256.027 110.438C261.384 108.584 259.323 125.273 259.323 130.012L258.911 130.63Z" fill="#000B6A"/>
<path d="M254.378 111.674C247.579 106.729 256.027 92.9246 272.716 92.9246C283.018 92.9246 283.018 100.754 275.807 105.081C269.832 108.584 260.766 106.523 256.233 112.498L254.378 111.674Z" fill="#000B6A"/>
<path d="M286.109 121.358C283.842 117.856 279.103 110.644 277.249 106.523C276.013 103.845 274.57 99.5179 279.721 102.609C284.048 105.287 286.315 114.559 286.109 119.092V121.358Z" fill="#000B6A"/>
<path d="M556.69 364.074C551.539 370.668 545.564 375.819 546.8 378.085C546.8 378.085 549.479 380.146 557.102 380.146C570.083 380.146 582.857 379.115 580.797 377.879C577.912 376.025 569.465 375.407 561.429 372.522C559.369 371.904 565.756 367.989 564.108 367.371C560.399 365.929 557.72 364.899 556.69 364.074Z" fill="#00034F"/>
<path d="M690.411 377.673C690.411 377.673 692.059 380.146 698.652 380.146C709.985 380.146 721.523 378.703 719.875 377.467C717.402 375.819 697.622 371.698 697.622 371.698L693.295 366.135L685.878 370.256L690.411 377.673Z" fill="#00034F"/>
<path d="M654.972 212.222C646.936 212.222 640.755 210.574 640.343 210.574C636.222 209.338 633.749 205.011 634.78 200.89C636.016 196.769 640.343 194.297 644.464 195.327C644.67 195.327 662.389 199.86 672.897 191C679.903 185.025 682.375 173.899 680.727 157.621L680.109 152.47L695.974 143.405C699.683 141.344 704.628 142.58 706.688 146.289C708.748 149.998 707.512 154.943 703.803 157.003L696.798 160.918C697.828 179.874 693.295 193.885 682.993 202.744C674.34 210.368 663.419 212.222 654.972 212.222Z" fill="#4644BA"/>
<path d="M682.169 168.336C681.963 179.874 678.872 188.115 673.103 193.06C661.771 202.744 642.403 197.799 641.991 197.799C637.458 196.563 632.719 199.242 631.483 203.981C630.247 208.514 632.925 213.252 637.458 214.695C638.076 214.901 644.669 218.197 653.529 217.785C687.114 216.549 707.306 187.703 707.718 170.808L682.169 168.336Z" fill="#E1E6F6"/>
<path d="M636.016 128.158C632.925 126.715 630.041 125.273 627.156 123.831C599.341 139.696 563.902 159.888 563.077 160.712C563.077 160.712 580.797 188.734 581.827 189.97C582.651 190.794 626.332 159.27 657.856 136.605C650.645 133.721 643.227 131.454 636.016 128.158Z" fill="#2623B7"/>
<path d="M636.428 127.333C643.639 130.63 651.263 132.896 658.68 135.781C675.988 123.213 689.38 113.529 689.38 113.529L659.711 105.287C659.711 105.287 645.494 113.323 627.98 123.419C630.865 124.861 633.749 126.097 636.428 127.333Z" fill="#5C5BC4"/>
<path d="M585.33 90.452L602.843 137.841L637.046 150.204L593.777 71.2902L585.33 90.452Z" fill="#0B0A56"/>
<path d="M638.9 161.948H613.557L636.016 201.096L670.425 215.519L638.9 161.948Z" fill="#0B0A56"/>
<path d="M670.425 215.519L650.233 181.11L564.107 231.59L547.212 202.744L557.926 31.1123L596.662 8.44775L666.304 127.127L689.792 113.323L709.366 146.495L685.878 160.3L706.07 194.709L670.425 215.519ZM592.335 82.4165L590.069 83.6527L584.093 175.341L630.659 147.937L592.335 82.4165Z" fill="#1A1885"/>
<path d="M518.573 195.121L547.212 202.95L564.108 231.796L533.82 224.173L518.573 195.121Z" fill="#2623B7"/>
<path d="M518.573 195.121L547.212 202.95L557.926 31.3183L531.553 24.931L518.573 195.121Z" fill="#5C5BC4"/>
<path d="M531.553 24.931L557.926 31.3183L596.456 8.65378L569.877 0.824219L531.553 24.931Z" fill="#ADACF8"/>
<path d="M589.245 263.526C589.245 263.526 593.365 308.856 593.365 324.721C593.365 324.721 560.399 350.476 552.157 363.868C555.66 366.547 562.459 370.05 566.992 369.844C589.039 348.827 613.145 333.786 613.145 333.786C613.145 333.786 623.653 303.498 626.744 277.949L589.245 263.526Z" fill="#00034F"/>
<path d="M612.733 265.587C620.151 265.587 627.774 264.351 634.162 260.848C632.101 251.782 636.634 224.997 642.403 210.78C642.403 210.78 646.936 200.89 643.846 197.799C632.101 186.467 622.005 187.497 618.915 187.291C608.2 196.357 588.008 223.348 588.833 258.788C594.396 264.557 605.522 265.587 612.733 265.587Z" fill="#E1E6F6"/>
<path d="M685.466 371.492C689.793 370.256 693.913 368.401 696.592 364.693C683.817 344.089 637.046 268.059 634.574 262.084C634.574 261.878 634.368 261.672 634.368 261.672C627.568 265.381 619.327 266.617 611.291 266.411C604.286 266.205 594.396 265.175 588.626 260.024C588.626 260.436 588.626 260.848 588.626 261.054C589.657 280.834 655.384 346.973 681.345 372.316C682.993 372.316 684.229 371.904 685.466 371.492Z" fill="#000B6A"/>
<path d="M549.685 244.983C547.83 244.983 546.182 244.777 544.327 244.159C540.825 242.922 536.292 240.038 534.025 232.826C532.789 228.706 535.262 224.173 539.382 222.936C543.503 221.7 548.036 224.173 549.272 228.293C549.479 228.706 549.478 229.118 549.685 229.324C550.509 229.324 553.599 229.118 561.223 224.585C568.022 220.67 576.058 214.695 583.887 208.926C597.074 199.242 609.436 189.97 619.738 186.879C623.859 185.643 628.392 187.909 629.628 192.03C630.865 196.151 628.598 200.684 624.477 201.92C616.648 204.393 604.904 213.253 593.365 221.7C576.47 234.063 561.635 244.983 549.685 244.983Z" fill="#4644BA"/>
<path d="M564.519 239.214C563.489 234.475 562.459 229.53 559.575 225.615C553.187 229.118 550.509 229.324 549.685 229.324C549.685 229.118 549.479 228.912 549.272 228.294C548.036 224.173 543.709 221.7 539.382 222.936C535.262 224.173 532.789 228.5 534.025 232.826C536.292 240.244 540.825 243.129 544.327 244.159C545.976 244.777 547.83 244.983 549.685 244.983C554.217 244.983 559.368 243.335 564.726 240.656C564.726 240.038 564.519 239.626 564.519 239.214Z" fill="#4644BA"/>
<path d="M629.628 191.824C628.392 187.703 623.859 185.437 619.738 186.673C609.436 189.97 597.074 199.036 583.887 208.72C576.058 214.489 568.022 220.464 561.223 224.379C560.811 224.585 560.605 224.791 560.399 224.791C563.283 228.706 568.434 247.867 568.64 248.28C577.088 243.953 617.06 213.459 625.714 204.187C628.804 201.302 630.865 195.945 629.628 191.824Z" fill="#E1E6F6"/>
<path d="M538.559 238.595C538.146 238.595 537.528 238.389 537.116 238.183C530.935 233.857 527.638 225.203 527.638 224.791C527.226 223.555 527.844 222.318 529.081 221.906C530.317 221.494 531.553 222.112 531.965 223.348C531.965 223.348 534.85 230.972 539.795 234.475C540.825 235.299 541.031 236.741 540.413 237.771C540.001 238.389 539.383 238.595 538.559 238.595Z" fill="#4644BA"/>
<path d="M538.559 233.032C537.734 233.032 537.116 232.62 536.704 232.002C533.82 227.881 531.347 217.785 531.141 216.755C530.935 215.519 531.553 214.283 532.789 213.871C534.026 213.665 535.262 214.283 535.674 215.519C536.292 218.404 538.559 226.233 540.619 229.118C541.443 230.148 541.031 231.59 540.001 232.414C539.589 232.826 539.177 233.032 538.559 233.032Z" fill="#4644BA"/>
<path d="M541.855 231.59C541.031 231.59 540.001 230.972 539.795 230.148C537.734 224.997 536.91 214.077 536.704 213.458C536.704 212.222 537.528 210.986 538.765 210.986C540.001 210.78 541.237 211.81 541.237 213.046C541.443 215.931 542.267 224.379 543.916 228.293C544.328 229.53 543.916 230.766 542.679 231.384C542.473 231.59 542.061 231.59 541.855 231.59Z" fill="#4644BA"/>
<path d="M545.358 230.56C544.328 230.56 543.297 229.942 543.091 228.911C541.649 223.142 542.885 217.373 543.091 217.167C543.297 215.931 544.74 215.107 545.976 215.519C547.212 215.725 548.036 216.961 547.624 218.403C547.624 218.609 546.594 223.348 547.624 227.881C548.036 229.118 547.212 230.354 545.976 230.766C545.77 230.56 545.564 230.56 545.358 230.56Z" fill="#4644BA"/>
<path d="M638.488 204.393C637.458 204.393 636.428 204.187 635.398 203.775C631.689 202.126 630.041 197.593 631.895 193.885C633.75 189.97 637.046 186.055 637.458 185.643C640.137 182.552 644.876 182.14 647.966 184.819C651.057 187.497 651.469 192.236 648.791 195.327C647.76 196.357 646.112 198.83 645.288 200.478C644.052 202.95 641.373 204.393 638.488 204.393Z" fill="#4644BA"/>
<path d="M639.519 200.684C640.343 201.714 641.373 202.538 642.197 203.363C643.433 202.538 644.464 201.508 645.082 200.272C645.906 198.624 647.554 196.357 648.584 195.121C651.263 192.03 650.851 187.291 647.76 184.613C644.67 181.934 639.931 182.346 637.252 185.437C637.046 185.643 636.428 186.261 635.81 187.291C635.81 192.236 636.428 197.181 639.519 200.684Z" fill="#201F6F"/>
<path d="M664.037 192.442C661.153 199.654 652.911 202.951 645.7 200.066C638.488 197.181 635.191 188.94 638.076 181.728L641.785 172.662C644.669 165.451 652.911 162.154 660.122 165.039C667.334 167.924 670.631 176.165 667.746 183.377L664.037 192.442Z" fill="#4644BA"/>
<path d="M639.519 180.698C638.282 185.437 631.483 183.995 628.804 181.522C625.302 178.02 623.035 168.336 631.071 168.748C625.302 160.094 644.67 150.822 646.73 160.712C648.172 158.24 649.821 155.767 653.117 155.561C655.59 155.355 659.711 157.209 659.505 160.3C663.213 157.415 668.364 157.621 671.867 160.506C673.103 161.33 675.164 163.391 674.133 165.039C673.515 165.863 670.631 166.069 669.601 166.481C671.249 165.657 678.254 167.305 676.812 170.19C676.194 171.632 672.897 170.396 671.867 169.984C671.867 169.984 671.867 170.396 671.867 170.19C675.576 172.25 677.018 174.311 676.606 178.844C676.4 180.904 675.37 185.025 672.897 185.231C671.661 185.437 670.219 184.613 670.219 183.171C673.309 186.261 668.982 194.503 665.068 190.382C663.625 188.734 664.244 186.055 665.686 184.819C663.419 183.583 658.474 176.577 661.977 174.517C660.329 174.517 652.705 172.044 654.972 169.778C655.59 172.25 652.499 175.753 649.821 174.311C651.469 177.813 646.73 180.286 643.845 180.492C645.494 182.758 640.137 185.231 638.488 182.14L639.519 180.698Z" fill="#000B6A"/>
<defs>
<filter id="filter0_f_739_783" x="6" y="356" width="741" height="70" filterUnits="userSpaceOnUse" color-interpolation-filters="sRGB">
<feFlood flood-opacity="0" result="BackgroundImageFix"/>
<feBlend mode="normal" in="SourceGraphic" in2="BackgroundImageFix" result="shape"/>
<feGaussianBlur stdDeviation="8" result="effect1_foregroundBlur_739_783"/>
</filter>
</defs>
</svg>
