<svg width="273" height="594" viewBox="0 0 273 594" fill="none" xmlns="http://www.w3.org/2000/svg">
<g filter="url(#filter0_f_154_347)">
<rect x="241" y="31" width="18" height="538" fill="white" fill-opacity="0.4"/>
</g>
<g filter="url(#filter1_f_154_347)">
<rect x="210" y="31" width="18" height="111" fill="#8E8EB6" fill-opacity="0.4"/>
</g>
<g filter="url(#filter2_f_154_347)">
<rect x="210" y="167" width="18" height="229" fill="#8E8EB6" fill-opacity="0.4"/>
</g>
<g filter="url(#filter3_f_154_347)">
<rect x="210" y="429" width="18" height="151" fill="#8E8EB6" fill-opacity="0.4"/>
</g>
<g filter="url(#filter4_f_154_347)">
<rect x="15" y="145" width="200" height="26" fill="#8E8EB6" fill-opacity="0.4"/>
</g>
<g filter="url(#filter5_f_154_347)">
<rect x="14" y="407" width="200" height="26" fill="#8E8EB6" fill-opacity="0.4"/>
</g>
<g filter="url(#filter6_f_154_347)">
<rect x="14" y="391" width="200" height="26" fill="white" fill-opacity="0.4"/>
</g>
<g filter="url(#filter7_f_154_347)">
<rect x="15" y="124" width="200" height="26" fill="white" fill-opacity="0.4"/>
</g>
<g filter="url(#filter8_f_154_347)">
<rect x="214" y="14" width="40" height="26" fill="white" fill-opacity="0.4"/>
</g>
<path d="M214 26C214 22.6863 216.686 20 220 20H248C251.314 20 254 22.6863 254 26V574C254 577.314 251.314 580 248 580H214V26Z" fill="url(#paint0_linear_154_347)"/>
<path d="M214 26C214 22.6863 216.686 20 220 20H248C251.314 20 254 22.6863 254 26V574C254 577.314 251.314 580 248 580H214V26Z" fill="url(#paint1_linear_154_347)" fill-opacity="0.5"/>
<path d="M14 140C14 136.686 16.6863 134 20 134H214V167H20C16.6863 167 14 164.314 14 161V140Z" fill="url(#paint2_linear_154_347)"/>
<path d="M14 402C14 398.686 16.6863 396 20 396H214V429H20C16.6863 429 14 426.314 14 423V402Z" fill="url(#paint3_linear_154_347)"/>
<defs>
<filter id="filter0_f_154_347" x="227" y="17" width="46" height="566" filterUnits="userSpaceOnUse" color-interpolation-filters="sRGB">
<feFlood flood-opacity="0" result="BackgroundImageFix"/>
<feBlend mode="normal" in="SourceGraphic" in2="BackgroundImageFix" result="shape"/>
<feGaussianBlur stdDeviation="7" result="effect1_foregroundBlur_154_347"/>
</filter>
<filter id="filter1_f_154_347" x="196" y="17" width="46" height="139" filterUnits="userSpaceOnUse" color-interpolation-filters="sRGB">
<feFlood flood-opacity="0" result="BackgroundImageFix"/>
<feBlend mode="normal" in="SourceGraphic" in2="BackgroundImageFix" result="shape"/>
<feGaussianBlur stdDeviation="7" result="effect1_foregroundBlur_154_347"/>
</filter>
<filter id="filter2_f_154_347" x="196" y="153" width="46" height="257" filterUnits="userSpaceOnUse" color-interpolation-filters="sRGB">
<feFlood flood-opacity="0" result="BackgroundImageFix"/>
<feBlend mode="normal" in="SourceGraphic" in2="BackgroundImageFix" result="shape"/>
<feGaussianBlur stdDeviation="7" result="effect1_foregroundBlur_154_347"/>
</filter>
<filter id="filter3_f_154_347" x="196" y="415" width="46" height="179" filterUnits="userSpaceOnUse" color-interpolation-filters="sRGB">
<feFlood flood-opacity="0" result="BackgroundImageFix"/>
<feBlend mode="normal" in="SourceGraphic" in2="BackgroundImageFix" result="shape"/>
<feGaussianBlur stdDeviation="7" result="effect1_foregroundBlur_154_347"/>
</filter>
<filter id="filter4_f_154_347" x="1" y="131" width="228" height="54" filterUnits="userSpaceOnUse" color-interpolation-filters="sRGB">
<feFlood flood-opacity="0" result="BackgroundImageFix"/>
<feBlend mode="normal" in="SourceGraphic" in2="BackgroundImageFix" result="shape"/>
<feGaussianBlur stdDeviation="7" result="effect1_foregroundBlur_154_347"/>
</filter>
<filter id="filter5_f_154_347" x="0" y="393" width="228" height="54" filterUnits="userSpaceOnUse" color-interpolation-filters="sRGB">
<feFlood flood-opacity="0" result="BackgroundImageFix"/>
<feBlend mode="normal" in="SourceGraphic" in2="BackgroundImageFix" result="shape"/>
<feGaussianBlur stdDeviation="7" result="effect1_foregroundBlur_154_347"/>
</filter>
<filter id="filter6_f_154_347" x="0" y="377" width="228" height="54" filterUnits="userSpaceOnUse" color-interpolation-filters="sRGB">
<feFlood flood-opacity="0" result="BackgroundImageFix"/>
<feBlend mode="normal" in="SourceGraphic" in2="BackgroundImageFix" result="shape"/>
<feGaussianBlur stdDeviation="7" result="effect1_foregroundBlur_154_347"/>
</filter>
<filter id="filter7_f_154_347" x="1" y="110" width="228" height="54" filterUnits="userSpaceOnUse" color-interpolation-filters="sRGB">
<feFlood flood-opacity="0" result="BackgroundImageFix"/>
<feBlend mode="normal" in="SourceGraphic" in2="BackgroundImageFix" result="shape"/>
<feGaussianBlur stdDeviation="7" result="effect1_foregroundBlur_154_347"/>
</filter>
<filter id="filter8_f_154_347" x="200" y="0" width="68" height="54" filterUnits="userSpaceOnUse" color-interpolation-filters="sRGB">
<feFlood flood-opacity="0" result="BackgroundImageFix"/>
<feBlend mode="normal" in="SourceGraphic" in2="BackgroundImageFix" result="shape"/>
<feGaussianBlur stdDeviation="7" result="effect1_foregroundBlur_154_347"/>
</filter>
<linearGradient id="paint0_linear_154_347" x1="305.5" y1="300" x2="190.817" y2="302.992" gradientUnits="userSpaceOnUse">
<stop stop-color="#EAEAFF"/>
<stop offset="0.247052" stop-color="#EAEAFF"/>
<stop offset="0.679406" stop-color="#F0F0F8"/>
<stop offset="1" stop-color="#D6D6F0"/>
</linearGradient>
<linearGradient id="paint1_linear_154_347" x1="234" y1="20" x2="214" y2="580" gradientUnits="userSpaceOnUse">
<stop offset="0.927083" stop-color="white" stop-opacity="0"/>
<stop offset="0.995779" stop-color="white"/>
</linearGradient>
<linearGradient id="paint2_linear_154_347" x1="225.702" y1="130" x2="220.41" y2="194.486" gradientUnits="userSpaceOnUse">
<stop offset="0.280357" stop-color="#E9E9F6"/>
<stop offset="0.584065" stop-color="#F0F0F8"/>
<stop offset="1" stop-color="#D6D6F0"/>
</linearGradient>
<linearGradient id="paint3_linear_154_347" x1="225.702" y1="392" x2="220.41" y2="456.486" gradientUnits="userSpaceOnUse">
<stop offset="0.283866" stop-color="#E5E5F4"/>
<stop offset="0.584065" stop-color="#F0F0F8"/>
<stop offset="1" stop-color="#D6D6F0"/>
</linearGradient>
</defs>
</svg>
