<svg width="273" height="698" viewBox="0 0 273 698" fill="none" xmlns="http://www.w3.org/2000/svg">
<g filter="url(#filter0_f_154_349)">
<rect width="200" height="26" transform="matrix(-1 0 0 1 253 634)" fill="white" fill-opacity="0.4"/>
</g>
<g filter="url(#filter1_f_154_349)">
<rect width="18" height="635" transform="matrix(-1 0 0 1 32 31)" fill="white" fill-opacity="0.4"/>
</g>
<g filter="url(#filter2_f_154_349)">
<rect width="18" height="111" transform="matrix(-1 0 0 1 63 31)" fill="#8E8EB6" fill-opacity="0.4"/>
</g>
<g filter="url(#filter3_f_154_349)">
<rect width="18" height="218" transform="matrix(-1 0 0 1 63 167)" fill="#8E8EB6" fill-opacity="0.4"/>
</g>
<g filter="url(#filter4_f_154_349)">
<rect width="18" height="229" transform="matrix(-1 0 0 1 63 418)" fill="#8E8EB6" fill-opacity="0.4"/>
</g>
<g filter="url(#filter5_f_154_349)">
<rect width="200" height="26" transform="matrix(-1 0 0 1 253 145)" fill="#8E8EB6" fill-opacity="0.4"/>
</g>
<g filter="url(#filter6_f_154_349)">
<rect width="200" height="26" transform="matrix(-1 0 0 1 259 396)" fill="#8E8EB6" fill-opacity="0.4"/>
</g>
<g filter="url(#filter7_f_154_349)">
<rect width="200" height="26" transform="matrix(-1 0 0 1 259 380)" fill="white" fill-opacity="0.4"/>
</g>
<g filter="url(#filter8_f_154_349)">
<rect width="200" height="26" transform="matrix(-1 0 0 1 253 124)" fill="white" fill-opacity="0.4"/>
</g>
<g filter="url(#filter9_f_154_349)">
<rect width="40" height="26" transform="matrix(-1 0 0 1 59 14)" fill="white" fill-opacity="0.4"/>
</g>
<g filter="url(#filter10_f_154_349)">
<rect width="200" height="26" transform="matrix(-1 0 0 1 253 658)" fill="#8E8EB6" fill-opacity="0.4"/>
</g>
<path d="M59 26C59 22.6863 56.3137 20 53 20H25C21.6863 20 19 22.6863 19 26V674C19 677.314 21.6863 680 25 680H59V26Z" fill="url(#paint0_linear_154_349)"/>
<path d="M59 26C59 22.6863 56.3137 20 53 20H25C21.6863 20 19 22.6863 19 26V674C19 677.314 21.6863 680 25 680H59V26Z" fill="url(#paint1_linear_154_349)" fill-opacity="0.5"/>
<path d="M253 140C253 136.686 250.314 134 247 134H53V167H247C250.314 167 253 164.314 253 161V140Z" fill="url(#paint2_linear_154_349)"/>
<path d="M259 391C259 387.686 256.314 385 253 385H59V418H253C256.314 418 259 415.314 259 412V391Z" fill="url(#paint3_linear_154_349)"/>
<path d="M253 653C253 649.686 250.314 647 247 647H53V680H247C250.314 680 253 677.314 253 674V653Z" fill="url(#paint4_linear_154_349)"/>
<defs>
<filter id="filter0_f_154_349" x="39" y="620" width="228" height="54" filterUnits="userSpaceOnUse" color-interpolation-filters="sRGB">
<feFlood flood-opacity="0" result="BackgroundImageFix"/>
<feBlend mode="normal" in="SourceGraphic" in2="BackgroundImageFix" result="shape"/>
<feGaussianBlur stdDeviation="7" result="effect1_foregroundBlur_154_349"/>
</filter>
<filter id="filter1_f_154_349" x="0" y="17" width="46" height="663" filterUnits="userSpaceOnUse" color-interpolation-filters="sRGB">
<feFlood flood-opacity="0" result="BackgroundImageFix"/>
<feBlend mode="normal" in="SourceGraphic" in2="BackgroundImageFix" result="shape"/>
<feGaussianBlur stdDeviation="7" result="effect1_foregroundBlur_154_349"/>
</filter>
<filter id="filter2_f_154_349" x="31" y="17" width="46" height="139" filterUnits="userSpaceOnUse" color-interpolation-filters="sRGB">
<feFlood flood-opacity="0" result="BackgroundImageFix"/>
<feBlend mode="normal" in="SourceGraphic" in2="BackgroundImageFix" result="shape"/>
<feGaussianBlur stdDeviation="7" result="effect1_foregroundBlur_154_349"/>
</filter>
<filter id="filter3_f_154_349" x="31" y="153" width="46" height="246" filterUnits="userSpaceOnUse" color-interpolation-filters="sRGB">
<feFlood flood-opacity="0" result="BackgroundImageFix"/>
<feBlend mode="normal" in="SourceGraphic" in2="BackgroundImageFix" result="shape"/>
<feGaussianBlur stdDeviation="7" result="effect1_foregroundBlur_154_349"/>
</filter>
<filter id="filter4_f_154_349" x="31" y="404" width="46" height="257" filterUnits="userSpaceOnUse" color-interpolation-filters="sRGB">
<feFlood flood-opacity="0" result="BackgroundImageFix"/>
<feBlend mode="normal" in="SourceGraphic" in2="BackgroundImageFix" result="shape"/>
<feGaussianBlur stdDeviation="7" result="effect1_foregroundBlur_154_349"/>
</filter>
<filter id="filter5_f_154_349" x="39" y="131" width="228" height="54" filterUnits="userSpaceOnUse" color-interpolation-filters="sRGB">
<feFlood flood-opacity="0" result="BackgroundImageFix"/>
<feBlend mode="normal" in="SourceGraphic" in2="BackgroundImageFix" result="shape"/>
<feGaussianBlur stdDeviation="7" result="effect1_foregroundBlur_154_349"/>
</filter>
<filter id="filter6_f_154_349" x="45" y="382" width="228" height="54" filterUnits="userSpaceOnUse" color-interpolation-filters="sRGB">
<feFlood flood-opacity="0" result="BackgroundImageFix"/>
<feBlend mode="normal" in="SourceGraphic" in2="BackgroundImageFix" result="shape"/>
<feGaussianBlur stdDeviation="7" result="effect1_foregroundBlur_154_349"/>
</filter>
<filter id="filter7_f_154_349" x="45" y="366" width="228" height="54" filterUnits="userSpaceOnUse" color-interpolation-filters="sRGB">
<feFlood flood-opacity="0" result="BackgroundImageFix"/>
<feBlend mode="normal" in="SourceGraphic" in2="BackgroundImageFix" result="shape"/>
<feGaussianBlur stdDeviation="7" result="effect1_foregroundBlur_154_349"/>
</filter>
<filter id="filter8_f_154_349" x="39" y="110" width="228" height="54" filterUnits="userSpaceOnUse" color-interpolation-filters="sRGB">
<feFlood flood-opacity="0" result="BackgroundImageFix"/>
<feBlend mode="normal" in="SourceGraphic" in2="BackgroundImageFix" result="shape"/>
<feGaussianBlur stdDeviation="7" result="effect1_foregroundBlur_154_349"/>
</filter>
<filter id="filter9_f_154_349" x="5" y="0" width="68" height="54" filterUnits="userSpaceOnUse" color-interpolation-filters="sRGB">
<feFlood flood-opacity="0" result="BackgroundImageFix"/>
<feBlend mode="normal" in="SourceGraphic" in2="BackgroundImageFix" result="shape"/>
<feGaussianBlur stdDeviation="7" result="effect1_foregroundBlur_154_349"/>
</filter>
<filter id="filter10_f_154_349" x="39" y="644" width="228" height="54" filterUnits="userSpaceOnUse" color-interpolation-filters="sRGB">
<feFlood flood-opacity="0" result="BackgroundImageFix"/>
<feBlend mode="normal" in="SourceGraphic" in2="BackgroundImageFix" result="shape"/>
<feGaussianBlur stdDeviation="7" result="effect1_foregroundBlur_154_349"/>
</filter>
<linearGradient id="paint0_linear_154_349" x1="-32.5" y1="350" x2="82.2047" y2="352.539" gradientUnits="userSpaceOnUse">
<stop stop-color="#EAEAFF"/>
<stop offset="0.247052" stop-color="#EAEAFF"/>
<stop offset="0.679406" stop-color="#F0F0F8"/>
<stop offset="1" stop-color="#D6D6F0"/>
</linearGradient>
<linearGradient id="paint1_linear_154_349" x1="39" y1="20" x2="66.7669" y2="679.673" gradientUnits="userSpaceOnUse">
<stop offset="0.927083" stop-color="white" stop-opacity="0"/>
<stop offset="0.995779" stop-color="white"/>
</linearGradient>
<linearGradient id="paint2_linear_154_349" x1="41.2979" y1="130" x2="46.5899" y2="194.486" gradientUnits="userSpaceOnUse">
<stop offset="0.280357" stop-color="#E9E9F6"/>
<stop offset="0.584065" stop-color="#F0F0F8"/>
<stop offset="1" stop-color="#D6D6F0"/>
</linearGradient>
<linearGradient id="paint3_linear_154_349" x1="47.2979" y1="381" x2="52.5899" y2="445.486" gradientUnits="userSpaceOnUse">
<stop offset="0.283866" stop-color="#E5E5F4"/>
<stop offset="0.584065" stop-color="#F0F0F8"/>
<stop offset="1" stop-color="#D6D6F0"/>
</linearGradient>
<linearGradient id="paint4_linear_154_349" x1="44.4894" y1="637.5" x2="143.031" y2="787.26" gradientUnits="userSpaceOnUse">
<stop offset="0.0636953" stop-color="#EEEEF5"/>
<stop offset="0.436619" stop-color="#F0F0F8"/>
<stop offset="0.63567" stop-color="#EBEBF6"/>
<stop offset="0.804507" stop-color="#E7E7F5"/>
</linearGradient>
</defs>
</svg>
