<svg width="375" height="483" viewBox="0 0 375 483" fill="none" xmlns="http://www.w3.org/2000/svg">
<rect x="293.218" width="81.7819" height="483" fill="#1A1885"/>
<rect x="195.479" width="81.7819" height="483" fill="#1A1885"/>
<rect x="97.7393" width="81.7819" height="483" fill="#1A1885"/>
<rect width="81.7819" height="483" fill="#1A1885"/>
<mask id="mask0_1002_1703" style="mask-type:alpha" maskUnits="userSpaceOnUse" x="0" y="0" width="375" height="483">
<rect width="375" height="483" fill="#D9D9D9"/>
</mask>
<g mask="url(#mask0_1002_1703)">
<g filter="url(#filter0_f_1002_1703)">
<path d="M147.359 408.387L142.722 442.809L129.577 443.367L132.686 405.908L147.359 408.387Z" fill="black" fill-opacity="0.1"/>
<path d="M124.959 427.117C124.959 427.117 117.767 437.283 106.375 441.114C94.9824 444.946 84.7153 449.729 85.9054 456.672C85.9054 456.672 103.194 464.521 130.659 454.224L130.806 457.222L149.04 455.884L148.097 431.672L133.079 433.33L134.07 430.824L124.959 427.117Z" fill="black" fill-opacity="0.1"/>
<path d="M118.665 454.812C94.0514 461.963 87.5612 455.104 85.9564 454.829C85.7072 455.513 85.6945 455.973 85.9055 456.67C85.9055 456.67 103.194 464.519 130.659 454.222L130.806 457.221L149.04 455.882L148.943 451.042C142.25 451.548 136.777 449.554 118.665 454.812Z" fill="black" fill-opacity="0.1"/>
<path d="M215.028 405.859L215.223 440.43L228.32 442.564L229.899 405.149L215.028 405.859Z" fill="black" fill-opacity="0.1"/>
<path d="M234.968 427.252C234.968 427.252 240.772 438.144 251.751 443.431C262.576 448.547 273.506 454.809 271.532 461.556C271.532 461.556 252.185 466.928 226.131 453.538L225.657 456.448L207.749 452.765L211.576 428.832L226.403 432.196L225.714 429.716L234.968 427.252Z" fill="black" fill-opacity="0.1"/>
<path d="M241.266 457.244C258.099 462.828 269.989 459.847 271.306 459.588C271.273 460.239 271.411 460.735 271.052 461.369C271.052 461.369 251.705 466.741 225.651 453.351L225.177 456.261L207.269 452.578L208.234 446.432C214.843 447.91 225.221 452.188 241.266 457.244Z" fill="black" fill-opacity="0.1"/>
<path d="M218.688 139.398L229.806 301.647L239.187 420.546C239.187 420.546 232.145 429.397 206.48 424.535L196.483 299.985L182.633 197.424L169.357 197.057L154.303 423.093C154.303 423.093 142.959 431.084 122.633 423.107L134.855 131.89L218.688 139.398Z" fill="black" fill-opacity="0.1"/>
<g filter="url(#filter1_f_1002_1703)">
<path d="M170.029 180.269L134.914 164.738L133.068 138.563L216.513 140.87L215.791 166.973L183.295 180.636L175.994 165.873L170.029 180.269Z" fill="black" fill-opacity="0.1"/>
</g>
<path d="M185.683 -22.8128L183.255 22.579L156.194 9.513L158.366 -37.2057L185.683 -22.8128Z" fill="black" fill-opacity="0.1"/>
<path d="M228.857 12.1073C228.857 12.1073 223.971 93.3584 217.558 134.387C217.558 134.387 197.232 142.917 165.179 140.711C142.491 139.204 136.177 134.191 136.177 134.191L107.342 -0.343733C107.342 -0.343733 123.825 -7.80671 158.406 -6.85073L173.969 8.39031C173.969 8.39031 178.685 -3.064 187.244 -5.027C200.261 -3.7873 213.633 0.541672 228.803 3.45396L228.857 12.1073Z" fill="black" fill-opacity="0.1"/>
<g filter="url(#filter2_f_1002_1703)">
<path d="M196.501 -2.71695L195.716 -5.30813L189.522 -13.6161L175.568 -4.58037L176.282 0.57834L184.89 14.5202L196.501 -2.71695Z" fill="black" fill-opacity="0.1"/>
</g>
<g filter="url(#filter3_f_1002_1703)">
<path d="M149.562 -2.84709L150.049 -5.48359L154.903 -14.1923L168.149 -6.15772L167.939 -0.967726L161.393 13.5225L149.562 -2.84709Z" fill="black" fill-opacity="0.1"/>
</g>
<path d="M173.971 8.24349L170.266 -6.22871L160.918 -2.23486L173.971 8.24349Z" fill="black" fill-opacity="0.1"/>
<path d="M175.509 -4.91047L173.972 8.24378L181.7 -0.780283L175.509 -4.91047Z" fill="black" fill-opacity="0.1"/>
<g filter="url(#filter4_f_1002_1703)">
<path d="M165.633 -1.37128C165.633 -1.37128 170.289 -0.0694104 176.464 -0.631926L181.426 5.51755L176.706 11.8393L191.335 113.866L177.482 126.974L161.395 114.798L168.04 12.333L162.691 4.26641L165.633 -1.37128Z" fill="black" fill-opacity="0.1"/>
</g>
<path d="M167.346 -1.32391C167.346 -1.32391 172.002 -0.0220472 178.177 -0.584563L183.139 5.56492L178.418 11.8867L193.048 113.914L179.195 127.022L163.108 114.846L169.753 12.3803L164.404 4.31377L167.346 -1.32391Z" fill="black" fill-opacity="0.1"/>
<path d="M196.341 -5.21495L184.637 9.71221L175.51 -4.911L190.731 -14.4618L196.341 -5.21495Z" fill="black" fill-opacity="0.1"/>
<path d="M148.039 -8.45618L161.799 8.34807L170.267 -6.22863L154.005 -17.383L148.039 -8.45618Z" fill="black" fill-opacity="0.1"/>
<path d="M313.453 -103.727L282.345 -18.3446L236.335 43.4782C224.918 61.6602 199.164 40.0317 225.857 4.86987L258.813 -39.4465L284.112 -113.216L313.453 -103.727Z" fill="black" fill-opacity="0.1"/>
<path d="M43.0094 -111.458L69.3532 -24.4882L99.3626 29.0492C109.758 47.8341 149.181 38.3944 124.472 1.8116L94.0146 -44.2578L72.8296 -119.313L43.0094 -111.458Z" fill="black" fill-opacity="0.1"/>
<path d="M245.226 0.680394L206.738 -1.83749L175.615 90.3507L141.817 -7.52603C133.032 -7.7689 116.194 -4.09823 107.863 -3.11696L92.7403 17.2403L98.4709 26.8202L111.894 52.458C116.468 64.7013 122.278 79.7167 127.035 98.458C131.793 117.199 129.518 141.174 127.786 150.819L171.27 168.013L179.765 152.255L187.377 168.459L219.871 159.18C221.739 153.416 225.791 130.556 227.044 85.2299C235.074 42.5875 246.687 9.68639 245.226 0.680394Z" fill="black" fill-opacity="0.1"/>
<path d="M245.396 -20.9362L230.718 -1.21428L230.267 -0.370254L233.685 46.4032L270.586 -2.68162L245.396 -20.9362Z" fill="black" fill-opacity="0.1"/>
<g filter="url(#filter5_f_1002_1703)">
<path d="M142.178 -5.07621L134.475 -5.28915L130.078 29.8534L143.331 33.1526L138.453 50.4682L173.743 89.4239L142.178 -5.07621Z" fill="black" fill-opacity="0.1"/>
</g>
<path d="M143.923 -8.12975L135.872 -8.6456L131.457 29.0659L144.71 32.3651L139.832 49.6806L175.122 88.6364L143.923 -8.12975Z" fill="black" fill-opacity="0.1"/>
<g filter="url(#filter6_f_1002_1703)">
<path d="M206.7 0.133193L176.391 89.5733L202.144 59.7838L200.643 39.7991L213.794 36.2033L213.511 1.60623L206.7 0.133193Z" fill="black" fill-opacity="0.1"/>
</g>
<path d="M206.139 -4.21024L175.123 88.6364L200.876 58.8468L199.376 38.8621L212.526 35.2663L212.558 -3.0063L206.139 -4.21024Z" fill="black" fill-opacity="0.1"/>
<path d="M178.279 107.052C180.302 107.108 181.987 105.513 182.043 103.49C182.099 101.467 180.504 99.7822 178.481 99.7263C176.458 99.6703 174.773 101.265 174.717 103.288C174.661 105.311 176.256 106.996 178.279 107.052Z" fill="black" fill-opacity="0.1"/>
<path d="M179.349 132.011C181.372 132.067 183.057 130.472 183.113 128.449C183.169 126.426 181.575 124.741 179.552 124.685C177.529 124.629 175.843 126.223 175.787 128.246C175.731 130.269 177.326 131.955 179.349 132.011Z" fill="black" fill-opacity="0.1"/>
</g>
<path d="M160.586 410.288L156.279 444.754L143.14 445.438L145.889 407.95L160.586 410.288Z" fill="url(#paint0_linear_1002_1703)"/>
<path d="M138.365 429.232C138.365 429.232 131.272 439.467 119.917 443.408C108.562 447.348 98.341 452.23 99.5976 459.161C99.5976 459.161 116.961 466.844 144.325 456.284L144.502 459.28L162.722 457.767L161.546 433.565L146.545 435.367L147.512 432.852L138.365 429.232Z" fill="url(#paint1_linear_1002_1703)"/>
<path d="M132.338 456.987C107.795 464.374 101.239 457.578 99.6316 457.318C99.3889 458.005 99.3806 458.465 99.5983 459.16C99.5983 459.16 116.962 466.842 144.326 456.282L144.502 459.279L162.722 457.766L162.579 452.927C155.891 453.497 150.399 451.556 132.338 456.987Z" fill="url(#paint2_linear_1002_1703)"/>
<path d="M228.227 407.111L228.755 441.679L241.871 443.687L243.091 406.259L228.227 407.111Z" fill="url(#paint3_linear_1002_1703)"/>
<path d="M248.372 428.312C248.372 428.312 254.28 439.148 265.309 444.329C276.183 449.341 287.172 455.498 285.263 462.263C285.263 462.263 265.968 467.821 239.787 454.681L239.341 457.596L221.398 454.085L224.996 430.117L239.854 433.338L239.142 430.864L248.372 428.312Z" fill="url(#paint4_linear_1002_1703)"/>
<path d="M254.958 458.242C271.844 463.665 283.704 460.57 285.019 460.298C284.992 460.949 285.135 461.444 284.783 462.081C284.783 462.081 265.488 467.639 239.307 454.499L238.86 457.414L220.918 453.903L221.824 447.748C228.446 449.162 238.866 453.34 254.958 458.242Z" fill="url(#paint5_linear_1002_1703)"/>
<path d="M229.329 140.626L242.004 302.761L252.525 421.564C252.525 421.564 245.569 430.483 219.858 425.867L208.666 301.418L193.833 198.995L180.554 198.756L167.67 424.926C167.67 424.926 156.403 433.025 136.001 425.244L145.428 133.923L229.329 140.626Z" fill="url(#paint6_linear_1002_1703)"/>
<g filter="url(#filter7_f_1002_1703)">
<path d="M181.066 181.962L145.803 166.769L143.706 140.614L227.169 142.12L226.698 168.229L194.334 182.202L186.892 167.51L181.066 181.962Z" fill="url(#paint7_linear_1002_1703)"/>
</g>
<path d="M194.768 -21.2618L192.776 24.1512L165.591 11.3455L167.314 -35.3918L194.768 -21.2618Z" fill="url(#paint8_linear_1002_1703)"/>
<path d="M238.276 13.2431C238.276 13.2431 234.17 94.5373 228.151 135.626C228.151 135.626 207.908 144.35 175.835 142.452C153.134 141.163 146.772 136.21 146.772 136.21L116.647 1.95878C116.647 1.95878 133.058 -5.66204 167.647 -5.03797L183.355 10.053C183.355 10.053 187.961 -1.44602 196.501 -3.49107C209.529 -2.37635 222.942 1.8241 238.139 4.59066L238.276 13.2431Z" fill="url(#paint9_linear_1002_1703)"/>
<g filter="url(#filter8_f_1002_1703)">
<path d="M205.779 -1.27084L204.969 -3.85437L198.695 -12.1025L184.829 -2.93329L185.592 2.21833L194.334 16.077L205.779 -1.27084Z" fill="#2D3482" fill-opacity="0.3"/>
</g>
<g filter="url(#filter9_f_1002_1703)">
<path d="M158.841 -0.95005L159.302 -3.59111L164.072 -12.346L177.395 -4.4389L177.235 0.752861L170.828 15.3053L158.841 -0.95005Z" fill="#2D3482" fill-opacity="0.3"/>
</g>
<path d="M183.356 9.90577L179.512 -4.53019L170.203 -0.446822L183.356 9.90577Z" fill="#8E84BB"/>
<path d="M184.767 -3.26254L183.357 9.90585L190.997 0.808043L184.767 -3.26254Z" fill="#8E84BB"/>
<g filter="url(#filter10_f_1002_1703)">
<path d="M174.926 0.372021C174.926 0.372021 179.595 1.62914 185.764 1.00739L190.785 7.10897L186.125 13.4757L201.734 115.358L188.007 128.598L171.803 116.577L177.465 14.0525L172.038 6.03768L174.926 0.372021Z" fill="#2D3482" fill-opacity="0.5"/>
</g>
<path d="M176.639 0.402782C176.639 0.402782 181.308 1.6599 187.477 1.03816L192.498 7.13973L187.838 13.5065L203.447 115.388L189.72 128.629L173.516 116.608L179.178 14.0833L173.751 6.06844L176.639 0.402782Z" fill="url(#paint10_linear_1002_1703)"/>
<path d="M205.595 -3.76668L194.035 11.2721L184.767 -3.26282L199.897 -12.9593L205.595 -3.76668Z" fill="url(#paint11_linear_1002_1703)"/>
<path d="M157.265 -6.54452L171.185 10.1269L179.513 -4.53039L163.145 -15.5282L157.265 -6.54452Z" fill="url(#paint12_linear_1002_1703)"/>
<path d="M321.757 -103.397L291.469 -17.72L246.054 44.5415C234.812 62.8322 208.853 41.4518 235.207 6.03549L267.736 -38.5951L292.326 -112.604L321.757 -103.397Z" fill="url(#paint13_linear_1002_1703)"/>
<path d="M51.2505 -108.533L78.4277 -21.82L108.95 31.4269C119.524 50.1113 158.856 40.2936 133.796 3.94964L102.898 -41.8254L80.9939 -116.674L51.2505 -108.533Z" fill="url(#paint14_linear_1002_1703)"/>
<path d="M254.536 1.65954L216.026 -0.488861L185.789 91.9937L151.053 -5.55411C142.266 -5.71265 125.464 -1.88057 117.144 -0.819402L102.216 19.682L108.039 29.2065L121.708 54.7143C126.398 66.9132 132.353 81.8721 137.289 100.567C142.226 119.262 140.182 143.257 138.542 152.918L182.19 169.695L190.533 153.856L198.3 169.985L230.703 160.395C232.516 154.613 236.348 131.716 237.166 86.3797C244.787 43.6621 256.083 10.6511 254.536 1.65954Z" fill="url(#paint15_linear_1002_1703)"/>
<path d="M254.497 -19.9576L240.009 -0.0958104L239.566 0.752506L243.432 47.4911L279.861 -1.94569L254.497 -19.9576Z" fill="url(#paint16_linear_1002_1703)"/>
<g filter="url(#filter11_f_1002_1703)">
<path d="M151.437 -3.10781L143.733 -3.24681L139.673 31.9363L152.957 35.1082L148.245 52.4698L183.908 91.0851L151.437 -3.10781Z" fill="#212356" fill-opacity="0.32"/>
</g>
<path d="M153.153 -6.17835L145.097 -6.61691L141.044 31.1352L154.329 34.3071L149.617 51.6686L185.279 90.2839L153.153 -6.17835Z" fill="url(#paint17_linear_1002_1703)"/>
<g filter="url(#filter12_f_1002_1703)">
<path d="M216.005 1.48292L186.556 91.2098L212.021 61.1745L210.329 41.2051L223.444 37.4833L222.83 2.89053L216.005 1.48292Z" fill="url(#paint18_linear_1002_1703)"/>
</g>
<path d="M215.402 -2.85662L185.279 90.2833L210.745 60.248L209.052 40.2786L222.168 36.5568L221.832 -1.71434L215.402 -2.85662Z" fill="url(#paint19_linear_1002_1703)"/>
<path d="M188.612 108.67C190.635 108.706 192.305 107.095 192.341 105.072C192.378 103.048 190.767 101.378 188.744 101.342C186.72 101.305 185.05 102.916 185.014 104.94C184.977 106.963 186.588 108.633 188.612 108.67Z" fill="url(#paint20_linear_1002_1703)"/>
<path d="M189.922 133.616C191.946 133.652 193.616 132.042 193.652 130.018C193.689 127.995 192.078 126.325 190.054 126.288C188.031 126.252 186.361 127.862 186.325 129.886C186.288 131.909 187.899 133.579 189.922 133.616Z" fill="url(#paint21_linear_1002_1703)"/>
</g>
<defs>
<filter id="filter0_f_1002_1703" x="17.6172" y="-185.138" width="320.912" height="661.758" filterUnits="userSpaceOnUse" color-interpolation-filters="sRGB">
<feFlood flood-opacity="0" result="BackgroundImageFix"/>
<feBlend mode="normal" in="SourceGraphic" in2="BackgroundImageFix" result="shape"/>
<feGaussianBlur stdDeviation="7" result="effect1_foregroundBlur_1002_1703"/>
</filter>
<filter id="filter1_f_1002_1703" x="131.068" y="136.563" width="87.4443" height="46.0723" filterUnits="userSpaceOnUse" color-interpolation-filters="sRGB">
<feFlood flood-opacity="0" result="BackgroundImageFix"/>
<feBlend mode="normal" in="SourceGraphic" in2="BackgroundImageFix" result="shape"/>
<feGaussianBlur stdDeviation="1" result="effect1_foregroundBlur_1002_1703"/>
</filter>
<filter id="filter2_f_1002_1703" x="171.567" y="-17.6162" width="28.9336" height="36.1362" filterUnits="userSpaceOnUse" color-interpolation-filters="sRGB">
<feFlood flood-opacity="0" result="BackgroundImageFix"/>
<feBlend mode="normal" in="SourceGraphic" in2="BackgroundImageFix" result="shape"/>
<feGaussianBlur stdDeviation="2" result="effect1_foregroundBlur_1002_1703"/>
</filter>
<filter id="filter3_f_1002_1703" x="145.562" y="-18.1924" width="26.5869" height="35.7148" filterUnits="userSpaceOnUse" color-interpolation-filters="sRGB">
<feFlood flood-opacity="0" result="BackgroundImageFix"/>
<feBlend mode="normal" in="SourceGraphic" in2="BackgroundImageFix" result="shape"/>
<feGaussianBlur stdDeviation="2" result="effect1_foregroundBlur_1002_1703"/>
</filter>
<filter id="filter4_f_1002_1703" x="157.395" y="-5.37109" width="37.9404" height="136.346" filterUnits="userSpaceOnUse" color-interpolation-filters="sRGB">
<feFlood flood-opacity="0" result="BackgroundImageFix"/>
<feBlend mode="normal" in="SourceGraphic" in2="BackgroundImageFix" result="shape"/>
<feGaussianBlur stdDeviation="2" result="effect1_foregroundBlur_1002_1703"/>
</filter>
<filter id="filter5_f_1002_1703" x="126.077" y="-9.28906" width="51.666" height="102.713" filterUnits="userSpaceOnUse" color-interpolation-filters="sRGB">
<feFlood flood-opacity="0" result="BackgroundImageFix"/>
<feBlend mode="normal" in="SourceGraphic" in2="BackgroundImageFix" result="shape"/>
<feGaussianBlur stdDeviation="2" result="effect1_foregroundBlur_1002_1703"/>
</filter>
<filter id="filter6_f_1002_1703" x="169.391" y="-6.8667" width="51.4033" height="103.44" filterUnits="userSpaceOnUse" color-interpolation-filters="sRGB">
<feFlood flood-opacity="0" result="BackgroundImageFix"/>
<feBlend mode="normal" in="SourceGraphic" in2="BackgroundImageFix" result="shape"/>
<feGaussianBlur stdDeviation="3.5" result="effect1_foregroundBlur_1002_1703"/>
</filter>
<filter id="filter7_f_1002_1703" x="141.706" y="138.614" width="87.4629" height="45.5879" filterUnits="userSpaceOnUse" color-interpolation-filters="sRGB">
<feFlood flood-opacity="0" result="BackgroundImageFix"/>
<feBlend mode="normal" in="SourceGraphic" in2="BackgroundImageFix" result="shape"/>
<feGaussianBlur stdDeviation="1" result="effect1_foregroundBlur_1002_1703"/>
</filter>
<filter id="filter8_f_1002_1703" x="180.829" y="-16.1025" width="28.9492" height="36.1797" filterUnits="userSpaceOnUse" color-interpolation-filters="sRGB">
<feFlood flood-opacity="0" result="BackgroundImageFix"/>
<feBlend mode="normal" in="SourceGraphic" in2="BackgroundImageFix" result="shape"/>
<feGaussianBlur stdDeviation="2" result="effect1_foregroundBlur_1002_1703"/>
</filter>
<filter id="filter9_f_1002_1703" x="154.841" y="-16.3462" width="26.5537" height="35.6514" filterUnits="userSpaceOnUse" color-interpolation-filters="sRGB">
<feFlood flood-opacity="0" result="BackgroundImageFix"/>
<feBlend mode="normal" in="SourceGraphic" in2="BackgroundImageFix" result="shape"/>
<feGaussianBlur stdDeviation="2" result="effect1_foregroundBlur_1002_1703"/>
</filter>
<filter id="filter10_f_1002_1703" x="167.804" y="-3.62793" width="37.9297" height="136.226" filterUnits="userSpaceOnUse" color-interpolation-filters="sRGB">
<feFlood flood-opacity="0" result="BackgroundImageFix"/>
<feBlend mode="normal" in="SourceGraphic" in2="BackgroundImageFix" result="shape"/>
<feGaussianBlur stdDeviation="2" result="effect1_foregroundBlur_1002_1703"/>
</filter>
<filter id="filter11_f_1002_1703" x="135.673" y="-7.24658" width="52.2354" height="102.332" filterUnits="userSpaceOnUse" color-interpolation-filters="sRGB">
<feFlood flood-opacity="0" result="BackgroundImageFix"/>
<feBlend mode="normal" in="SourceGraphic" in2="BackgroundImageFix" result="shape"/>
<feGaussianBlur stdDeviation="2" result="effect1_foregroundBlur_1002_1703"/>
</filter>
<filter id="filter12_f_1002_1703" x="179.556" y="-5.51709" width="50.8887" height="103.727" filterUnits="userSpaceOnUse" color-interpolation-filters="sRGB">
<feFlood flood-opacity="0" result="BackgroundImageFix"/>
<feBlend mode="normal" in="SourceGraphic" in2="BackgroundImageFix" result="shape"/>
<feGaussianBlur stdDeviation="3.5" result="effect1_foregroundBlur_1002_1703"/>
</filter>
<linearGradient id="paint0_linear_1002_1703" x1="152.241" y1="420.054" x2="151.503" y2="445.588" gradientUnits="userSpaceOnUse">
<stop stop-color="#FFC3AC"/>
<stop offset="1" stop-color="#FECFBD"/>
</linearGradient>
<linearGradient id="paint1_linear_1002_1703" x1="131.626" y1="429.111" x2="131.03" y2="462.135" gradientUnits="userSpaceOnUse">
<stop offset="0.015625" stop-color="#372EA5"/>
<stop offset="0.276042" stop-color="#22317B"/>
<stop offset="1" stop-color="#050C33"/>
</linearGradient>
<linearGradient id="paint2_linear_1002_1703" x1="131.184" y1="452.361" x2="131.008" y2="462.133" gradientUnits="userSpaceOnUse">
<stop/>
<stop offset="1" stop-color="#0F215F" stop-opacity="0"/>
</linearGradient>
<linearGradient id="paint3_linear_1002_1703" x1="232.171" y1="419.173" x2="248.745" y2="437.36" gradientUnits="userSpaceOnUse">
<stop stop-color="#FFC3AC"/>
<stop offset="1" stop-color="#FECFBD"/>
</linearGradient>
<linearGradient id="paint4_linear_1002_1703" x1="227.471" y1="427.837" x2="271.138" y2="475.267" gradientUnits="userSpaceOnUse">
<stop offset="0.015625" stop-color="#372EA5"/>
<stop offset="0.276042" stop-color="#22317B"/>
<stop offset="1" stop-color="#050C33"/>
</linearGradient>
<linearGradient id="paint5_linear_1002_1703" x1="234.02" y1="436.519" x2="270.045" y2="475.649" gradientUnits="userSpaceOnUse">
<stop/>
<stop offset="1" stop-color="#0F215F" stop-opacity="0"/>
</linearGradient>
<linearGradient id="paint6_linear_1002_1703" x1="218.321" y1="123.263" x2="197.758" y2="429.614" gradientUnits="userSpaceOnUse">
<stop offset="0.036738" stop-color="#4D4BB0"/>
<stop offset="0.604897" stop-color="#383D84"/>
<stop offset="0.794969" stop-color="#393D85"/>
<stop offset="0.940387" stop-color="#36397E"/>
</linearGradient>
<linearGradient id="paint7_linear_1002_1703" x1="196.949" y1="179.68" x2="197.74" y2="159.571" gradientUnits="userSpaceOnUse">
<stop offset="0.0609451" stop-color="#3A3E86" stop-opacity="0"/>
<stop offset="1" stop-color="#313476"/>
</linearGradient>
<linearGradient id="paint8_linear_1002_1703" x1="180.788" y1="-16.2788" x2="179.659" y2="23.9145" gradientUnits="userSpaceOnUse">
<stop stop-color="#FFC3AC"/>
<stop offset="1" stop-color="#FECFBD"/>
</linearGradient>
<linearGradient id="paint9_linear_1002_1703" x1="177.686" y1="-4.85683" x2="175.027" y2="142.569" gradientUnits="userSpaceOnUse">
<stop stop-color="#E3D9FF"/>
<stop offset="1" stop-color="#B8B7FC"/>
</linearGradient>
<linearGradient id="paint10_linear_1002_1703" x1="189.683" y1="0.638132" x2="187.375" y2="128.587" gradientUnits="userSpaceOnUse">
<stop stop-color="#3A38B6"/>
<stop offset="0.424852" stop-color="#5E5CD2"/>
<stop offset="1" stop-color="#201E96"/>
</linearGradient>
<linearGradient id="paint11_linear_1002_1703" x1="195.353" y1="-13.0413" x2="194.914" y2="11.288" gradientUnits="userSpaceOnUse">
<stop stop-color="#F0EBFF"/>
<stop offset="0.364583" stop-color="#E3D9FF"/>
<stop offset="1" stop-color="#B8B7FC"/>
</linearGradient>
<linearGradient id="paint12_linear_1002_1703" x1="168.567" y1="-15.4304" x2="168.107" y2="10.0714" gradientUnits="userSpaceOnUse">
<stop stop-color="#F0EBFF"/>
<stop offset="0.364583" stop-color="#E3D9FF"/>
<stop offset="1" stop-color="#B8B7FC"/>
</linearGradient>
<linearGradient id="paint13_linear_1002_1703" x1="332.438" y1="-155.731" x2="236.36" y2="36.0591" gradientUnits="userSpaceOnUse">
<stop offset="0.233838" stop-color="#696DCA"/>
<stop offset="0.59615" stop-color="#545EBD"/>
<stop offset="0.918482" stop-color="#404693"/>
</linearGradient>
<linearGradient id="paint14_linear_1002_1703" x1="42.4635" y1="-161.219" x2="138.256" y2="39.1708" gradientUnits="userSpaceOnUse">
<stop offset="0.191253" stop-color="#313476"/>
<stop offset="0.717178" stop-color="#545EBD"/>
<stop offset="0.87005" stop-color="#6361D3"/>
<stop offset="1" stop-color="#5C61CE"/>
</linearGradient>
<linearGradient id="paint15_linear_1002_1703" x1="157.674" y1="-16.5668" x2="247.458" y2="122.797" gradientUnits="userSpaceOnUse">
<stop offset="0.0238914" stop-color="#5E61CC"/>
<stop offset="0.360607" stop-color="#7A78D3"/>
<stop offset="0.518386" stop-color="#545EBD"/>
<stop offset="1" stop-color="#313476"/>
</linearGradient>
<linearGradient id="paint16_linear_1002_1703" x1="267.877" y1="-2.16191" x2="241.362" y2="43.6003" gradientUnits="userSpaceOnUse">
<stop stop-color="#4A52A8"/>
<stop offset="0.453584" stop-color="#6D6FCC"/>
<stop offset="0.918546" stop-color="#4E58B2"/>
</linearGradient>
<linearGradient id="paint17_linear_1002_1703" x1="182.595" y1="-56.4401" x2="246.351" y2="20.5562" gradientUnits="userSpaceOnUse">
<stop offset="0.0609451" stop-color="#4A4C8C"/>
<stop offset="0.238865" stop-color="#2A3486"/>
<stop offset="1" stop-color="#313476"/>
</linearGradient>
<linearGradient id="paint18_linear_1002_1703" x1="220.814" y1="-51.0466" x2="283.797" y2="10.8357" gradientUnits="userSpaceOnUse">
<stop offset="0.0609451" stop-color="#4A4C8C"/>
<stop offset="0.238865" stop-color="#2A3486"/>
<stop offset="1" stop-color="#313476"/>
</linearGradient>
<linearGradient id="paint19_linear_1002_1703" x1="219.538" y1="-51.9731" x2="282.521" y2="9.90925" gradientUnits="userSpaceOnUse">
<stop offset="0.0609451" stop-color="#4A4C8C"/>
<stop offset="0.238865" stop-color="#2A3486"/>
<stop offset="1" stop-color="#313476"/>
</linearGradient>
<linearGradient id="paint20_linear_1002_1703" x1="191.615" y1="97.545" x2="194.95" y2="106.237" gradientUnits="userSpaceOnUse">
<stop offset="0.0609451" stop-color="#4A4C8C"/>
<stop offset="0.238865" stop-color="#2A3486"/>
<stop offset="1" stop-color="#313476"/>
</linearGradient>
<linearGradient id="paint21_linear_1002_1703" x1="192.925" y1="122.491" x2="196.261" y2="131.183" gradientUnits="userSpaceOnUse">
<stop offset="0.0609451" stop-color="#4A4C8C"/>
<stop offset="0.238865" stop-color="#2A3486"/>
<stop offset="1" stop-color="#313476"/>
</linearGradient>
</defs>
</svg>
