<svg width="808" height="575" viewBox="0 0 808 575" fill="none" xmlns="http://www.w3.org/2000/svg">
<path d="M287.339 131.939L225.439 105.239C217.739 101.939 208.739 105.439 205.339 113.239L145.239 252.539C141.939 260.239 145.439 269.239 153.239 272.639L215.139 299.339C222.839 302.639 231.839 299.139 235.239 291.339L295.339 152.039C298.639 144.239 295.039 135.239 287.339 131.939Z" fill="#570080"/>
<path d="M285.139 138.439L222.239 111.339C218.339 109.639 213.939 111.439 212.239 115.339L151.539 256.039C149.839 259.939 151.639 264.339 155.539 266.039L218.439 293.139C222.339 294.839 226.739 293.039 228.439 289.139L289.139 148.439C290.739 144.639 288.939 140.139 285.139 138.439Z" fill="url(#paint0_linear_1024_3255)"/>
<path d="M266.939 136.239L236.539 123.139C234.939 122.439 234.239 120.639 234.939 119.039L235.539 117.639C236.239 116.039 238.039 115.339 239.639 116.039L270.039 129.139C271.639 129.839 272.339 131.639 271.639 133.239L271.039 134.639C270.339 136.139 268.539 136.939 266.939 136.239Z" fill="#570080"/>
<path d="M279.739 142.739L281.539 143.539L282.439 141.439L280.639 140.639L279.739 142.739ZM277.639 141.839L279.439 142.639L280.339 140.539L278.539 139.739L277.639 141.839ZM283.939 144.539C283.939 144.639 283.839 144.639 283.739 144.739C283.639 144.739 283.539 144.739 283.439 144.739L277.439 142.139C277.339 142.139 277.339 142.039 277.239 141.939C277.239 141.839 277.239 141.739 277.239 141.639L278.139 139.539C278.139 139.439 278.239 139.439 278.339 139.339C278.439 139.339 278.539 139.339 278.639 139.339L284.639 141.939C284.739 141.939 284.739 142.039 284.839 142.139C284.839 142.239 284.839 142.339 284.839 142.439L283.939 144.539ZM285.339 143.039C285.239 143.039 285.139 142.939 285.139 142.939C285.039 142.939 285.039 142.939 285.039 142.939L285.139 142.639C285.239 142.439 285.239 142.339 285.139 142.139C285.039 141.939 284.939 141.839 284.839 141.739L278.839 139.139C278.639 139.039 278.539 139.039 278.339 139.139C278.139 139.239 278.039 139.339 277.939 139.439L277.039 141.539C276.939 141.739 276.939 141.839 277.039 142.039C277.139 142.239 277.239 142.339 277.439 142.439L283.439 145.039C283.639 145.139 283.739 145.139 283.939 145.039C284.139 144.939 284.239 144.839 284.339 144.739L284.439 144.439C284.439 144.439 284.439 144.439 284.539 144.439C284.639 144.439 284.639 144.539 284.739 144.539C284.839 144.539 284.939 144.539 285.039 144.539C285.139 144.539 285.139 144.439 285.239 144.339L285.639 143.439C285.639 143.339 285.639 143.239 285.639 143.139C285.439 143.139 285.439 143.039 285.339 143.039Z" fill="#FF6CD2"/>
<path d="M223.04 115.739C222.94 115.739 222.94 115.739 223.04 115.739C222.84 115.339 222.64 115.039 222.34 114.839C222.14 114.639 221.84 114.439 221.44 114.239C221.04 114.039 220.74 114.039 220.44 114.039C220.14 114.039 219.74 114.139 219.34 114.239C219.34 114.239 219.34 114.239 219.24 114.239C219.24 114.239 219.14 114.139 219.14 113.939C219.04 113.739 219.04 113.639 219.04 113.639C219.44 113.439 219.84 113.439 220.34 113.439C220.84 113.439 221.24 113.539 221.64 113.739C222.04 113.939 222.44 114.139 222.74 114.539C223.04 114.839 223.34 115.239 223.44 115.639C223.44 115.639 223.44 115.639 223.44 115.739C223.44 115.739 223.34 115.839 223.14 115.839C223.14 115.739 223.04 115.839 223.04 115.739ZM222.14 116.139C221.94 115.839 221.84 115.639 221.64 115.539C221.54 115.339 221.34 115.239 221.04 115.139C220.94 115.039 220.74 115.039 220.64 115.039C220.54 115.039 220.34 115.039 220.24 115.039C220.14 115.039 220.04 115.039 219.94 115.039C219.84 115.039 219.74 115.039 219.74 115.039C219.64 115.039 219.64 115.039 219.64 115.039C219.64 115.039 219.54 114.939 219.54 114.739C219.44 114.539 219.44 114.439 219.44 114.439C219.74 114.339 220.04 114.239 220.34 114.239C220.64 114.239 220.94 114.339 221.24 114.439C221.54 114.539 221.84 114.739 222.04 114.939C222.24 115.139 222.44 115.439 222.54 115.739C222.54 115.739 222.54 115.739 222.54 115.839C222.54 115.839 222.44 115.939 222.24 115.939C222.24 116.139 222.14 116.139 222.14 116.139ZM221.24 116.439C221.14 116.239 221.04 116.239 221.04 116.139C220.94 116.039 220.84 116.039 220.74 115.939C220.64 115.939 220.54 115.839 220.44 115.839C220.34 115.839 220.24 115.839 220.14 115.839C220.04 115.839 220.04 115.839 220.04 115.839C220.04 115.839 219.94 115.739 219.94 115.539C219.84 115.339 219.84 115.239 219.84 115.239C220.04 115.139 220.24 115.139 220.44 115.139C220.64 115.139 220.84 115.239 221.04 115.239C221.24 115.239 221.34 115.439 221.54 115.539C221.74 115.639 221.84 115.839 221.84 116.039C221.84 116.039 221.84 116.039 221.84 116.139C221.84 116.139 221.74 116.239 221.54 116.239C221.34 116.439 221.24 116.539 221.24 116.439ZM220.64 116.739C220.44 116.839 220.34 116.839 220.34 116.839C220.34 116.839 220.24 116.739 220.24 116.539C220.14 116.339 220.14 116.239 220.14 116.239C220.14 116.239 220.24 116.139 220.34 116.139C220.44 116.139 220.54 116.139 220.64 116.239C220.74 116.239 220.74 116.339 220.84 116.439C220.94 116.539 220.94 116.539 220.94 116.639C220.84 116.639 220.74 116.739 220.64 116.739Z" fill="#FF6CD2"/>
<path d="M276.24 138.04C276.34 138.04 276.34 138.04 276.24 138.04C276.34 138.14 276.34 138.14 276.34 138.14L275.14 141.04C275.14 141.04 275.14 141.04 275.04 141.14H274.94L274.64 141.04C274.64 141.04 274.64 141.04 274.54 140.94V140.84L275.74 137.94C275.74 137.94 275.74 137.94 275.84 137.84H275.94L276.24 138.04ZM275.24 138.24C275.34 138.34 275.34 138.34 275.34 138.34L274.34 140.64C274.34 140.64 274.34 140.64 274.24 140.74H274.14L273.84 140.64C273.84 140.64 273.84 140.64 273.74 140.54V140.44L274.74 138.14C274.74 138.14 274.74 138.14 274.84 138.04H274.94L275.24 138.24ZM274.24 138.54C274.34 138.64 274.34 138.64 274.34 138.64L273.64 140.34C273.64 140.34 273.64 140.34 273.54 140.44H273.44L273.14 140.34C273.14 140.34 273.14 140.34 273.04 140.24V140.14L273.74 138.44C273.74 138.44 273.74 138.44 273.84 138.34H273.94L274.24 138.54ZM272.24 139.04C272.34 139.14 272.34 139.14 272.34 139.14L272.14 139.74C272.14 139.74 272.14 139.74 272.04 139.84H271.94L271.64 139.74C271.64 139.74 271.64 139.74 271.54 139.64V139.54L271.74 138.94C271.74 138.94 271.74 138.94 271.84 138.84H271.94L272.24 139.04ZM273.24 138.74C273.34 138.84 273.34 138.84 273.34 138.84L272.84 139.94C272.84 139.94 272.84 139.94 272.74 140.04H272.64L272.34 139.94C272.34 139.94 272.34 139.94 272.24 139.84V139.74L272.74 138.64C272.74 138.64 272.74 138.64 272.84 138.54H272.94L273.24 138.74Z" fill="#FF6CD2"/>
<path d="M228.939 119.339C228.739 119.239 228.639 119.139 228.539 118.939C228.439 118.739 228.439 118.539 228.539 118.339C228.639 118.139 228.739 118.039 228.939 117.939C229.139 117.839 229.339 117.839 229.539 117.939C229.739 118.039 229.839 118.139 229.939 118.339C230.039 118.539 230.039 118.739 229.939 118.939C229.839 119.139 229.739 119.239 229.539 119.339C229.339 119.439 229.139 119.439 228.939 119.339ZM225.739 117.239C225.839 117.039 225.939 116.939 226.139 116.839C226.339 116.739 226.539 116.739 226.739 116.839C226.939 116.939 227.039 117.039 227.139 117.239C227.239 117.439 227.239 117.639 227.139 117.839C227.039 118.039 226.939 118.139 226.739 118.239C226.539 118.339 226.339 118.339 226.139 118.239C225.939 118.139 225.839 118.039 225.739 117.839C225.739 117.639 225.639 117.439 225.739 117.239ZM229.639 117.439C229.439 117.339 229.339 117.339 229.139 117.339C228.939 117.339 228.839 117.339 228.639 117.439C228.539 117.539 228.339 117.539 228.239 117.739C228.139 117.839 228.039 118.039 227.939 118.139C227.839 118.239 227.839 118.439 227.839 118.539C227.839 118.639 227.839 118.839 227.939 118.939L226.939 118.539C227.039 118.439 227.139 118.339 227.239 118.239C227.339 118.139 227.439 118.039 227.439 117.839C227.539 117.639 227.539 117.539 227.539 117.339C227.539 117.139 227.539 117.039 227.439 116.839C227.339 116.739 227.239 116.539 227.139 116.439C227.039 116.339 226.939 116.239 226.739 116.139C226.539 116.039 226.439 116.039 226.239 116.039C226.039 116.039 225.939 116.039 225.739 116.139C225.639 116.239 225.439 116.339 225.339 116.439C225.239 116.539 225.139 116.739 225.039 116.839C224.939 117.039 224.939 117.139 224.939 117.339C224.939 117.539 224.939 117.639 225.039 117.839C225.139 117.939 225.239 118.139 225.339 118.239C225.439 118.339 225.639 118.439 225.739 118.539L228.439 119.639C228.639 119.739 228.739 119.739 228.939 119.739C229.139 119.739 229.239 119.739 229.439 119.639C229.539 119.539 229.739 119.439 229.839 119.339C229.939 119.239 230.039 119.039 230.139 118.939C230.239 118.739 230.239 118.639 230.239 118.439C230.239 118.239 230.239 118.139 230.139 117.939C230.039 117.839 229.939 117.639 229.839 117.539C229.939 117.639 229.839 117.539 229.639 117.439Z" fill="#FF6CD2"/>
<path d="M152.5 58.9997C111.679 115.713 44.3333 123.5 1.5 112H-20.5V607H807C765 595.5 799 459.5 722.5 405.5C629.214 339.65 572 418.5 511 377.5C450 336.5 543.5 197 486.5 140.5C429.5 83.9995 380.997 178.548 350.5 83.4996C320.5 -10.0003 218 -32.0004 152.5 58.9997Z" fill="#1A1885" stroke="black"/>
<g opacity="0.1" filter="url(#filter0_f_1024_3255)">
<path d="M468.335 187.613L358.972 211.634L359.486 211.896L436.159 259.251L522.044 287.622L468.335 187.613Z" fill="#050718"/>
<path d="M554.46 138.272L437.229 83.7014L365.039 244.932L482.269 299.502L554.46 138.272Z" fill="#050718"/>
<path d="M436.16 259.251L359.487 211.896L358.974 211.634L310.386 319.907L473.625 395.784L522.045 287.622L436.16 259.251Z" fill="#050718"/>
<path opacity="0.3" d="M422.114 291.672L310.796 319.998L473.218 395.694L422.114 291.672Z" fill="#050718"/>
<path d="M419.781 295.745L310.387 319.907L473.626 395.784L419.781 295.745Z" fill="#050718"/>
<path d="M537.523 155.752L444.028 112.227L442.435 115.783L535.929 159.308L537.523 155.752Z" fill="#050718"/>
<path d="M528.197 164.542L439.263 123.141L437.67 126.697L526.603 168.099L528.197 164.542Z" fill="#050718"/>
<path d="M527.858 177.46L434.363 133.935L432.77 137.491L526.264 181.016L527.858 177.46Z" fill="#050718"/>
<path d="M518.404 186.192L429.47 144.79L427.877 148.347L516.81 189.748L518.404 186.192Z" fill="#050718"/>
<path d="M518.133 199.3L424.639 155.775L423.045 159.332L516.54 202.857L518.133 199.3Z" fill="#050718"/>
<path d="M490.353 199.518L419.663 166.609L418.069 170.166L488.76 203.075L490.353 199.518Z" fill="#050718"/>
<path d="M508.34 220.95L414.846 177.425L413.252 180.981L506.747 224.506L508.34 220.95Z" fill="#050718"/>
<path d="M497.245 228.842L410.085 188.266L408.491 191.822L495.651 232.398L497.245 228.842Z" fill="#050718"/>
<path d="M498.673 242.658L405.179 199.133L403.585 202.689L497.08 246.214L498.673 242.658Z" fill="#050718"/>
<path d="M487.394 250.624L400.234 210.048L398.641 213.604L485.801 254.181L487.394 250.624Z" fill="#050718"/>
<path d="M489.008 264.367L395.514 220.842L393.92 224.398L487.414 267.923L489.008 264.367Z" fill="#050718"/>
</g>
<path d="M461.762 172.594L348.819 195.822L349.352 196.088L429.026 244.108L518.083 273.183L461.762 172.594Z" fill="url(#paint1_linear_1024_3255)"/>
<path d="M550.414 135.394L428.732 79.836L355.287 240.788L476.969 296.346L550.414 135.394Z" fill="url(#paint2_linear_1024_3255)"/>
<path d="M429.027 244.108L349.353 196.088L348.82 195.822L299.386 303.907L468.823 381.159L518.084 273.183L429.027 244.108Z" fill="url(#paint3_linear_1024_3255)"/>
<path opacity="0.3" d="M414.744 276.477L299.811 304.002L468.401 381.065L414.744 276.477Z" fill="#FF995F"/>
<path d="M412.361 280.54L299.386 303.908L468.823 381.159L412.361 280.54Z" fill="url(#paint4_linear_1024_3255)"/>
<path d="M533.087 141.208L436.042 96.8955L434.421 100.446L531.466 144.758L533.087 141.208Z" fill="#1A1885" fill-opacity="0.42"/>
<path d="M523.508 149.942L431.197 107.791L429.576 111.341L521.887 153.492L523.508 149.942Z" fill="#1A1885" fill-opacity="0.42"/>
<path d="M523.256 162.879L426.211 118.566L424.59 122.117L521.635 166.429L523.256 162.879Z" fill="#1A1885" fill-opacity="0.42"/>
<path d="M513.542 171.553L421.231 129.402L419.61 132.953L511.921 175.103L513.542 171.553Z" fill="#1A1885" fill-opacity="0.42"/>
<path d="M513.364 184.681L416.319 140.369L414.698 143.92L511.742 188.232L513.364 184.681Z" fill="#1A1885" fill-opacity="0.42"/>
<path d="M484.63 184.689L411.254 151.185L409.633 154.735L483.009 188.239L484.63 184.689Z" fill="#1A1885" fill-opacity="0.42"/>
<path d="M503.398 206.294L406.353 161.981L404.732 165.532L501.777 209.844L503.398 206.294Z" fill="#1A1885" fill-opacity="0.42"/>
<path d="M491.982 214.115L401.512 172.805L399.891 176.355L490.361 217.665L491.982 214.115Z" fill="#1A1885" fill-opacity="0.42"/>
<path d="M493.564 227.964L396.519 183.651L394.898 187.202L491.943 231.514L493.564 227.964Z" fill="#1A1885" fill-opacity="0.42"/>
<path d="M481.959 235.858L391.489 194.548L389.868 198.098L480.337 239.408L481.959 235.858Z" fill="#1A1885" fill-opacity="0.42"/>
<path d="M483.732 249.636L386.688 205.324L385.066 208.875L482.111 253.187L483.732 249.636Z" fill="#1A1885" fill-opacity="0.42"/>
<path d="M526.734 296.325C528.234 294.125 530.034 292.225 532.334 290.825C534.534 289.325 537.034 288.325 539.734 287.725C542.434 287.125 545.234 286.925 548.234 287.025C551.234 287.225 554.234 287.825 557.334 288.825C560.434 289.925 563.434 291.325 566.234 293.225C569.034 295.125 571.534 297.225 573.734 299.725C575.934 302.125 577.634 304.725 578.934 307.425C580.234 310.125 581.134 312.825 581.634 315.525C582.134 318.225 582.134 320.925 581.634 323.625C581.134 326.325 580.134 328.725 578.734 330.925C576.934 333.725 574.434 335.825 571.434 337.425C568.434 339.025 565.134 339.925 561.634 340.225C558.134 340.525 554.434 340.125 550.434 339.025C546.534 337.925 542.834 336.225 539.234 333.925C535.834 331.625 532.834 328.925 530.334 325.825L521.634 326.125C518.534 326.025 516.634 325.425 516.134 324.225C515.634 323.025 516.534 321.225 518.834 318.925L524.134 313.625C523.434 310.525 523.234 307.525 523.634 304.625C524.134 301.425 525.134 298.725 526.734 296.325Z" fill="url(#paint5_linear_1024_3255)"/>
<path d="M545.434 311.224C546.134 309.624 545.334 307.724 543.734 307.024C542.134 306.324 540.234 307.124 539.534 308.724C538.834 310.324 539.634 312.224 541.234 312.924C542.934 313.624 544.834 312.924 545.434 311.224Z" fill="white"/>
<path d="M556.234 315.724C556.934 314.124 556.134 312.224 554.534 311.524C552.934 310.824 551.034 311.624 550.334 313.224C549.634 314.824 550.434 316.724 552.034 317.424C553.634 318.224 555.534 317.424 556.234 315.724Z" fill="white"/>
<path d="M566.934 320.324C567.634 318.724 566.834 316.824 565.234 316.124C563.634 315.424 561.734 316.224 561.034 317.824C560.334 319.424 561.134 321.324 562.734 322.024C564.434 322.724 566.234 321.924 566.934 320.324Z" fill="white"/>
<g opacity="0.2" filter="url(#filter1_f_1024_3255)">
<path d="M85.2957 319.204L305.033 285.045L283.34 144.808L63.6029 178.967L85.2957 319.204Z" fill="#08071A"/>
<path opacity="0.44" d="M181.452 216.278L304.703 285.18L85.7935 319.001L181.452 216.278Z" fill="#08071A"/>
<path d="M182.724 221.746L305.033 285.045L85.296 319.205L182.724 221.746Z" fill="#08071A"/>
<path opacity="0.44" d="M186.855 247.869L63.6045 178.967L282.612 144.913L186.855 247.869Z" fill="#08071A"/>
<path d="M185.913 242.267L63.6045 178.967L283.341 144.808L185.913 242.267Z" fill="#08071A"/>
</g>
<path d="M80.2957 306.204L300.033 272.045L278.34 131.808L58.6029 165.967L80.2957 306.204Z" fill="url(#paint6_linear_1024_3255)"/>
<path opacity="0.44" d="M176.452 203.278L299.703 272.18L80.7935 306.001L176.452 203.278Z" fill="#FF995F"/>
<path d="M177.724 208.746L300.033 272.045L80.296 306.205L177.724 208.746Z" fill="url(#paint7_linear_1024_3255)"/>
<path opacity="0.44" d="M181.855 234.869L58.6045 165.967L277.612 131.913L181.855 234.869Z" fill="#FF995F"/>
<path d="M180.913 229.267L58.6045 165.967L278.341 131.808L180.913 229.267Z" fill="url(#paint8_linear_1024_3255)"/>
<g opacity="0.3" filter="url(#filter2_f_1024_3255)">
<path d="M402.062 380.973L201.673 474.696L142.027 346.704L342.465 253.139L402.062 380.973Z" fill="#140A3C"/>
<path opacity="0.3" d="M265.67 349.153L202.15 474.549L401.796 381.229L265.67 349.153Z" fill="#140A3C"/>
<path d="M267.657 354.439L201.676 474.696L402.065 380.973L267.657 354.439Z" fill="#140A3C"/>
<path d="M207.899 226.654L142.027 346.704L142.819 346.459L247.536 311.385L342.465 253.139L207.899 226.654Z" fill="#140A3C"/>
</g>
<path d="M390.217 375.708L189.828 469.432L130.181 341.44L330.619 247.874L390.217 375.708Z" fill="url(#paint9_linear_1024_3255)"/>
<path opacity="0.3" d="M253.825 343.888L190.305 469.284L389.951 375.964L253.825 343.888Z" fill="#FF995F"/>
<path d="M255.812 349.174L189.831 469.432L390.22 375.708L255.812 349.174Z" fill="url(#paint10_linear_1024_3255)"/>
<path d="M196.054 221.389L130.182 341.439L130.974 341.194L235.691 306.12L330.62 247.874L196.054 221.389Z" fill="url(#paint11_linear_1024_3255)"/>
<defs>
<filter id="filter0_f_1024_3255" x="296.386" y="69.7012" width="272.074" height="340.083" filterUnits="userSpaceOnUse" color-interpolation-filters="sRGB">
<feFlood flood-opacity="0" result="BackgroundImageFix"/>
<feBlend mode="normal" in="SourceGraphic" in2="BackgroundImageFix" result="shape"/>
<feGaussianBlur stdDeviation="7" result="effect1_foregroundBlur_1024_3255"/>
</filter>
<filter id="filter1_f_1024_3255" x="49.603" y="130.808" width="269.43" height="202.397" filterUnits="userSpaceOnUse" color-interpolation-filters="sRGB">
<feFlood flood-opacity="0" result="BackgroundImageFix"/>
<feBlend mode="normal" in="SourceGraphic" in2="BackgroundImageFix" result="shape"/>
<feGaussianBlur stdDeviation="7" result="effect1_foregroundBlur_1024_3255"/>
</filter>
<filter id="filter2_f_1024_3255" x="128.027" y="212.654" width="288.038" height="276.042" filterUnits="userSpaceOnUse" color-interpolation-filters="sRGB">
<feFlood flood-opacity="0" result="BackgroundImageFix"/>
<feBlend mode="normal" in="SourceGraphic" in2="BackgroundImageFix" result="shape"/>
<feGaussianBlur stdDeviation="7" result="effect1_foregroundBlur_1024_3255"/>
</filter>
<linearGradient id="paint0_linear_1024_3255" x1="206.432" y1="73.93" x2="219.674" y2="196.517" gradientUnits="userSpaceOnUse">
<stop stop-color="#570080"/>
<stop offset="0.9987" stop-color="#D9048E"/>
</linearGradient>
<linearGradient id="paint1_linear_1024_3255" x1="461.715" y1="183.849" x2="435.252" y2="231.248" gradientUnits="userSpaceOnUse">
<stop offset="0.00254422" stop-color="#FFD95F"/>
<stop offset="0.4926" stop-color="#FFD75F"/>
<stop offset="0.6691" stop-color="#FFD05F"/>
<stop offset="0.7949" stop-color="#FFC55F"/>
<stop offset="0.8966" stop-color="#FFB45F"/>
<stop offset="0.9827" stop-color="#FF9E5F"/>
<stop offset="0.9987" stop-color="#FF995F"/>
</linearGradient>
<linearGradient id="paint2_linear_1024_3255" x1="745.482" y1="252.976" x2="286.67" y2="288.662" gradientUnits="userSpaceOnUse">
<stop stop-color="#EAEAFF"/>
<stop offset="0.247052" stop-color="#EAEAFF"/>
<stop offset="0.679406" stop-color="#F0F0F8"/>
<stop offset="1" stop-color="#D6D6F0"/>
</linearGradient>
<linearGradient id="paint3_linear_1024_3255" x1="374.223" y1="205.268" x2="454.601" y2="398.845" gradientUnits="userSpaceOnUse">
<stop offset="0.2886" stop-color="#FFC25F"/>
<stop offset="0.9987" stop-color="#FF995F"/>
</linearGradient>
<linearGradient id="paint4_linear_1024_3255" x1="425.876" y1="266.283" x2="380.446" y2="349.225" gradientUnits="userSpaceOnUse">
<stop offset="0.00254422" stop-color="#FFD95F"/>
<stop offset="0.4926" stop-color="#FFD75F"/>
<stop offset="0.6691" stop-color="#FFD05F"/>
<stop offset="0.7949" stop-color="#FFC55F"/>
<stop offset="0.8966" stop-color="#FFB45F"/>
<stop offset="0.9827" stop-color="#FF9E5F"/>
<stop offset="0.9987" stop-color="#FF995F"/>
</linearGradient>
<linearGradient id="paint5_linear_1024_3255" x1="520.502" y1="349.404" x2="564" y2="300.997" gradientUnits="userSpaceOnUse">
<stop offset="0.00254422" stop-color="#C2121A"/>
<stop offset="0.130208" stop-color="#E23C26"/>
<stop offset="1" stop-color="#F3532C"/>
</linearGradient>
<linearGradient id="paint6_linear_1024_3255" x1="202.589" y1="131.833" x2="157.393" y2="301.569" gradientUnits="userSpaceOnUse">
<stop offset="0.00254422" stop-color="#FFC25F"/>
<stop offset="0.5384" stop-color="#FFC05F"/>
<stop offset="0.7315" stop-color="#FFB95F"/>
<stop offset="0.8686" stop-color="#FFAE5F"/>
<stop offset="0.9791" stop-color="#FF9D5F"/>
<stop offset="0.9987" stop-color="#FF995F"/>
</linearGradient>
<linearGradient id="paint7_linear_1024_3255" x1="120.16" y1="180.983" x2="194.274" y2="295.339" gradientUnits="userSpaceOnUse">
<stop offset="0.00254422" stop-color="#FFD95F"/>
<stop offset="0.2252" stop-color="#FFD35F"/>
<stop offset="0.5235" stop-color="#FFC25F"/>
<stop offset="0.8633" stop-color="#FFA65F"/>
<stop offset="0.9987" stop-color="#FF995F"/>
</linearGradient>
<linearGradient id="paint8_linear_1024_3255" x1="284.641" y1="172.067" x2="64.849" y2="206.097" gradientUnits="userSpaceOnUse">
<stop offset="0.00254422" stop-color="#FFD95F"/>
<stop offset="0.4926" stop-color="#FFD75F"/>
<stop offset="0.6691" stop-color="#FFD05F"/>
<stop offset="0.7949" stop-color="#FFC55F"/>
<stop offset="0.8966" stop-color="#FFB45F"/>
<stop offset="0.9827" stop-color="#FF9E5F"/>
<stop offset="0.9987" stop-color="#FF995F"/>
</linearGradient>
<linearGradient id="paint9_linear_1024_3255" x1="313.192" y1="230.558" x2="230.619" y2="430.183" gradientUnits="userSpaceOnUse">
<stop offset="0.00254422" stop-color="#FFC25F"/>
<stop offset="0.5384" stop-color="#FFC05F"/>
<stop offset="0.7315" stop-color="#FFB95F"/>
<stop offset="0.8686" stop-color="#FFAE5F"/>
<stop offset="0.9791" stop-color="#FF9D5F"/>
<stop offset="0.9987" stop-color="#FF995F"/>
</linearGradient>
<linearGradient id="paint10_linear_1024_3255" x1="217.217" y1="328.764" x2="293.705" y2="427.191" gradientUnits="userSpaceOnUse">
<stop offset="0.00254422" stop-color="#FFD95F"/>
<stop offset="0.4926" stop-color="#FFD75F"/>
<stop offset="0.6691" stop-color="#FFD05F"/>
<stop offset="0.7949" stop-color="#FFC55F"/>
<stop offset="0.8966" stop-color="#FFB45F"/>
<stop offset="0.9827" stop-color="#FF9E5F"/>
<stop offset="0.9987" stop-color="#FF995F"/>
</linearGradient>
<linearGradient id="paint11_linear_1024_3255" x1="200.71" y1="232.973" x2="233.849" y2="301.992" gradientUnits="userSpaceOnUse">
<stop offset="0.00254422" stop-color="#FFD95F"/>
<stop offset="0.4926" stop-color="#FFD75F"/>
<stop offset="0.6691" stop-color="#FFD05F"/>
<stop offset="0.7949" stop-color="#FFC55F"/>
<stop offset="0.8966" stop-color="#FFB45F"/>
<stop offset="0.9827" stop-color="#FF9E5F"/>
<stop offset="0.9987" stop-color="#FF995F"/>
</linearGradient>
</defs>
</svg>
