<svg width="34" height="34" viewBox="0 0 34 34" fill="none" xmlns="http://www.w3.org/2000/svg">
<path d="M0 25.1203V8.87976C0 3.97255 3.97252 3.43323e-05 8.87973 3.43323e-05H25.1203C30.0275 3.43323e-05 34 3.97255 34 8.87976V25.1203C34 30.0275 30.0275 34 25.1203 34H8.87973C3.97252 34 0 30.0275 0 25.1203Z" fill="url(#paint0_linear_903_1624)"/>
<path d="M22.3163 10.5152C21.6153 10.5152 21.1479 10.9826 21.1479 11.6836C21.1479 12.3846 21.7321 12.852 22.3163 12.852C23.0174 12.852 23.4847 12.2678 23.4847 11.6836C23.6016 11.0994 23.0174 10.5152 22.3163 10.5152Z" fill="#F0F0F8"/>
<path d="M17.1753 12.0339C14.488 12.0339 12.2681 14.2538 12.2681 16.9411C12.2681 19.6284 14.488 21.8483 17.1753 21.8483C19.8626 21.8483 22.0825 19.6284 22.0825 16.9411C22.0825 14.2538 19.8626 12.0339 17.1753 12.0339ZM17.1753 20.0958C15.4227 20.0958 14.0206 18.6937 14.0206 16.9411C14.0206 15.1885 15.4227 13.7865 17.1753 13.7865C18.9279 13.7865 20.3299 15.1885 20.3299 16.9411C20.3299 18.6937 18.9279 20.0958 17.1753 20.0958Z" fill="#F0F0F8"/>
<path d="M21.0311 26.989H13.0861C9.8146 26.989 7.12732 24.3017 7.12732 21.0302V13.0852C7.12732 9.81374 9.8146 7.12646 13.0861 7.12646H21.0311C24.3026 7.12646 26.9899 9.81374 26.9899 13.0852V21.0302C27.1067 24.3017 24.4194 26.989 21.0311 26.989ZM13.0861 8.87904C10.7493 8.87904 8.99673 10.7485 8.99673 12.9684V20.9134C8.99673 23.2502 10.8661 25.0027 13.0861 25.0027H21.0311C23.3679 25.0027 25.1204 23.1333 25.1204 20.9134V12.9684C25.1204 10.6316 23.251 8.87904 21.0311 8.87904H13.0861Z" fill="#F0F0F8"/>
<defs>
<linearGradient id="paint0_linear_903_1624" x1="34.5032" y1="-0.465568" x2="-9.68415" y2="43.7218" gradientUnits="userSpaceOnUse">
<stop offset="0.0011048" stop-color="#FBE18A"/>
<stop offset="0.2094" stop-color="#FCBB45"/>
<stop offset="0.3765" stop-color="#F75274"/>
<stop offset="0.5238" stop-color="#D53692"/>
<stop offset="0.7394" stop-color="#8F39CE"/>
<stop offset="1" stop-color="#5B4FE9"/>
</linearGradient>
</defs>
</svg>
