<svg width="34" height="34" viewBox="0 0 34 34" fill="none" xmlns="http://www.w3.org/2000/svg">
<path d="M0 25.1203V8.87976C0 3.97255 3.97251 3.05176e-05 8.87972 3.05176e-05H25.1203C30.0275 3.05176e-05 34 3.97255 34 8.87976V25.1203C34 30.0275 30.0275 34 25.1203 34H8.87972C4.08935 34 0 30.0275 0 25.1203Z" fill="url(#paint0_linear_903_1630)"/>
<path d="M9.93107 13.7867H13.2025V24.4191H9.93107V13.7867ZM11.5668 8.52901C12.6183 8.52901 13.4362 9.34689 13.4362 10.3984C13.4362 11.45 12.6183 12.2678 11.5668 12.2678C10.5153 12.2678 9.69739 11.45 9.69739 10.3984C9.69739 9.34689 10.5153 8.52901 11.5668 8.52901Z" fill="#F0F0F8"/>
<path d="M15.3057 13.787H18.4603V15.189C18.9277 14.3712 19.9792 13.4365 21.6149 13.4365C25.0033 13.4365 25.5875 15.6564 25.5875 18.4605V24.3024H22.316V19.1616C22.316 17.8763 22.316 16.3574 20.5634 16.3574C18.8108 16.3574 18.5771 17.6426 18.5771 19.0447V24.3024H15.3057V13.787Z" fill="#F0F0F8"/>
<defs>
<linearGradient id="paint0_linear_903_1630" x1="31.5615" y1="2.49921" x2="2.64545" y2="31.4152" gradientUnits="userSpaceOnUse">
<stop stop-color="#007AB5"/>
<stop offset="1" stop-color="#0046E5"/>
</linearGradient>
</defs>
</svg>
