<svg width="113" height="88" viewBox="0 0 113 88" fill="none" xmlns="http://www.w3.org/2000/svg">
<path fill-rule="evenodd" clip-rule="evenodd" d="M53.5001 6.47751H42.8944C40.0962 6.8825 34.5 9.39345 34.5 16.1973C34.5 24.7021 42.3421 25.6962 42.8944 25.6962H53.5001V20.8363H43.4466C42.0476 20.4681 39.2936 18.9365 39.4704 15.7555C39.6471 12.5745 42.1948 11.5583 43.4466 11.4479H53.5001V6.47751ZM59.5001 20.8363V25.6962H69.0715C70.1761 25.6962 73.2687 27.0216 73.2687 30.777C73.2687 34.0891 70.2497 35.3424 69.0715 35.416H59.5001V40.1654H69.6238C72.5692 39.9077 78.4379 37.4925 78.3495 29.8934C78.2612 22.2943 71.5383 20.689 68.1879 20.8363H59.5001ZM53.5001 40.1654V35.416H42.3421V30.4456H36.9299V40.1654H53.5001ZM59.5001 11.4479V6.47751H75.8091V16.1973H71.0597V11.4479H59.5001Z" fill="#302EA7"/>
<mask id="mask0_903_1595" style="mask-type:alpha" maskUnits="userSpaceOnUse" x="34" y="6" width="45" height="35">
<path d="M75.8091 16.1973H71.0597V11.4479H43.4466C42.1948 11.5583 39.6471 12.5745 39.4704 15.7555C39.2936 18.9365 42.0476 20.4681 43.4466 20.8363H68.1879C71.5383 20.689 78.2612 22.2943 78.3495 29.8934C78.4379 37.4925 72.5692 39.9077 69.6238 40.1654H36.9299V30.4456H42.3421V35.416H69.0715C70.2497 35.3424 73.2687 34.0891 73.2687 30.777C73.2687 27.0216 70.1761 25.6962 69.0715 25.6962H42.8944C42.3421 25.6962 34.5 24.7021 34.5 16.1973C34.5 9.39345 40.0962 6.8825 42.8944 6.47751H75.8091V16.1973Z" fill="#D9D9D9"/>
</mask>
<g mask="url(#mask0_903_1595)">
<rect x="62" y="4.52939" width="4.52941" height="12.2941" fill="#100E4A"/>
<rect x="46.4706" y="32.3529" width="5.5" height="9.38235" fill="#100E4A"/>
</g>
<path d="M63.7697 42.7059H58.9098C58.9098 33.8697 58.7994 8.35521 58.7994 8.35521C58.7994 7.91339 58.3576 6.47751 56.4799 6.47751C54.6022 6.47751 54.1604 7.9134 54.1604 8.35521L53.9395 42.7059H48.9691L49.3005 7.25069C49.5214 3.93711 53.0558 1.61761 56.9217 1.61761C60.677 1.61761 63.7697 5.48346 63.7697 7.25069V42.7059Z" fill="#302EA7"/>
<mask id="mask1_903_1595" style="mask-type:alpha" maskUnits="userSpaceOnUse" x="48" y="1" width="16" height="42">
<path d="M63.7697 42.7059H58.9098C58.9098 33.8697 58.7994 8.35521 58.7994 8.35521C58.7994 7.91339 58.3576 6.47751 56.4799 6.47751C54.6022 6.47751 54.1604 7.9134 54.1604 8.35521L53.9395 42.7059H48.9691L49.3005 7.25069C49.5214 3.93711 53.0558 1.61761 56.9217 1.61761C60.677 1.61761 63.7697 5.48346 63.7697 7.25069V42.7059Z" fill="#110B58"/>
</mask>
<g mask="url(#mask1_903_1595)">
<rect x="47.7648" y="24.5882" width="16.5" height="3.88235" fill="#100E4A"/>
</g>
<rect x="49.08" y="20.8363" width="14.8006" height="4.8599" fill="#302EA7"/>
<path d="M6.12266 74.24C5.42932 74.24 4.70266 74.1733 3.94266 74.04C3.18266 73.9067 2.42932 73.7667 1.68266 73.62L1.96266 71.48C3.76266 71.72 5.13599 71.84 6.08266 71.84C7.46932 71.84 8.16266 71.2533 8.16266 70.08C8.16266 69.6933 7.96932 69.3667 7.58266 69.1C7.19599 68.82 6.52266 68.54 5.56266 68.26C4.82932 68.0467 4.20266 67.82 3.68266 67.58C3.17599 67.34 2.76266 67.06 2.44266 66.74C2.12266 66.42 1.88932 66.0533 1.74266 65.64C1.59599 65.2267 1.52266 64.7533 1.52266 64.22C1.52266 62.8733 1.93599 61.86 2.76266 61.18C3.58932 60.5 4.77599 60.16 6.32266 60.16C6.54932 60.16 6.78932 60.1733 7.04266 60.2C7.30932 60.2133 7.60932 60.24 7.94266 60.28C8.27599 60.32 8.66266 60.3733 9.10266 60.44C9.54266 60.5067 10.056 60.5933 10.6427 60.7L10.4227 62.88C9.78266 62.8133 9.11599 62.7467 8.42266 62.68C7.72932 62.6 7.06266 62.56 6.42266 62.56C5.70266 62.56 5.16266 62.6733 4.80266 62.9C4.45599 63.1133 4.28266 63.4133 4.28266 63.8C4.28266 64.1467 4.40932 64.4467 4.66266 64.7C4.92932 64.94 5.23599 65.1467 5.58266 65.32C5.92932 65.4933 6.28266 65.6333 6.64266 65.74C7.01599 65.8467 7.30932 65.94 7.52266 66.02C7.93599 66.1667 8.34266 66.3467 8.74266 66.56C9.15599 66.76 9.52266 67.02 9.84266 67.34C10.1627 67.6467 10.4227 68.0267 10.6227 68.48C10.8227 68.9333 10.9227 69.4733 10.9227 70.1C10.9227 70.7533 10.8093 71.34 10.5827 71.86C10.3693 72.3667 10.0493 72.8 9.62266 73.16C9.20932 73.5067 8.70932 73.7733 8.12266 73.96C7.53599 74.1467 6.86932 74.24 6.12266 74.24ZM12.5188 78.2V64H15.1788V64.54C15.6988 64.2333 16.1321 64.0267 16.4788 63.92C16.8388 63.8133 17.2188 63.76 17.6188 63.76C18.9121 63.76 19.8654 64.1867 20.4788 65.04C21.0921 65.88 21.3988 67.2333 21.3988 69.1C21.3988 70.06 21.3121 70.8667 21.1388 71.52C20.9788 72.1733 20.7188 72.7 20.3588 73.1C20.0121 73.5 19.5588 73.7933 18.9988 73.98C18.4521 74.1533 17.7921 74.24 17.0188 74.24C16.6854 74.24 16.3721 74.2267 16.0788 74.2C15.7988 74.1733 15.5054 74.1333 15.1988 74.08V78.2H12.5188ZM16.6188 71.96C17.3788 71.96 17.9121 71.74 18.2188 71.3C18.5254 70.86 18.6788 70.1267 18.6788 69.1C18.6788 68.0733 18.5454 67.3267 18.2788 66.86C18.0121 66.3933 17.5854 66.16 16.9987 66.16C16.7054 66.16 16.3854 66.2067 16.0388 66.3C15.7054 66.38 15.4254 66.4667 15.1988 66.56V71.84C15.7988 71.92 16.2721 71.96 16.6188 71.96ZM22.5922 71.02C22.5922 69.9533 22.8655 69.1933 23.4122 68.74C23.9722 68.2733 24.8589 67.9933 26.0722 67.9L28.2322 67.74V67.12C28.2322 66.72 28.1389 66.44 27.9522 66.28C27.7789 66.12 27.4789 66.04 27.0522 66.04C26.4122 66.04 25.7789 66.0533 25.1522 66.08C24.5255 66.1067 23.9055 66.1467 23.2922 66.2L23.2122 64.34C24.6522 63.9533 25.9722 63.76 27.1722 63.76C28.5189 63.76 29.4789 64.0267 30.0522 64.56C30.6255 65.0933 30.9122 65.9467 30.9122 67.12V71.28C30.9389 71.6133 30.9922 71.84 31.0722 71.96C31.1655 72.08 31.3322 72.1667 31.5722 72.22L31.4922 74.24C31.1455 74.24 30.8389 74.2267 30.5722 74.2C30.3055 74.1867 30.0589 74.1533 29.8322 74.1C29.6189 74.0467 29.4122 73.9733 29.2122 73.88C29.0255 73.7867 28.8322 73.6733 28.6322 73.54C27.6322 74.0067 26.6522 74.24 25.6922 74.24C23.6255 74.24 22.5922 73.1667 22.5922 71.02ZM26.3922 72.06C26.5789 72.06 26.8055 72.04 27.0722 72C27.3389 71.96 27.6255 71.9 27.9322 71.82L28.2322 71.74V69.6L26.3922 69.76C25.6455 69.8267 25.2722 70.24 25.2722 71C25.2722 71.3467 25.3589 71.6133 25.5322 71.8C25.7055 71.9733 25.9922 72.06 26.3922 72.06ZM32.7727 64H35.4327V65.06C36.5793 64.3933 37.646 63.96 38.6327 63.76V66.46C38.1527 66.5267 37.626 66.64 37.0527 66.8C36.4927 66.9467 35.9593 67.1133 35.4527 67.3V74H32.7727V64ZM40.2234 60H42.9034V67.96L43.9234 67.78L45.9034 64H48.9034L46.3034 68.74L49.0434 74H46.0234L44.0034 70.1L42.9034 70.28V74H40.2234V60ZM51.8453 74L54.9053 60.4H60.1453L63.2053 74H60.4453L59.9053 71.54H55.1453L54.6053 74H51.8453ZM59.3853 69.14L58.0053 62.68H57.0453L55.6653 69.14H59.3853ZM68.9333 74.24C68.2399 74.24 67.5466 74.2067 66.8533 74.14C66.1733 74.0867 65.4933 74.0267 64.8133 73.96V60H67.4933V64.3C67.7466 64.1933 67.9733 64.1067 68.1733 64.04C68.3733 63.9733 68.5599 63.92 68.7333 63.88C68.9066 63.84 69.0799 63.8133 69.2533 63.8C69.4266 63.7733 69.6133 63.76 69.8133 63.76C70.4799 63.76 71.0533 63.86 71.5333 64.06C72.0266 64.26 72.4333 64.5733 72.7533 65C73.0733 65.4133 73.3066 65.9533 73.4533 66.62C73.6133 67.2733 73.6933 68.0667 73.6933 69C73.6933 69.9733 73.6066 70.7933 73.4333 71.46C73.2733 72.1267 72.9999 72.6667 72.6133 73.08C72.2399 73.4933 71.7466 73.7933 71.1333 73.98C70.5333 74.1533 69.7999 74.24 68.9333 74.24ZM68.7733 71.84C69.5999 71.84 70.1733 71.6333 70.4933 71.22C70.8133 70.7933 70.9733 70.06 70.9733 69.02C70.9733 67.98 70.8333 67.2467 70.5533 66.82C70.2733 66.38 69.8133 66.16 69.1733 66.16C68.7066 66.16 68.1466 66.2467 67.4933 66.42V71.76C67.7599 71.7867 67.9999 71.8067 68.2133 71.82C68.4399 71.8333 68.6266 71.84 68.7733 71.84ZM74.9016 64H77.5616V65.06C78.7082 64.3933 79.7749 63.96 80.7616 63.76V66.46C80.2816 66.5267 79.7549 66.64 79.1816 66.8C78.6216 66.9467 78.0882 67.1133 77.5816 67.3V74H74.9016V64ZM81.7523 68.98C81.7523 67.3 82.139 66.0133 82.9123 65.12C83.6857 64.2133 84.8323 63.76 86.3523 63.76C87.8723 63.76 89.019 64.2133 89.7923 65.12C90.5657 66.0133 90.9523 67.3 90.9523 68.98C90.9523 70.6733 90.5657 71.9733 89.7923 72.88C89.019 73.7867 87.8723 74.24 86.3523 74.24C84.8323 74.24 83.6857 73.7867 82.9123 72.88C82.139 71.9733 81.7523 70.6733 81.7523 68.98ZM84.4723 68.98C84.4723 70.0333 84.6257 70.7933 84.9323 71.26C85.239 71.7267 85.7123 71.96 86.3523 71.96C86.9923 71.96 87.4657 71.7267 87.7723 71.26C88.079 70.7933 88.2323 70.0333 88.2323 68.98C88.2323 67.9267 88.079 67.1733 87.7723 66.72C87.4657 66.2667 86.9923 66.04 86.3523 66.04C85.7123 66.04 85.239 66.2667 84.9323 66.72C84.6257 67.1733 84.4723 67.9267 84.4723 68.98ZM92.143 71.02C92.143 69.9533 92.4163 69.1933 92.963 68.74C93.523 68.2733 94.4096 67.9933 95.623 67.9L97.783 67.74V67.12C97.783 66.72 97.6896 66.44 97.503 66.28C97.3296 66.12 97.0296 66.04 96.603 66.04C95.963 66.04 95.3296 66.0533 94.703 66.08C94.0763 66.1067 93.4563 66.1467 92.843 66.2L92.763 64.34C94.203 63.9533 95.523 63.76 96.723 63.76C98.0696 63.76 99.0296 64.0267 99.603 64.56C100.176 65.0933 100.463 65.9467 100.463 67.12V71.28C100.49 71.6133 100.543 71.84 100.623 71.96C100.716 72.08 100.883 72.1667 101.123 72.22L101.043 74.24C100.696 74.24 100.39 74.2267 100.123 74.2C99.8563 74.1867 99.6096 74.1533 99.383 74.1C99.1696 74.0467 98.963 73.9733 98.763 73.88C98.5763 73.7867 98.383 73.6733 98.183 73.54C97.183 74.0067 96.203 74.24 95.243 74.24C93.1763 74.24 92.143 73.1667 92.143 71.02ZM95.943 72.06C96.1296 72.06 96.3563 72.04 96.623 72C96.8896 71.96 97.1763 71.9 97.483 71.82L97.783 71.74V69.6L95.943 69.76C95.1963 69.8267 94.823 70.24 94.823 71C94.823 71.3467 94.9096 71.6133 95.083 71.8C95.2563 71.9733 95.543 72.06 95.943 72.06ZM106.043 74.24C104.723 74.24 103.77 73.82 103.183 72.98C102.61 72.14 102.323 70.8533 102.323 69.12C102.323 67.24 102.643 65.88 103.283 65.04C103.937 64.1867 104.917 63.76 106.223 63.76C106.543 63.76 106.897 63.7867 107.283 63.84C107.67 63.88 108.117 63.9467 108.623 64.04V60H111.303V74H108.643V73.58C108.097 73.8333 107.63 74.0067 107.243 74.1C106.857 74.1933 106.457 74.24 106.043 74.24ZM106.763 71.84C107.203 71.84 107.73 71.76 108.343 71.6L108.623 71.54V66.24C108.277 66.1733 107.957 66.1267 107.663 66.1C107.37 66.06 107.13 66.04 106.943 66.04C106.25 66.04 105.757 66.2667 105.463 66.72C105.183 67.1733 105.043 67.9467 105.043 69.04C105.043 70.0667 105.17 70.7933 105.423 71.22C105.677 71.6333 106.123 71.84 106.763 71.84Z" fill="#8887BF"/>
</svg>
