<svg width="35" height="35" viewBox="0 0 35 35" fill="none" xmlns="http://www.w3.org/2000/svg">
<g clip-path="url(#clip0_694_1400)">
<path d="M23.0005 17.262H28.1885V21.4124C28.1885 23.7016 26.3273 25.5627 24.0381 25.5627H23.5193C23.3148 25.5623 23.1122 25.6022 22.9231 25.6802C22.7341 25.7583 22.5623 25.8729 22.4177 26.0175C22.273 26.1621 22.1584 26.3339 22.0804 26.523C22.0023 26.712 21.9624 26.9146 21.9629 27.1192V30.232C21.9624 30.4365 22.0023 30.6391 22.0804 30.8282C22.1584 31.0172 22.273 31.189 22.4177 31.3336C22.5623 31.4782 22.7341 31.5929 22.9231 31.6709C23.1122 31.749 23.3148 31.7889 23.5193 31.7884H24.0381C29.7708 31.7884 34.4141 27.1451 34.4141 21.4124V5.84839C34.4141 4.12986 33.0198 2.7356 31.3013 2.7356H23.0005C21.282 2.7356 19.8877 4.12986 19.8877 5.84839V14.1492C19.8877 15.8677 21.282 17.262 23.0005 17.262ZM4.32373 17.262H9.51172V21.4124C9.51172 23.7016 7.65055 25.5627 5.36133 25.5627H4.84256C4.63803 25.5623 4.43542 25.6022 4.24636 25.6802C4.05731 25.7583 3.88553 25.8729 3.74091 26.0175C3.59628 26.1621 3.48165 26.3339 3.40361 26.523C3.32557 26.712 3.28564 26.9146 3.28613 27.1192V30.232C3.28564 30.4365 3.32557 30.6391 3.40361 30.8282C3.48165 31.0172 3.59628 31.189 3.74091 31.3336C3.88553 31.4782 4.05731 31.5929 4.24636 31.6709C4.43542 31.749 4.63803 31.7889 4.84256 31.7884H5.36133C11.094 31.7884 15.7373 27.1451 15.7373 21.4124V5.84839C15.7373 4.12986 14.343 2.7356 12.6245 2.7356H4.32373C2.6052 2.7356 1.21094 4.12986 1.21094 5.84839V14.1492C1.21094 15.8677 2.6052 17.262 4.32373 17.262Z" fill="#F0F0F8"/>
</g>
<defs>
<clipPath id="clip0_694_1400">
<rect width="34" height="34" fill="white" transform="translate(0.8125 0.261963)"/>
</clipPath>
</defs>
</svg>
