<svg width="741" height="410" viewBox="0 0 741 410" fill="none" xmlns="http://www.w3.org/2000/svg">
<path d="M294.374 37.5936C285.717 37.5936 277.131 39.0879 268.829 42.0052C281.945 15.915 294.374 0 294.374 0C294.374 0 306.802 15.915 319.918 42.0052C311.617 39.0879 303.031 37.5936 294.374 37.5936Z" fill="url(#paint0_linear_164_3083)"/>
<path d="M294.374 37.5936C285.717 37.5936 277.131 39.0879 268.829 42.0052C281.945 15.915 294.374 0 294.374 0C294.374 0 306.802 15.915 319.918 42.0052C311.617 39.0879 303.031 37.5936 294.374 37.5936Z" fill="url(#paint1_linear_164_3083)" fill-opacity="0.5"/>
<path d="M241.79 290.194C239.347 276.034 237.141 261.566 235.291 247.288L211.644 268.682V305.54H255.523V305.516C248.953 305.279 243.308 299.018 241.79 290.194Z" fill="url(#paint2_linear_164_3083)"/>
<path d="M241.79 290.194C239.347 276.034 237.141 261.566 235.291 247.288L211.644 268.682V305.54H255.523V305.516C248.953 305.279 243.308 299.018 241.79 290.194Z" fill="url(#paint3_linear_164_3083)" fill-opacity="0.5"/>
<path d="M352.48 247.023C350.583 261.491 348.377 276.173 345.91 290.498C344.44 299.013 339.15 305.156 332.889 305.773V305.844H376.768V268.986L352.48 247.023Z" fill="url(#paint4_linear_164_3083)"/>
<path d="M352.48 247.023C350.583 261.491 348.377 276.173 345.91 290.498C344.44 299.013 339.15 305.156 332.889 305.773V305.844H376.768V268.986L352.48 247.023Z" fill="url(#paint5_linear_164_3083)" fill-opacity="0.5"/>
<path d="M325.278 53.2952C305.189 43.9501 283.486 43.9501 263.373 53.2952C250.541 81.4726 238.635 118.616 238.635 159.34C238.635 184.031 241.196 215.197 245.394 247.264C247.268 261.566 249.474 276.034 251.893 290.171C253.411 298.994 259.056 305.255 265.603 305.493C265.721 305.493 265.84 305.516 265.958 305.516H322.669C323.025 305.516 323.357 305.493 323.713 305.445C329.974 304.829 335.263 298.685 336.734 290.171C339.201 275.821 341.43 261.163 343.328 246.695C347.478 214.841 350.016 183.889 350.016 159.34C350.016 118.616 338.11 81.4726 325.278 53.2952Z" fill="url(#paint6_linear_164_3083)"/>
<path d="M325.278 53.2952C305.189 43.9501 283.486 43.9501 263.373 53.2952C250.541 81.4726 238.635 118.616 238.635 159.34C238.635 184.031 241.196 215.197 245.394 247.264C247.268 261.566 249.474 276.034 251.893 290.171C253.411 298.994 259.056 305.255 265.603 305.493C265.721 305.493 265.84 305.516 265.958 305.516H322.669C323.025 305.516 323.357 305.493 323.713 305.445C329.974 304.829 335.263 298.685 336.734 290.171C339.201 275.821 341.43 261.163 343.328 246.695C347.478 214.841 350.016 183.889 350.016 159.34C350.016 118.616 338.11 81.4726 325.278 53.2952Z" fill="url(#paint7_linear_164_3083)" fill-opacity="0.5"/>
<path d="M343.423 320.886C343.423 322.475 342.143 323.756 340.553 323.756H248.194C246.605 323.756 245.324 322.475 245.324 320.886V317.138C245.324 315.549 246.605 314.268 248.194 314.268H340.53C342.119 314.268 343.4 315.549 343.4 317.138V320.886H343.423Z" fill="url(#paint8_linear_164_3083)"/>
<path d="M343.423 320.886C343.423 322.475 342.143 323.756 340.553 323.756H248.194C246.605 323.756 245.324 322.475 245.324 320.886V317.138C245.324 315.549 246.605 314.268 248.194 314.268H340.53C342.119 314.268 343.4 315.549 343.4 317.138V320.886H343.423Z" fill="url(#paint9_linear_164_3083)" fill-opacity="0.5"/>
<path d="M332.844 333.67C332.844 335.259 331.824 336.54 330.591 336.54H258.155C256.921 336.54 255.901 335.259 255.901 333.67V329.923C255.901 328.334 256.921 327.053 258.155 327.053H330.591C331.824 327.053 332.844 328.334 332.844 329.923V333.67Z" fill="url(#paint10_linear_164_3083)"/>
<g filter="url(#filter0_i_164_3083)">
<path d="M321.625 126.988C321.625 142.049 309.41 154.288 294.325 154.288C279.24 154.288 267.025 142.073 267.025 126.988C267.025 111.927 279.24 99.6883 294.325 99.6883C309.386 99.6883 321.625 111.903 321.625 126.988Z" fill="#F0F0F8"/>
</g>
<g filter="url(#filter1_f_164_3083)">
<path d="M698.324 391.242C693.679 391.242 689.259 392.239 685.271 394.007C681.271 374.245 663.809 359.367 642.869 359.367C618.971 359.367 599.595 378.743 599.595 402.641C599.595 426.539 618.971 445.916 642.869 445.916C652.761 445.916 661.872 442.584 669.169 436.998C674.291 447.978 685.418 455.592 698.336 455.592C716.103 455.592 730.505 441.19 730.505 423.423C730.505 405.655 716.092 391.242 698.324 391.242Z" fill="#9C9CC2"/>
</g>
<path d="M698.324 392.375C693.679 392.375 689.259 393.372 685.271 395.14C681.271 375.378 663.809 360.5 642.869 360.5C618.971 360.5 599.595 379.877 599.595 403.774C599.595 427.672 618.971 447.049 642.869 447.049C652.761 447.049 661.872 443.717 669.169 438.131C674.291 449.111 685.418 456.726 698.336 456.726C716.103 456.726 730.505 442.323 730.505 424.556C730.505 406.788 716.092 392.375 698.324 392.375Z" fill="url(#paint11_linear_164_3083)"/>
<path d="M698.324 392.375C693.679 392.375 689.259 393.372 685.271 395.14C681.271 375.378 663.809 360.5 642.869 360.5C618.971 360.5 599.595 379.877 599.595 403.774C599.595 427.672 618.971 447.049 642.869 447.049C652.761 447.049 661.872 443.717 669.169 438.131C674.291 449.111 685.418 456.726 698.336 456.726C716.103 456.726 730.505 442.323 730.505 424.556C730.505 406.788 716.092 392.375 698.324 392.375Z" fill="url(#paint12_linear_164_3083)" fill-opacity="0.5"/>
<g filter="url(#filter2_f_164_3083)">
<path d="M456.343 342.081C454.666 342.081 453.012 342.172 451.369 342.308C440.898 323.214 420.604 310.263 397.296 310.263C363.256 310.263 335.653 337.854 335.653 371.894C335.653 373.831 335.755 375.746 335.925 377.639C332.492 377.015 328.968 376.664 325.364 376.664C313.942 376.664 303.291 379.95 294.283 385.616C290.94 369.061 276.322 356.608 258.782 356.608C255.813 356.608 252.923 356.97 250.158 357.65C245.524 322.716 215.632 295.747 179.428 295.747C148.415 295.747 122.024 315.532 112.177 343.169C111.169 343.101 110.149 343.056 109.129 343.056C88.8912 343.056 71.7582 356.404 66.0813 374.783C62.9991 374.103 59.815 373.741 56.529 373.741C54.8406 373.741 53.1862 373.843 51.5545 374.024C44.4724 357.061 27.7361 345.14 8.21223 345.14C-17.7138 345.14 -38.7334 366.16 -38.7334 392.086C-38.7334 418.012 -17.7138 439.032 8.21223 439.032C11.249 439.032 14.2065 438.737 17.0847 438.182C24.416 452.516 39.328 462.34 56.5403 462.34C76.1661 462.34 92.7892 449.581 98.6134 431.916C101.99 432.72 105.514 433.162 109.14 433.162C119.361 433.162 128.789 429.751 136.347 424.018C148.324 433.105 163.247 438.499 179.44 438.499C199.813 438.499 218.181 429.944 231.19 416.256C237.83 424.074 247.734 429.049 258.804 429.049C261.75 429.049 264.606 428.686 267.348 428.029C267.065 430.375 266.895 432.754 266.895 435.168C266.895 467.473 293.081 493.66 325.387 493.66C357.693 493.66 383.879 467.473 383.879 435.168C383.879 434.114 383.845 433.071 383.789 432.04C388.14 433.015 392.661 433.547 397.307 433.547C401.59 433.547 405.76 433.105 409.794 432.278C420.151 446.828 437.136 456.335 456.354 456.335C487.901 456.335 513.476 430.76 513.476 399.213C513.464 367.656 487.889 342.081 456.343 342.081Z" fill="#B3B3DF" fill-opacity="0.8"/>
</g>
<path d="M454.076 338.682C452.399 338.682 450.745 338.772 449.102 338.908C438.632 319.815 418.337 306.863 395.029 306.863C360.99 306.863 333.387 334.455 333.387 368.494C333.387 370.432 333.489 372.347 333.659 374.239C330.225 373.616 326.701 373.265 323.098 373.265C311.676 373.265 301.024 376.551 292.016 382.217C288.673 365.661 274.056 353.208 256.515 353.208C253.546 353.208 250.657 353.571 247.892 354.251C243.257 319.316 213.365 292.348 177.162 292.348C146.148 292.348 119.757 312.132 109.91 339.769C108.902 339.701 107.882 339.656 106.862 339.656C86.6246 339.656 69.4916 353.004 63.8147 371.384C60.7325 370.704 57.5484 370.341 54.2624 370.341C52.574 370.341 50.9196 370.443 49.2879 370.625C42.2058 353.662 25.4695 341.741 5.94563 341.741C-19.9804 341.741 -41 362.761 -41 388.687C-41 414.613 -19.9804 435.632 5.94563 435.632C8.98243 435.632 11.9399 435.338 14.8181 434.782C22.1494 449.117 37.0614 458.941 54.2737 458.941C73.8995 458.941 90.5226 446.182 96.3468 428.516C99.7236 429.321 103.248 429.763 106.874 429.763C117.094 429.763 126.522 426.352 134.08 420.618C146.057 429.706 160.981 435.1 177.173 435.1C197.547 435.1 215.915 426.545 228.923 412.856C235.563 420.675 245.467 425.649 256.538 425.649C259.484 425.649 262.339 425.287 265.081 424.63C264.798 426.975 264.628 429.355 264.628 431.768C264.628 464.074 290.815 490.261 323.12 490.261C355.426 490.261 381.613 464.074 381.613 431.768C381.613 430.715 381.579 429.672 381.522 428.641C385.873 429.615 390.394 430.148 395.04 430.148C399.324 430.148 403.493 429.706 407.527 428.879C417.884 443.428 434.87 452.935 454.088 452.935C485.634 452.935 511.209 427.36 511.209 395.814C511.198 364.256 485.623 338.682 454.076 338.682Z" fill="url(#paint13_linear_164_3083)"/>
<path d="M454.076 338.682C452.399 338.682 450.745 338.772 449.102 338.908C438.632 319.815 418.337 306.863 395.029 306.863C360.99 306.863 333.387 334.455 333.387 368.494C333.387 370.432 333.489 372.347 333.659 374.239C330.225 373.616 326.701 373.265 323.098 373.265C311.676 373.265 301.024 376.551 292.016 382.217C288.673 365.661 274.056 353.208 256.515 353.208C253.546 353.208 250.657 353.571 247.892 354.251C243.257 319.316 213.365 292.348 177.162 292.348C146.148 292.348 119.757 312.132 109.91 339.769C108.902 339.701 107.882 339.656 106.862 339.656C86.6246 339.656 69.4916 353.004 63.8147 371.384C60.7325 370.704 57.5484 370.341 54.2624 370.341C52.574 370.341 50.9196 370.443 49.2879 370.625C42.2058 353.662 25.4695 341.741 5.94563 341.741C-19.9804 341.741 -41 362.761 -41 388.687C-41 414.613 -19.9804 435.632 5.94563 435.632C8.98243 435.632 11.9399 435.338 14.8181 434.782C22.1494 449.117 37.0614 458.941 54.2737 458.941C73.8995 458.941 90.5226 446.182 96.3468 428.516C99.7236 429.321 103.248 429.763 106.874 429.763C117.094 429.763 126.522 426.352 134.08 420.618C146.057 429.706 160.981 435.1 177.173 435.1C197.547 435.1 215.915 426.545 228.923 412.856C235.563 420.675 245.467 425.649 256.538 425.649C259.484 425.649 262.339 425.287 265.081 424.63C264.798 426.975 264.628 429.355 264.628 431.768C264.628 464.074 290.815 490.261 323.12 490.261C355.426 490.261 381.613 464.074 381.613 431.768C381.613 430.715 381.579 429.672 381.522 428.641C385.873 429.615 390.394 430.148 395.04 430.148C399.324 430.148 403.493 429.706 407.527 428.879C417.884 443.428 434.87 452.935 454.088 452.935C485.634 452.935 511.209 427.36 511.209 395.814C511.198 364.256 485.623 338.682 454.076 338.682Z" fill="url(#paint14_linear_164_3083)" fill-opacity="0.5"/>
<defs>
<filter id="filter0_i_164_3083" x="267.025" y="99.6883" width="54.5996" height="58.5997" filterUnits="userSpaceOnUse" color-interpolation-filters="sRGB">
<feFlood flood-opacity="0" result="BackgroundImageFix"/>
<feBlend mode="normal" in="SourceGraphic" in2="BackgroundImageFix" result="shape"/>
<feColorMatrix in="SourceAlpha" type="matrix" values="0 0 0 0 0 0 0 0 0 0 0 0 0 0 0 0 0 0 127 0" result="hardAlpha"/>
<feOffset dy="4"/>
<feGaussianBlur stdDeviation="3.5"/>
<feComposite in2="hardAlpha" operator="arithmetic" k2="-1" k3="1"/>
<feColorMatrix type="matrix" values="0 0 0 0 0.259792 0 0 0 0 0.2784 0 0 0 0 0.725 0 0 0 0.25 0"/>
<feBlend mode="normal" in2="shape" result="effect1_innerShadow_164_3083"/>
</filter>
<filter id="filter1_f_164_3083" x="589.595" y="349.367" width="150.911" height="116.225" filterUnits="userSpaceOnUse" color-interpolation-filters="sRGB">
<feFlood flood-opacity="0" result="BackgroundImageFix"/>
<feBlend mode="normal" in="SourceGraphic" in2="BackgroundImageFix" result="shape"/>
<feGaussianBlur stdDeviation="5" result="effect1_foregroundBlur_164_3083"/>
</filter>
<filter id="filter2_f_164_3083" x="-48.7334" y="285.747" width="572.209" height="217.913" filterUnits="userSpaceOnUse" color-interpolation-filters="sRGB">
<feFlood flood-opacity="0" result="BackgroundImageFix"/>
<feBlend mode="normal" in="SourceGraphic" in2="BackgroundImageFix" result="shape"/>
<feGaussianBlur stdDeviation="5" result="effect1_foregroundBlur_164_3083"/>
</filter>
<linearGradient id="paint0_linear_164_3083" x1="255.857" y1="36.8179" x2="320.538" y2="14.8644" gradientUnits="userSpaceOnUse">
<stop offset="0.132381" stop-color="#EAEAFF"/>
<stop offset="0.347006" stop-color="white"/>
<stop offset="0.68648" stop-color="#F8F8FF"/>
<stop offset="1" stop-color="#D6D6F0"/>
</linearGradient>
<linearGradient id="paint1_linear_164_3083" x1="294.374" y1="0" x2="294.286" y2="42.0586" gradientUnits="userSpaceOnUse">
<stop offset="0.927083" stop-color="white" stop-opacity="0"/>
<stop offset="0.995779" stop-color="white"/>
</linearGradient>
<linearGradient id="paint2_linear_164_3083" x1="200.502" y1="298.346" x2="267.373" y2="276.818" gradientUnits="userSpaceOnUse">
<stop stop-color="#F0F0F8"/>
<stop offset="0.221318" stop-color="white"/>
<stop offset="0.346087" stop-color="#F8F8FF"/>
<stop offset="0.787658" stop-color="white"/>
<stop offset="1" stop-color="#D6D6F0"/>
</linearGradient>
<linearGradient id="paint3_linear_164_3083" x1="233.583" y1="247.288" x2="233.386" y2="305.614" gradientUnits="userSpaceOnUse">
<stop offset="0.927083" stop-color="white" stop-opacity="0"/>
<stop offset="0.995779" stop-color="white"/>
</linearGradient>
<linearGradient id="paint4_linear_164_3083" x1="321.748" y1="298.58" x2="388.739" y2="277.222" gradientUnits="userSpaceOnUse">
<stop stop-color="#F0F0F8"/>
<stop offset="0.221318" stop-color="white"/>
<stop offset="0.346087" stop-color="#F8F8FF"/>
<stop offset="0.787658" stop-color="white"/>
<stop offset="1" stop-color="#D6D6F0"/>
</linearGradient>
<linearGradient id="paint5_linear_164_3083" x1="354.828" y1="247.023" x2="354.627" y2="305.919" gradientUnits="userSpaceOnUse">
<stop offset="0.927083" stop-color="white" stop-opacity="0"/>
<stop offset="0.995779" stop-color="white"/>
</linearGradient>
<linearGradient id="paint6_linear_164_3083" x1="238.838" y1="288.948" x2="448.021" y2="297.634" gradientUnits="userSpaceOnUse">
<stop stop-color="#EAEAFF"/>
<stop offset="0.221318" stop-color="white"/>
<stop offset="0.346087" stop-color="#F8F8FF"/>
<stop offset="0.787658" stop-color="white"/>
<stop offset="1" stop-color="#D6D6F0"/>
</linearGradient>
<linearGradient id="paint7_linear_164_3083" x1="294.326" y1="46.2864" x2="292.784" y2="305.838" gradientUnits="userSpaceOnUse">
<stop offset="0.927083" stop-color="white" stop-opacity="0"/>
<stop offset="0.995779" stop-color="white"/>
</linearGradient>
<linearGradient id="paint8_linear_164_3083" x1="204.278" y1="313.877" x2="394.078" y2="316.71" gradientUnits="userSpaceOnUse">
<stop stop-color="#EAEAFF"/>
<stop offset="0.221318" stop-color="white"/>
<stop offset="0.346087" stop-color="#F8F8FF"/>
<stop offset="0.787658" stop-color="white"/>
<stop offset="1" stop-color="#D6D6F0"/>
</linearGradient>
<linearGradient id="paint9_linear_164_3083" x1="294.374" y1="314.268" x2="294.371" y2="323.768" gradientUnits="userSpaceOnUse">
<stop offset="0.927083" stop-color="white" stop-opacity="0"/>
<stop offset="0.995779" stop-color="white"/>
</linearGradient>
<linearGradient id="paint10_linear_164_3083" x1="223.708" y1="326.662" x2="372.586" y2="328.404" gradientUnits="userSpaceOnUse">
<stop stop-color="#EAEAFF"/>
<stop offset="0.221318" stop-color="white"/>
<stop offset="0.346087" stop-color="#F8F8FF"/>
<stop offset="0.787658" stop-color="white"/>
<stop offset="1" stop-color="#D6D6F0"/>
</linearGradient>
<linearGradient id="paint11_linear_164_3083" x1="899.053" y1="408.613" x2="597.822" y2="558.272" gradientUnits="userSpaceOnUse">
<stop stop-color="#6F6FFF"/>
<stop offset="0.247052" stop-color="#5B5BFA"/>
<stop offset="0.679406" stop-color="#2F2FEC"/>
<stop offset="1" stop-color="#0E0E91"/>
</linearGradient>
<linearGradient id="paint12_linear_164_3083" x1="665.05" y1="360.5" x2="664.869" y2="456.848" gradientUnits="userSpaceOnUse">
<stop offset="0.927083" stop-color="white" stop-opacity="0"/>
<stop offset="0.995779" stop-color="white"/>
</linearGradient>
<linearGradient id="paint13_linear_164_3083" x1="1222.18" y1="391.304" x2="444.893" y2="1183.31" gradientUnits="userSpaceOnUse">
<stop stop-color="#6F6FFF"/>
<stop offset="0.247052" stop-color="#5B5BFA"/>
<stop offset="0.679406" stop-color="#2F2FEC"/>
<stop offset="1" stop-color="#0E0E91"/>
</linearGradient>
<linearGradient id="paint14_linear_164_3083" x1="235.104" y1="292.348" x2="234.923" y2="490.513" gradientUnits="userSpaceOnUse">
<stop offset="0.927083" stop-color="white" stop-opacity="0"/>
<stop offset="0.995779" stop-color="white"/>
</linearGradient>
</defs>
</svg>
