<svg width="583" height="394" viewBox="0 0 583 394" fill="none" xmlns="http://www.w3.org/2000/svg">
<g filter="url(#filter0_f_645_7406)">
<path d="M560.4 377.227H21.8055C18.6389 377.227 16 374.588 16 371.422C16 368.255 18.6389 365.616 21.8055 365.616H560.268C563.435 365.616 566.074 368.255 566.074 371.422C566.074 374.72 563.567 377.227 560.4 377.227Z" fill="black" fill-opacity="0.12"/>
</g>
<path d="M341.637 237.499V357.04C341.637 362.054 337.547 366.012 332.665 366.012H262.867C257.853 366.012 253.895 361.922 253.895 357.04V237.499C253.895 232.485 257.985 228.527 262.867 228.527H332.665C337.547 228.527 341.637 232.485 341.637 237.499Z" fill="#292882"/>
<path d="M341.637 301.36V237.499C341.637 232.485 337.547 228.527 332.665 228.527H262.867C257.853 228.527 253.895 232.617 253.895 237.499V301.36H341.637Z" fill="black" fill-opacity="0.15"/>
<path d="M399.956 371.686H195.443C189.242 371.686 184.228 366.672 184.228 360.47C184.228 354.269 189.242 349.255 195.443 349.255H399.956C406.158 349.255 411.172 354.269 411.172 360.47C411.172 366.672 406.158 371.686 399.956 371.686Z" fill="#292882"/>
<path d="M508.15 279.985H87.2495C82.2357 279.985 78.2773 275.895 78.2773 271.013V8.97217C78.2773 3.95831 82.3676 0 87.2495 0H508.282C513.296 0 517.254 4.09025 517.254 8.97217V271.013C517.254 276.026 513.164 279.985 508.15 279.985Z" fill="#292882"/>
<path d="M477.539 252.672H117.861C112.847 252.672 108.888 248.582 108.888 243.7V36.2844C108.888 31.2706 112.979 27.3123 117.861 27.3123H477.671C482.685 27.3123 486.644 31.4025 486.644 36.2844V243.7C486.644 248.582 482.553 252.672 477.539 252.672Z" fill="black" fill-opacity="0.37"/>
<path d="M434.658 252.672V65.9718C434.658 62.1454 431.491 58.9788 427.664 58.9788H167.735C163.909 58.9788 160.742 62.1454 160.742 65.9718V252.672H434.658Z" fill="#8887BF"/>
<path d="M390.72 96.7149H420.012C420.935 96.7149 421.595 96.0552 421.595 95.1315V91.701C421.595 90.7774 420.935 90.1177 420.012 90.1177H390.72C389.796 90.1177 389.137 90.7774 389.137 91.701V95.1315C389.137 96.0552 389.796 96.7149 390.72 96.7149Z" fill="#C2121A"/>
<path d="M348.234 96.7149H377.526C378.449 96.7149 379.109 96.0552 379.109 95.1315V91.701C379.109 90.7774 378.449 90.1177 377.526 90.1177H348.234C347.311 90.1177 346.651 90.7774 346.651 91.701V95.1315C346.651 96.0552 347.311 96.7149 348.234 96.7149Z" fill="#C2121A"/>
<path d="M305.748 96.7149H335.04C335.963 96.7149 336.623 96.0552 336.623 95.1315V91.701C336.623 90.7774 335.963 90.1177 335.04 90.1177H305.748C304.825 90.1177 304.165 90.7774 304.165 91.701V95.1315C304.165 96.0552 304.825 96.7149 305.748 96.7149Z" fill="#C2121A"/>
<path d="M263.263 96.7149H292.554C293.478 96.7149 294.137 96.0552 294.137 95.1315V91.701C294.137 90.7774 293.478 90.1177 292.554 90.1177H263.263C262.339 90.1177 261.679 90.7774 261.679 91.701V95.1315C261.547 96.0552 262.339 96.7149 263.263 96.7149Z" fill="#C2121A"/>
<path d="M421.595 110.965H171.298V171.263H421.595V110.965Z" fill="#C2121A"/>
<path d="M253.895 181.819H171.298V242.117H253.895V181.819Z" fill="#F9AB00"/>
<path d="M421.595 181.819H268.804V242.117H421.595V181.819Z" fill="#C2121A"/>
<path d="M434.658 74.812V65.9718C434.658 62.1454 431.491 58.9788 427.664 58.9788H167.735C163.909 58.9788 160.742 62.1454 160.742 65.9718V74.812H434.658Z" fill="#C2121A"/>
<path d="M204.152 66.8955C204.152 68.7427 202.701 70.0621 200.985 70.0621C199.138 70.0621 197.819 68.6107 197.819 66.8955C197.819 65.0482 199.27 63.7288 200.985 63.7288C202.701 63.5968 204.152 65.0482 204.152 66.8955Z" fill="#FDFDFF"/>
<path d="M190.958 66.8955C190.958 68.7427 189.506 70.0621 187.791 70.0621C185.944 70.0621 184.624 68.6107 184.624 66.8955C184.624 65.0482 186.076 63.7288 187.791 63.7288C189.506 63.5968 190.958 65.0482 190.958 66.8955Z" fill="#FDFDFF"/>
<path d="M177.763 66.8955C177.763 68.7427 176.312 70.0621 174.597 70.0621C172.749 70.0621 171.43 68.6107 171.43 66.8955C171.43 65.0482 172.881 63.7288 174.597 63.7288C176.312 63.5968 177.763 65.0482 177.763 66.8955Z" fill="#FDFDFF"/>
<path d="M505.247 171.395C504.588 170.471 503.532 170.735 502.741 170.075C502.213 169.68 502.081 168.888 502.081 168.228C501.817 167.173 501.025 167.305 500.102 167.041C499.838 166.909 499.706 165.325 499.706 165.062C499.574 164.402 499.574 163.61 499.31 162.95C499.046 162.291 498.254 162.027 497.595 162.291C497.067 162.555 496.935 163.082 496.671 163.478C496.275 164.666 495.879 165.853 495.352 167.041C495.22 167.437 494.956 167.964 494.956 168.36C494.956 168.756 494.692 169.02 494.296 169.02C493.9 169.02 493.636 168.888 493.505 168.492C493.241 168.228 493.241 167.832 493.109 167.568C492.977 167.305 492.977 166.909 492.845 166.645C492.581 165.853 491.789 165.193 490.866 165.062C490.602 165.062 490.338 165.062 490.206 165.194C489.942 165.325 489.81 165.721 489.942 165.985C490.074 166.381 490.338 166.645 490.602 167.041C490.734 167.437 490.998 167.7 491.129 168.096L444.289 150.416C445.345 148.041 446.137 145.534 446.796 143.159C447.72 139.464 447.588 134.583 443.234 133.263C442.178 132.999 440.067 132.603 440.067 132.603C440.067 132.603 439.671 132.208 439.539 131.944C438.748 131.284 437.824 130.756 436.901 130.36C433.47 129.041 429.512 129.173 425.817 129.701C427.005 106.215 413.019 83.6522 389.929 74.9439C361.165 64.1245 329.103 78.6384 318.151 107.402C307.332 136.166 321.846 168.228 350.609 179.18C353.644 180.367 356.811 181.159 359.845 181.818C362.484 184.985 366.311 189.867 366.311 189.867C367.498 191.318 374.227 202.666 375.019 204.381C375.679 205.832 383.199 221.533 390.456 224.832C389.005 227.867 392.04 227.339 394.283 226.811C396.526 226.283 401.408 223.777 401.408 223.645C402.463 223.249 403.387 222.721 403.387 222.589C403.519 221.27 403.387 219.95 402.991 218.763C406.158 214.672 409.72 209.395 411.699 206.624C411.831 207.679 411.831 208.735 411.963 209.79C412.359 214.145 413.415 218.235 413.151 222.589C412.755 228.263 408.533 236.179 410.248 241.853C410.776 243.568 411.831 244.492 413.019 245.02C412.887 245.943 412.755 246.867 412.755 247.79C412.359 251.485 412.359 254.915 412.359 257.818C412.491 265.867 411.567 272.86 412.623 279.985H433.338C434.526 275.367 435.581 270.749 436.637 266.131C437.56 268.242 438.484 270.353 439.539 272.464C440.331 274.179 441.123 276.026 442.046 277.742C442.442 278.533 442.838 279.193 443.102 279.985H464.345C464.345 278.005 464.345 275.894 464.213 273.783C464.081 271.408 463.817 269.165 463.553 266.922C463.157 263.756 462.63 260.589 461.97 257.422C461.706 256.367 461.574 255.311 461.31 254.256C461.046 252.936 460.65 251.617 460.387 250.429C459.859 248.318 459.199 246.339 458.671 244.36V244.228C459.067 244.096 459.595 243.964 459.991 243.832C463.685 242.381 459.595 238.95 458.671 235.124C457.088 228.527 454.845 222.325 454.977 215.464C455.109 212.561 455.109 209.659 455.109 206.756C455.637 207.284 459.199 212.165 462.366 216.388C461.97 217.839 461.838 219.29 462.102 220.61C462.102 220.874 463.949 221.534 465.4 221.929C465.4 221.929 470.414 223.645 473.317 223.513C475.428 223.381 478.199 222.853 477.275 220.478C483.609 215.2 488.886 201.874 489.414 200.554C490.074 198.839 496.539 186.7 497.595 185.249C497.595 185.249 499.046 183.138 500.761 180.763L505.247 182.478V171.395ZM425.553 168.888C425.026 169.152 424.498 169.284 423.97 169.68C423.706 169.812 423.31 169.943 423.047 170.207C420.144 172.055 417.373 173.77 414.47 175.617C413.679 176.145 413.019 176.805 412.359 177.464C406.685 183.27 397.186 199.499 392.699 207.416L392.04 208.207C384.783 198.707 372.908 185.777 372.908 185.777L372.116 182.874C391.248 182.214 409.192 171.659 418.824 154.374L420.012 154.242C420.276 158.069 420.803 161.235 421.595 162.423C422.519 163.874 423.97 164.666 425.817 164.402L425.553 168.888ZM490.866 181.686C490.866 181.686 479.65 195.409 472.921 205.568C469.095 198.971 460.65 184.853 454.713 179.575C454.449 179.443 454.185 179.312 453.921 179.18C453.13 177.992 452.074 176.937 450.887 175.881C448.38 173.638 445.477 172.055 442.706 170.471C442.574 170.471 442.442 170.339 442.31 170.339C441.255 169.68 440.067 169.152 439.012 168.756C438.616 168.624 438.088 168.492 437.56 168.36H437.692L436.769 161.499C438.088 161.499 439.408 160.839 440.067 159.652C440.331 159.256 440.463 158.86 440.727 158.464L491.789 177.728L490.866 181.686Z" fill="black" fill-opacity="0.24"/>
<path d="M80.6523 239.346C81.7079 238.95 82.3676 238.554 82.3676 238.554L78.2773 226.547V279.985H90.5481C89.8884 273.124 88.569 266.262 87.2495 259.533C86.3259 255.971 83.1593 246.999 80.6523 239.346Z" fill="#E09FE2"/>
<path d="M160.874 83.916C136.728 64.9161 101.763 69.0064 82.7634 93.1521C81.0482 95.2632 79.5968 97.5063 78.2773 99.8813V155.298C81.0482 160.18 84.6107 164.666 88.9648 168.624L78.2773 182.082V221.533C78.5412 222.325 78.9371 222.985 79.2009 223.776C80.1246 225.756 81.0482 227.735 82.6315 228.658C83.2912 229.054 84.0829 229.318 85.0065 229.318C85.9301 229.714 86.9856 229.45 88.0412 228.658C88.9648 228.263 89.7565 227.603 90.2842 226.811C97.0134 219.818 105.194 201.61 106.117 198.575C107.701 193.297 110.867 190.263 112.715 185.117C113.111 183.929 113.374 182.742 113.506 181.686C133.958 186.7 156.52 179.707 170.374 162.027C189.11 138.013 185.02 102.916 160.874 83.916ZM100.576 192.374L98.0689 195.936C94.1106 201.082 89.7565 205.964 86.5898 211.506C86.3259 210.846 86.062 210.186 85.7981 209.658C84.4787 206.228 83.0273 202.929 81.444 199.631L83.4232 198.839C83.4232 198.839 82.4996 195.541 81.0482 191.714L95.1662 173.77C97.5411 175.353 100.048 176.804 102.687 177.992C100.84 182.874 100.576 192.374 100.576 192.374Z" fill="black" fill-opacity="0.24"/>
<path d="M48.9856 233.936C48.7217 233.276 48.4578 232.749 48.062 232.221C50.3051 230.77 52.5481 229.582 54.7911 228.395C55.055 229.186 55.187 229.846 55.3189 230.242L56.5064 231.429C57.43 232.221 58.4856 233.013 59.4092 233.804C60.0689 234.332 60.5967 234.86 61.2564 235.256C62.0481 235.915 62.5758 236.575 63.4994 237.103C64.2911 237.499 65.2147 237.763 66.0064 238.026C66.1383 238.026 66.2703 238.158 66.4022 238.29C66.5341 238.422 66.4022 238.686 66.4022 238.95C66.2703 239.478 66.0064 240.006 65.6105 240.269C65.3467 240.401 65.0828 240.533 64.8189 240.665C64.423 240.797 64.0272 240.929 63.6314 240.929C63.2356 240.929 62.9717 240.665 62.5758 240.533C61.9161 240.269 61.2564 240.269 60.5967 240.138C60.7286 240.138 60.9925 241.457 60.9925 241.589C61.1245 242.249 61.2564 242.776 61.2564 243.568V243.7C61.2564 243.7 61.1244 243.7 61.1244 243.832C60.8606 243.832 60.7286 244.096 60.4647 244.228C60.2008 244.36 59.937 244.228 59.6731 244.36C59.4092 244.492 59.1453 244.756 59.0134 244.888C58.6175 245.151 58.2217 245.283 57.6939 245.415C57.43 245.415 57.2981 245.547 57.0342 245.679C56.9023 245.811 56.7703 246.075 56.5064 246.207C56.2425 246.339 55.9786 246.075 55.5828 246.075C55.187 245.943 55.055 246.207 54.6592 246.339C54.3953 246.471 53.9995 246.207 53.8675 245.943C52.9439 245.019 51.6245 243.964 51.0967 242.776C50.5689 241.721 50.437 240.138 50.1731 238.95C49.7773 237.103 49.3814 235.52 48.9856 233.936Z" fill="#4644BA"/>
<path opacity="0.39" d="M179.346 81.0132C157.839 64.1244 126.701 67.8189 109.812 89.3257C92.923 110.833 96.6174 141.971 118.124 158.86C139.631 175.749 170.77 172.054 187.659 150.548C204.547 129.041 200.853 97.902 179.346 81.0132Z" fill="white"/>
<path d="M121.174 161.668L114.645 156.524L36.5085 255.709L43.038 260.853L121.174 161.668Z" fill="#1A1885"/>
<path d="M135.145 166.381C135.145 166.381 136.728 172.318 134.881 177.464C133.034 182.61 129.867 185.645 128.284 190.922C127.097 195.013 111.923 228.263 105.985 220.742C105.194 219.686 105.194 218.367 105.194 217.179C105.326 205.436 113.77 197.124 120.499 188.284L123.006 184.721C123.006 184.721 123.138 174.561 125.513 169.943L135.145 166.381Z" fill="#4644BA"/>
<path d="M183.173 76.1314C159.027 57.1315 124.062 61.2217 105.062 85.3674C86.0619 109.513 90.1521 144.478 114.298 163.478C138.444 182.478 173.409 178.388 192.409 154.242C211.54 130.228 207.318 95.1313 183.173 76.1314ZM120.631 155.562C100.972 140.124 97.541 111.624 113.11 91.9646C128.548 72.305 157.048 68.8744 176.707 84.4438C196.367 99.8812 199.797 128.381 184.228 148.041C168.791 167.568 140.291 170.999 120.631 155.562Z" fill="#1A1885"/>
<path d="M35.2635 202.534C34.7358 203.325 34.4719 204.117 34.3399 204.909C34.076 206.492 34.8677 208.075 35.5274 209.527C38.1663 214.936 41.0691 220.346 44.1038 225.624C45.5552 228.263 47.5343 231.825 49.1176 234.464L55.9787 231.034C55.9787 231.034 48.194 213.749 45.1593 204.381C44.6316 202.666 43.8399 200.818 42.2566 199.895C39.8816 198.707 38.4302 198.839 36.451 200.95C36.0552 201.346 35.6594 201.874 35.2635 202.534Z" fill="#4644BA"/>
<path d="M53.4717 240.929C54.1314 240.402 54.3953 240.797 54.3953 240.797L55.187 243.304C55.187 242.909 55.0551 242.645 55.0551 242.249C54.9231 240.929 54.7912 241.193 54.6592 239.742C54.6592 239.742 56.2426 238.818 56.6384 240.402V237.631C56.6384 237.631 58.2217 235.652 60.9925 237.235C60.9925 237.235 61.7842 242.249 61.7842 242.909C61.7842 243.172 61.7842 243.568 61.5203 243.832C61.2564 244.096 60.7286 244.096 60.4648 244.228C60.0689 244.492 60.0689 245.152 59.5411 245.416C59.1453 245.547 58.7495 245.416 58.4856 245.547C58.2217 245.679 58.0898 246.075 57.8259 246.207C57.562 246.339 57.1662 246.339 56.9023 246.471C56.7703 246.471 56.6384 246.603 56.6384 246.735C56.3745 246.867 55.9787 246.867 55.8467 246.603C55.7148 246.603 55.5828 246.471 55.4509 246.471C53.6037 245.811 52.812 241.457 53.4717 240.929Z" fill="#4644BA"/>
<path d="M41.465 209.659C43.4441 209.131 44.8955 207.548 46.4788 205.7C50.3052 201.346 54.1316 197.124 57.9579 192.77C59.6732 190.791 61.3885 188.943 63.1037 186.964C66.5343 183.006 71.6801 177.332 67.194 171.923C66.1384 170.735 63.8954 170.339 62.444 170.603C61.3885 170.735 60.3329 171.395 59.2774 172.187C57.1663 173.902 55.1871 176.541 53.6038 178.256C50.4371 181.818 47.2705 185.381 44.2358 189.075C42.2566 191.45 40.4094 193.825 38.5622 196.332C37.1108 198.443 34.9997 200.818 34.34 203.325C33.6803 206.096 35.7914 208.339 38.0344 209.263C39.3538 209.791 40.5413 209.923 41.465 209.659Z" fill="#4644BA"/>
<path d="M62.576 194.089C66.1385 188.416 76.0343 176.277 69.1732 169.416C61.6524 161.895 48.458 182.874 48.458 182.874L62.576 194.089Z" fill="#E1E6F6"/>
<path d="M86.9857 284.075C89.8884 272.992 90.2842 261.249 90.5481 249.902C90.6801 244.228 87.7773 223.513 87.5134 217.839C86.8537 207.152 84.7426 209.131 71.944 211.902C70.3607 212.298 68.7774 212.957 67.458 213.881C51.3608 224.832 60.8608 250.034 65.2149 264.283C67.0621 270.485 69.701 277.874 72.076 283.811C80.1246 290.936 86.9857 284.075 86.9857 284.075Z" fill="#01084B"/>
<path d="M64.5554 358.755C64.8193 357.831 65.2151 356.908 65.7429 355.984C65.8749 355.72 66.7985 353.213 66.9304 352.949C67.4582 348.727 67.7221 337.116 67.7221 337.116L79.3331 338.04C79.3331 338.04 76.8262 347.936 77.8817 353.873C82.7637 357.172 91.4719 361.79 91.4719 361.79C91.4719 361.79 101.632 364.429 102.159 364.692C102.687 364.956 104.007 365.484 105.326 367.067C105.326 367.067 106.25 369.838 93.1872 370.762C93.1872 370.762 87.5136 371.554 78.6734 369.31C76.6942 368.915 74.847 368.651 72.8679 368.255C70.8887 367.859 64.9513 367.199 64.2915 366.54C64.0277 366.276 63.7638 366.012 63.7638 365.748C62.8401 363.769 64.1596 360.602 64.5554 358.755Z" fill="#4644BA"/>
<path d="M65.6108 355.984C68.5136 356.644 71.6802 356.776 74.3191 356.776C76.1663 356.644 78.2774 356.38 80.2566 355.588C85.1385 358.623 91.3399 361.921 91.3399 361.921C91.3399 361.921 101.5 364.56 102.027 364.824C102.555 365.088 103.875 365.616 105.194 367.199C105.194 367.199 106.118 369.97 93.0551 370.894C93.0551 370.894 87.3815 371.685 78.5413 369.442C76.5622 369.046 74.7149 368.783 72.7358 368.387C70.7566 367.991 64.8192 367.331 64.1594 366.671C63.8956 366.408 63.6317 366.144 63.6317 365.88C62.7081 364.033 64.0275 360.866 64.4233 358.887C64.8192 357.831 65.215 356.908 65.6108 355.984Z" fill="url(#paint0_linear_645_7406)"/>
<path d="M67.326 342.79C66.2704 329.068 65.4788 298.985 72.3398 282.36C73.3954 279.721 76.2981 277.082 79.2009 276.95C81.444 276.818 84.7426 278.005 85.93 279.985C86.9856 281.7 86.9856 286.978 86.8537 288.825C86.3259 294.103 81.5759 327.484 79.2009 343.186L67.326 342.79Z" fill="#2D447C"/>
<path d="M65.009 359.213C65.2729 358.289 65.6687 357.366 66.1965 356.442C66.3285 356.178 67.2521 353.671 67.384 353.407C67.9118 349.185 68.1757 337.574 68.1757 337.574L79.7867 338.498C79.7867 338.498 77.2798 348.394 78.3353 354.331C83.2173 357.63 91.9256 362.248 91.9256 362.248C91.9256 362.248 102.085 364.887 102.613 365.15C103.141 365.414 104.46 365.942 105.78 367.525C105.78 367.525 106.703 370.296 93.6408 371.22C93.6408 371.22 87.9673 372.012 79.127 369.769C77.1479 369.373 75.3007 369.109 73.3215 368.713C71.3423 368.317 65.4049 367.657 64.7452 366.998C64.4813 366.734 64.2174 366.47 64.2174 366.206C63.2938 364.227 64.6132 361.06 65.009 359.213Z" fill="#4644BA"/>
<path d="M66.0644 356.442C68.9672 357.102 72.1338 357.234 74.7727 357.234C76.6199 357.102 78.731 356.838 80.7102 356.046C85.5921 359.081 91.7935 362.38 91.7935 362.38C91.7935 362.38 101.953 365.019 102.481 365.282C103.009 365.546 104.328 366.074 105.648 367.657C105.648 367.657 106.571 370.428 93.5087 371.352C93.5087 371.352 87.8352 372.144 78.9949 369.9C77.0158 369.505 75.1686 369.241 73.1894 368.845C71.2102 368.449 65.2728 367.789 64.6131 367.13C64.3492 366.866 64.0853 366.602 64.0853 366.338C63.1617 364.491 64.4811 361.324 64.8769 359.345C65.2728 358.289 65.6686 357.366 66.0644 356.442Z" fill="url(#paint1_linear_645_7406)"/>
<path d="M67.7796 343.248C66.724 329.526 65.9324 299.443 72.7934 282.818C73.849 280.179 76.7518 277.54 79.6545 277.408C81.8976 277.276 85.1962 278.463 86.3837 280.443C87.4392 282.158 87.4392 287.436 87.3073 289.283C86.7795 294.561 82.0295 327.942 79.6545 343.644L67.7796 343.248Z" fill="#01084B"/>
<path d="M100.84 225.492H76.0341L75.9022 225.624V225.492H58.6176C57.2981 234.068 58.8814 240.138 58.8814 240.138C61.3884 251.221 74.9786 255.575 79.7286 256.763C82.3675 262.172 85.4022 267.186 87.6452 271.276C90.8119 276.95 94.1104 282.492 97.6729 287.901C107.305 293.179 113.374 286.054 113.374 286.054C113.902 274.575 111.791 263.096 109.548 251.881C108.492 247.263 103.478 233.409 100.84 225.492Z" fill="#000B6A"/>
<path d="M98.9925 361.394C99.1245 360.47 99.5203 359.547 99.7842 358.623C99.9161 358.359 100.576 355.852 100.576 355.456C100.708 351.234 99.6522 339.623 99.6522 339.623L111.263 339.227C111.263 339.227 109.812 349.255 111.527 355.193C116.673 357.963 125.909 361.526 125.909 361.526C125.909 361.526 136.333 362.977 136.86 363.241C137.388 363.505 138.708 363.769 140.291 365.22C140.291 365.22 141.61 367.859 128.68 370.102C128.68 370.102 123.138 371.422 114.166 370.234C112.187 370.102 110.34 369.97 108.361 369.838C106.381 369.706 100.444 369.574 99.6522 369.047C99.3884 368.783 99.1245 368.651 98.9925 368.387C97.937 366.672 98.8606 363.373 98.9925 361.394Z" fill="#4644BA"/>
<path d="M106.117 339.491C105.854 340.151 105.722 340.811 105.59 341.471C105.326 340.811 105.062 340.283 104.93 339.623L106.117 339.491Z" fill="#FFD9B6"/>
<path d="M99.7842 358.491C99.7842 358.36 100.048 357.436 100.312 356.644C100.708 356.908 101.236 357.04 101.631 357.304C106.645 359.679 111.923 359.283 117.201 358.096C117.333 358.096 117.333 358.096 117.465 357.964C121.819 359.811 125.909 361.526 125.909 361.526C125.909 361.526 136.333 362.978 136.86 363.241C137.388 363.505 138.708 363.769 140.291 365.221C140.291 365.221 141.61 367.859 128.68 370.103C128.68 370.103 123.138 371.422 114.166 370.234C112.187 370.103 110.34 369.971 108.361 369.839C106.381 369.707 100.444 369.575 99.6522 369.047C99.3884 368.783 99.1245 368.651 98.9925 368.387C97.937 366.54 98.8606 363.241 98.9925 361.262C99.1245 360.471 99.5203 359.415 99.7842 358.491Z" fill="url(#paint2_linear_645_7406)"/>
<path d="M100.048 345.297C97.8051 333.158 96.3537 320.755 96.0898 308.353C95.9579 303.999 96.0898 299.512 96.6176 295.158C97.0134 290.804 96.7495 284.339 101.368 282.096C104.138 280.776 107.965 280.908 110.604 282.492C113.243 283.943 113.77 286.978 113.77 289.749C113.77 295.026 112.715 328.672 112.187 344.637C112.055 344.505 100.048 345.297 100.048 345.297Z" fill="#000B6A"/>
<path d="M89.7563 143.027L90.9439 149.888L94.9022 149.228L89.7563 143.027Z" fill="url(#paint3_linear_645_7406)"/>
<path d="M90.1523 142.815L91.3399 149.677L95.2982 149.017L90.1523 142.815Z" fill="#4644BA"/>
<path d="M87.2494 154.11C87.2494 156.221 87.7772 169.02 87.7772 169.02C86.4578 170.471 80.1245 170.999 77.4856 168.756C75.3745 166.909 75.1106 165.326 75.1106 165.326L75.9022 146.721L87.2494 154.11Z" fill="#4644BA"/>
<path d="M64.4233 138.541L66.4025 144.874L69.4372 154.506L70.2289 157.277C80.5205 164.798 90.6802 161.631 92.3954 156.881C94.1107 152.131 87.2496 132.339 87.2496 132.339L64.4233 138.541Z" fill="#4644BA"/>
<path d="M78.5413 164.006C78.5413 164.006 79.201 145.006 80.9163 142.763C82.6316 140.388 91.2079 138.937 92.6593 131.02C94.1107 123.103 90.2843 121.124 88.569 121.52C86.8538 121.916 86.4579 129.173 79.4649 127.985C72.4719 126.666 61.3886 131.548 61.5205 136.562C61.5205 136.562 54.9234 140.256 60.465 149.096C66.0066 157.936 72.0761 164.666 74.7149 164.402L78.5413 164.006Z" fill="#0A1123"/>
<path d="M75.6386 144.874C74.0553 147.777 76.5622 153.318 82.4997 154.374L80.3886 144.478C79.597 143.291 76.6942 143.027 75.6386 144.874Z" fill="#4644BA"/>
<path d="M75.9022 165.721C83.1591 165.985 94.5063 167.304 97.1452 175.353C98.5966 179.707 98.7285 184.325 98.3327 188.811C97.9369 192.374 97.673 195.804 97.541 199.367C97.2771 205.304 97.9369 211.769 100.048 217.575L104.666 230.901C104.666 230.901 76.8259 244.228 57.2982 235.915C57.2982 235.915 55.1871 181.422 61.9162 169.679C62.7079 168.228 64.9509 167.436 66.4023 167.041C69.5689 165.853 72.7356 165.589 75.9022 165.721Z" fill="#E1E6F6"/>
<path d="M131.319 178.916C131.319 178.916 129.867 178.652 129.604 176.409C129.208 174.166 128.152 168.756 128.152 168.756C128.152 168.756 127.493 166.909 126.833 167.7C126.305 168.36 125.249 170.075 125.777 173.374C125.777 173.374 126.173 176.277 125.777 177.2C125.381 178.124 124.326 180.763 125.118 183.798C125.249 183.798 131.055 183.534 131.319 178.916Z" fill="#4644BA"/>
<path d="M104.798 221.006C103.215 220.082 102.291 218.103 101.367 216.124C99.2562 211.242 97.0132 206.228 94.7701 201.346C93.8465 199.103 92.791 196.992 91.8674 194.749C89.8882 190.263 86.9854 183.666 92.5271 180.235C93.8465 179.444 95.9576 179.708 97.1451 180.367C98.0687 180.763 98.8604 181.687 99.5201 182.61C100.971 184.721 101.895 187.624 102.819 189.603C104.666 193.694 106.513 197.652 108.096 201.874C109.152 204.513 110.208 207.152 111.131 209.923C111.923 212.166 113.11 214.937 112.846 217.312C112.583 219.95 110.076 221.27 107.964 221.534C106.777 221.798 105.721 221.534 104.798 221.006Z" fill="#4644BA"/>
<path d="M89.0967 197.52C87.5134 191.054 81.7079 176.409 90.1523 172.055C99.5203 167.173 105.854 191.186 105.854 191.186L89.0967 197.52Z" fill="#E1E6F6"/>
<path opacity="0.39" d="M346.256 101.861C336.624 127.458 349.554 155.958 375.019 165.589C400.616 175.221 429.116 162.291 438.748 136.826C448.38 111.361 435.45 82.7288 409.984 73.0969C384.387 63.333 355.887 76.2635 346.256 101.861Z" fill="white"/>
<path d="M440.537 133.091L437.601 140.867L555.727 185.466L558.663 177.69L440.537 133.091Z" fill="#1A1885"/>
<path d="M340.45 99.6177C329.63 128.381 344.144 160.444 372.908 171.395C401.672 182.215 433.734 167.701 444.685 138.937C455.505 110.173 440.991 78.1109 412.227 67.1596C383.332 56.4721 351.269 70.854 340.45 99.6177ZM434.922 135.375C426.081 158.861 399.956 170.604 376.47 161.763C352.984 152.923 341.241 126.798 350.082 103.312C358.922 79.8262 385.047 68.0832 408.533 76.9234C431.887 85.7636 443.762 111.889 434.922 135.375Z" fill="#1A1885"/>
<path d="M441.915 138.409L442.443 146.458L439.012 146.59L441.915 138.409Z" fill="#4644BA"/>
<path d="M453.79 346.353C453.526 346.089 451.81 344.11 451.678 343.846C451.283 343.054 452.074 340.679 452.074 340.679L440.991 340.02C441.123 342.922 440.991 345.957 441.519 348.596C437.956 353.478 431.095 360.867 431.095 360.867C431.095 360.867 422.255 366.804 421.859 367.332C421.463 367.728 420.408 368.651 419.484 370.63C419.484 370.63 419.484 373.665 432.415 369.971C432.415 369.971 438.088 368.783 445.873 363.637C447.588 362.714 449.303 361.658 451.019 360.735C452.734 359.679 458.276 357.04 458.671 356.117C458.803 355.721 458.935 355.457 458.935 355.193C459.067 353.082 456.824 350.443 455.769 348.728C455.373 347.804 454.581 347.013 453.79 346.353Z" fill="#4644BA"/>
<path d="M453.79 346.353C453.658 346.221 452.998 345.561 452.47 344.901C452.206 345.297 451.81 345.693 451.546 346.089C447.984 350.443 442.97 352.554 437.56 353.742C437.429 353.742 437.297 353.742 437.297 353.742C434.13 357.436 431.095 360.735 431.095 360.735C431.095 360.735 422.255 366.672 421.859 367.2C421.463 367.596 420.408 368.519 419.484 370.498C419.484 370.498 419.484 373.533 432.415 369.839C432.415 369.839 438.088 368.651 445.873 363.505C447.588 362.582 449.303 361.526 451.019 360.603C452.734 359.547 458.276 356.908 458.671 355.985C458.803 355.589 458.935 355.325 458.935 355.061C459.067 352.95 456.824 350.311 455.769 348.596C455.373 347.804 454.581 347.012 453.79 346.353Z" fill="url(#paint4_linear_645_7406)"/>
<path d="M437.296 268.902C437.296 268.902 434.526 268.901 434.922 276.29C435.317 283.679 440.859 343.318 440.859 343.318L451.942 344.109C451.942 344.109 459.595 300.304 450.623 274.971C450.623 274.971 447.192 263.756 437.296 268.902Z" fill="#000B6A"/>
<path d="M478.595 351.63C478.991 350.707 479.65 349.915 480.31 349.123C480.442 348.859 482.157 346.616 482.157 346.352C481.366 343.186 480.706 341.207 480.706 341.207L491.789 337.512C491.789 337.512 493.504 342.13 493.24 348.332C497.331 352.686 504.588 360.734 504.588 360.734C504.588 360.734 514.088 365.616 514.483 366.012C514.879 366.408 516.067 367.2 517.122 369.047C517.122 369.047 517.386 372.081 504.324 369.97C504.324 369.97 498.518 369.443 490.206 365.22C488.359 364.429 486.511 363.637 484.664 362.845C482.817 362.054 477.011 359.943 476.484 359.151C476.22 358.887 476.088 358.491 476.088 358.227C475.692 356.38 477.671 353.477 478.595 351.63Z" fill="#4644BA"/>
<path d="M480.31 349.124C480.442 348.992 480.97 348.2 481.498 347.54C481.893 347.936 482.157 348.332 482.553 348.596C486.511 352.554 490.338 352.422 495.879 353.082C496.011 353.082 498.254 352.95 498.386 352.95C501.949 356.249 504.588 360.867 504.588 360.867C504.588 360.867 514.088 365.749 514.484 366.144C514.879 366.54 516.067 367.332 517.122 369.179C517.122 369.179 517.386 372.214 504.324 370.103C504.324 370.103 498.518 369.575 490.206 365.353C488.359 364.561 486.511 363.769 484.664 362.978C482.817 362.186 477.011 360.075 476.484 359.283C476.22 359.019 476.088 358.624 476.088 358.36C475.692 356.249 477.671 353.346 478.463 351.499C478.991 350.707 479.65 349.915 480.31 349.124Z" fill="#030D3C"/>
<path d="M482.949 268.638C482.949 268.638 485.72 268.11 486.644 275.367C487.567 282.756 493.373 342.262 493.373 342.262L481.498 345.033C481.498 345.033 466.984 303.471 471.074 276.95C471.074 277.082 472.262 265.339 482.949 268.638Z" fill="#000B6A"/>
<path d="M454.845 224.305C458.144 220.874 463.026 220.082 467.512 221.534C473.449 223.381 478.067 228.263 480.178 234.068C483.081 241.853 484.928 250.957 485.984 259.27C486.643 263.756 486.775 268.506 486.643 273.124C486.512 276.95 487.171 281.964 484.532 285.263C482.553 287.638 478.331 288.957 475.296 287.638C472.262 286.186 470.414 282.756 469.095 279.985C467.512 276.686 465.796 273.388 464.213 270.089C461.574 264.416 459.067 258.61 456.296 253.068C453.658 247.659 451.151 241.721 450.887 235.652C450.755 231.034 452.206 227.075 454.845 224.305Z" fill="#000B6A"/>
<path d="M486.644 273.124C486.775 268.506 486.512 263.756 485.984 259.27C484.928 250.957 483.081 241.985 480.178 234.069C478.067 228.263 473.449 223.381 467.512 221.534C464.741 220.61 461.706 220.61 459.067 221.534C458.408 220.742 457.616 220.082 456.824 219.555C456.164 219.159 455.505 218.763 454.713 218.499C451.678 217.312 448.38 218.631 445.081 219.027C436.241 219.951 434.658 239.478 434.658 250.034C434.79 261.381 432.942 270.749 437.428 281.172C438.748 284.207 440.991 287.506 444.29 287.902C446.928 288.297 449.435 286.714 451.019 284.735C452.602 282.624 453.394 280.117 454.185 277.61C456.033 271.277 457.484 264.811 458.935 258.346C460.651 262.173 462.366 266.131 464.213 269.957C465.796 273.256 467.512 276.554 469.095 279.853C470.414 282.756 472.262 286.186 475.296 287.506C478.199 288.825 482.553 287.506 484.532 285.131C487.171 281.964 486.512 276.95 486.644 273.124Z" fill="#000B6A"/>
<path d="M459.331 242.117C465.4 242.513 475.824 241.194 481.761 239.083C481.234 237.367 480.706 235.784 480.178 234.201C478.067 228.395 473.449 223.513 467.512 221.666C464.741 220.742 461.706 220.742 459.067 221.666C458.407 220.874 457.616 220.215 456.824 219.687C456.164 219.291 455.505 218.895 454.713 218.631C451.678 217.444 448.38 218.763 445.081 219.159C438.616 219.819 435.977 230.374 435.185 240.138C435.977 240.534 436.901 240.666 437.956 240.93C444.157 241.853 452.998 241.589 459.331 242.117Z" fill="#000B6A"/>
<path d="M480.97 227.339C479.386 220.742 477.143 214.54 477.275 207.679C477.407 200.686 477.539 193.693 477.803 186.7C477.935 183.666 478.463 180.631 478.463 177.728C478.463 173.77 476.088 170.735 473.317 168.096C470.81 165.853 467.907 164.27 465.136 162.687C465.005 162.687 464.873 162.555 464.741 162.555C463.685 161.895 462.498 161.367 461.31 160.971C456.296 159.256 449.831 159.784 445.345 162.555C442.442 164.402 439.671 166.117 436.769 167.964C433.734 169.812 432.019 173.506 432.282 177.332C432.942 185.645 433.602 193.957 434.394 202.138C434.789 206.492 435.845 210.582 435.581 214.936C435.185 220.61 430.963 228.527 432.678 234.2C433.47 236.971 435.581 237.631 438.088 238.026C444.421 239.082 453.262 238.95 459.595 239.346C465.796 239.742 476.484 238.422 482.289 236.179C485.984 234.596 481.893 231.165 480.97 227.339Z" fill="#E1E6F6"/>
<path d="M461.31 160.708C456.692 159.124 450.755 159.52 446.269 161.763C447.72 162.951 450.227 164.27 454.449 164.402C458.276 164.402 460.387 162.555 461.574 160.84C461.442 160.84 461.31 160.708 461.31 160.708Z" fill="url(#paint5_linear_645_7406)"/>
<path d="M458.407 149.492L459.859 160.312C459.859 160.312 455.109 163.61 447.72 161.103L447.984 149.888L458.407 149.492Z" fill="#4644BA"/>
<path d="M462.498 132.34L460.387 148.173L456.428 150.152C450.359 157.805 445.873 157.673 443.63 154.506C441.387 151.34 441.651 129.833 441.651 129.833L462.498 132.34Z" fill="#4644BA"/>
<path d="M447.061 145.534C447.061 145.534 452.338 144.346 454.185 148.041C456.033 151.735 458.408 153.319 458.408 153.319C459.991 153.583 461.442 152.791 462.234 151.471C465.005 146.458 467.512 141.048 468.963 135.506C469.887 131.812 469.755 126.93 465.401 125.61C464.345 125.347 462.234 124.951 462.234 124.951C462.234 124.951 461.838 124.555 461.706 124.291C460.915 123.631 459.991 123.103 459.067 122.708C454.713 120.992 449.699 121.652 445.213 122.444C430.831 125.215 441.519 134.451 441.519 134.451L445.609 134.055C445.741 134.055 446.533 142.499 447.061 145.534Z" fill="#0A1123"/>
<path d="M451.678 138.805C453.13 140.652 451.942 144.874 447.984 146.326L448.248 139.069C448.644 138.145 450.755 137.617 451.678 138.805Z" fill="#4644BA"/>
<path d="M420.144 216.916C421.068 217.708 434.658 197.916 435.449 196.992C439.408 192.638 443.366 184.062 439.012 173.902C437.956 171.527 436.373 167.701 434.79 169.284C427.401 176.673 412.227 203.853 412.227 203.853L420.144 216.916Z" fill="#E1E6F6"/>
<path d="M424.498 213.749L420.408 217.048L417.901 216.784L412.359 214.409L411.304 213.485L410.776 212.43L411.04 207.284L411.436 202.27L418.824 202.534" fill="url(#paint6_linear_645_7406)"/>
<path d="M380.165 168.492C380.693 167.568 381.748 167.832 382.54 167.173C383.068 166.645 383.068 165.985 383.2 165.325C383.331 164.27 384.255 164.402 385.179 164.006C385.443 163.874 385.443 162.159 385.443 162.027C385.575 161.367 385.443 160.575 385.706 159.916C385.97 159.256 386.762 158.992 387.422 159.124C387.95 159.256 388.213 159.784 388.345 160.312C388.873 161.499 389.401 162.555 389.797 163.742C389.929 164.138 390.193 164.666 390.325 165.062C390.456 165.457 390.588 165.721 390.984 165.721C391.38 165.721 391.644 165.457 391.776 165.193C391.908 164.93 392.04 164.534 392.04 164.27C392.04 163.874 392.172 163.61 392.172 163.214C392.436 162.423 393.095 161.631 394.019 161.499C394.283 161.499 394.547 161.367 394.679 161.499C394.943 161.631 395.074 162.027 394.943 162.291C394.811 162.687 394.547 163.082 394.415 163.478C394.019 164.27 393.887 165.062 393.755 165.853L393.887 168.756L394.019 173.374L395.206 177.728C395.206 177.728 419.352 204.117 419.88 209.263C420.144 211.506 420.144 214.936 418.165 216.388C409.588 222.457 398.109 198.179 397.318 196.332C396.526 194.749 389.797 183.27 388.609 181.818L379.769 170.999C379.241 170.339 379.637 169.152 380.165 168.492Z" fill="#4644BA"/>
<path d="M420.408 217.048C420.408 217.048 418.165 205.437 414.338 200.291L414.998 199.499C414.998 199.499 418.033 200.818 419.484 201.874C420.803 202.798 426.609 208.735 425.817 214.805C425.817 215.2 421.067 216.916 421.067 216.916L420.408 217.048Z" fill="url(#paint7_linear_645_7406)"/>
<path d="M414.866 199.499L414.207 200.291C414.207 200.291 414.47 213.353 412.755 216.652C411.04 219.95 414.207 219.423 416.45 218.895C418.825 218.367 423.575 215.728 423.575 215.728C423.575 215.728 420.804 209.263 420.54 207.416C420.408 205.568 414.866 199.499 414.866 199.499Z" fill="url(#paint8_linear_645_7406)"/>
<path d="M490.206 214.673C489.414 215.596 478.331 199.895 477.407 198.971C473.185 194.881 465.796 183.93 471.206 173.902C472.394 171.659 475.428 170.208 477.012 171.659C484.928 178.52 497.199 201.082 497.199 201.082L490.206 214.673Z" fill="#E1E6F6"/>
<path d="M485.588 211.77L489.942 214.937L492.449 214.409L497.859 211.77L498.914 210.714L499.31 209.527L498.651 204.513L497.991 199.631L490.602 200.291" fill="url(#paint9_linear_645_7406)"/>
<path d="M527.546 163.61C526.886 162.818 525.963 163.082 525.171 162.423C524.643 162.027 524.512 161.235 524.512 160.575C524.248 159.52 523.456 159.652 522.532 159.388C522.268 159.256 522.136 157.673 522.136 157.409C522.005 156.749 522.005 155.957 521.741 155.298C521.477 154.638 520.685 154.374 520.025 154.638C519.498 154.902 519.366 155.43 519.102 155.825C518.706 157.013 518.31 158.2 517.782 159.388C517.65 159.784 517.387 160.312 517.387 160.707C517.387 161.103 517.123 161.367 516.727 161.367C516.331 161.367 516.067 161.235 515.935 160.839C515.671 160.575 515.671 160.18 515.539 159.916C515.407 159.652 515.407 159.256 515.275 158.992C515.012 158.2 514.22 157.541 513.296 157.409C513.032 157.409 512.769 157.409 512.637 157.541C512.373 157.673 512.241 158.069 512.373 158.332C512.505 158.728 512.769 158.992 513.032 159.388C513.428 160.18 513.692 160.971 513.824 161.763L513.956 164.666L514.088 169.284L513.164 173.77C513.164 173.77 490.338 201.874 490.074 207.152C489.942 209.395 490.074 212.825 492.185 214.145C501.026 219.554 511.053 194.617 511.845 192.902C512.505 191.186 518.97 179.048 520.025 177.596L528.206 166.249C528.602 165.325 528.074 164.27 527.546 163.61Z" fill="#4644BA"/>
<path d="M489.942 214.937C489.942 214.937 491.394 203.194 494.956 197.784L494.296 196.992C494.296 196.992 491.262 198.444 489.942 199.631C488.755 200.687 483.345 207.02 484.401 212.825C484.533 213.221 489.283 214.673 489.283 214.673L489.942 214.937Z" fill="url(#paint10_linear_645_7406)"/>
<path d="M494.428 196.992L495.22 197.784C495.22 197.784 497.067 209.131 499.178 212.034C501.289 214.937 498.122 215.728 495.747 215.86C492.713 215.992 487.831 214.277 487.831 214.277C487.831 214.277 489.678 207.68 489.678 205.7C489.678 203.721 494.428 196.992 494.428 196.992Z" fill="url(#paint11_linear_645_7406)"/>
<defs>
<filter id="filter0_f_645_7406" x="0" y="349.616" width="582.074" height="43.6111" filterUnits="userSpaceOnUse" color-interpolation-filters="sRGB">
<feFlood flood-opacity="0" result="BackgroundImageFix"/>
<feBlend mode="normal" in="SourceGraphic" in2="BackgroundImageFix" result="shape"/>
<feGaussianBlur stdDeviation="8" result="effect1_foregroundBlur_645_7406"/>
</filter>
<linearGradient id="paint0_linear_645_7406" x1="63.4561" y1="363.175" x2="105.298" y2="363.175" gradientUnits="userSpaceOnUse">
<stop stop-color="#071786"/>
<stop offset="0.1509" stop-color="#05136B"/>
<stop offset="0.3236" stop-color="#041055"/>
<stop offset="0.5107" stop-color="#030E45"/>
<stop offset="0.7204" stop-color="#020C3B"/>
<stop offset="1" stop-color="#020C38"/>
</linearGradient>
<linearGradient id="paint1_linear_645_7406" x1="63.9097" y1="363.633" x2="105.752" y2="363.633" gradientUnits="userSpaceOnUse">
<stop stop-color="#071786"/>
<stop offset="0.1509" stop-color="#05136B"/>
<stop offset="0.3236" stop-color="#041055"/>
<stop offset="0.5107" stop-color="#030E45"/>
<stop offset="0.7204" stop-color="#020C3B"/>
<stop offset="1" stop-color="#020C38"/>
</linearGradient>
<linearGradient id="paint2_linear_645_7406" x1="98.4496" y1="363.731" x2="140.422" y2="363.731" gradientUnits="userSpaceOnUse">
<stop stop-color="#071786"/>
<stop offset="0.1509" stop-color="#05136B"/>
<stop offset="0.3236" stop-color="#041055"/>
<stop offset="0.5107" stop-color="#030E45"/>
<stop offset="0.7204" stop-color="#020C3B"/>
<stop offset="1" stop-color="#020C38"/>
</linearGradient>
<linearGradient id="paint3_linear_645_7406" x1="89.9869" y1="149.261" x2="92.8665" y2="145.38" gradientUnits="userSpaceOnUse">
<stop stop-color="#E2B691"/>
<stop offset="1" stop-color="#EF9367"/>
</linearGradient>
<linearGradient id="paint4_linear_645_7406" x1="419.569" y1="358.291" x2="459.037" y2="358.291" gradientUnits="userSpaceOnUse">
<stop stop-color="#071786"/>
<stop offset="0.1509" stop-color="#05136B"/>
<stop offset="0.3236" stop-color="#041055"/>
<stop offset="0.5107" stop-color="#030E45"/>
<stop offset="0.7204" stop-color="#020C3B"/>
<stop offset="1" stop-color="#020C38"/>
</linearGradient>
<linearGradient id="paint5_linear_645_7406" x1="453.973" y1="165.031" x2="453.849" y2="160.404" gradientUnits="userSpaceOnUse">
<stop stop-color="#F9FBFC"/>
<stop offset="0.3069" stop-color="#F0F5FD"/>
<stop offset="0.8031" stop-color="#D8E3FE"/>
<stop offset="0.9973" stop-color="#CDDBFF"/>
</linearGradient>
<linearGradient id="paint6_linear_645_7406" x1="410.619" y1="210.07" x2="424.228" y2="209.123" gradientUnits="userSpaceOnUse">
<stop stop-color="#F9FBFC"/>
<stop offset="0.3069" stop-color="#F0F5FD"/>
<stop offset="0.8031" stop-color="#D8E3FE"/>
<stop offset="0.9973" stop-color="#CDDBFF"/>
</linearGradient>
<linearGradient id="paint7_linear_645_7406" x1="414.829" y1="208.477" x2="425.431" y2="207.74" gradientUnits="userSpaceOnUse">
<stop stop-color="#F9FBFC"/>
<stop offset="0.3069" stop-color="#F0F5FD"/>
<stop offset="0.8031" stop-color="#D8E3FE"/>
<stop offset="0.9973" stop-color="#CDDBFF"/>
</linearGradient>
<linearGradient id="paint8_linear_645_7406" x1="410.008" y1="215.892" x2="420.9" y2="206.243" gradientUnits="userSpaceOnUse">
<stop stop-color="#F9FBFC"/>
<stop offset="0.3069" stop-color="#F0F5FD"/>
<stop offset="0.8031" stop-color="#D8E3FE"/>
<stop offset="0.9973" stop-color="#CDDBFF"/>
</linearGradient>
<linearGradient id="paint9_linear_645_7406" x1="499.305" y1="207.282" x2="485.663" y2="207.192" gradientUnits="userSpaceOnUse">
<stop stop-color="#F9FBFC"/>
<stop offset="0.3069" stop-color="#F0F5FD"/>
<stop offset="0.8031" stop-color="#D8E3FE"/>
<stop offset="0.9973" stop-color="#CDDBFF"/>
</linearGradient>
<linearGradient id="paint10_linear_645_7406" x1="495.002" y1="205.957" x2="484.375" y2="205.886" gradientUnits="userSpaceOnUse">
<stop stop-color="#F9FBFC"/>
<stop offset="0.3069" stop-color="#F0F5FD"/>
<stop offset="0.8031" stop-color="#D8E3FE"/>
<stop offset="0.9973" stop-color="#CDDBFF"/>
</linearGradient>
<linearGradient id="paint11_linear_645_7406" x1="501.103" y1="212.262" x2="489.388" y2="204.472" gradientUnits="userSpaceOnUse">
<stop stop-color="#F9FBFC"/>
<stop offset="0.3069" stop-color="#F0F5FD"/>
<stop offset="0.8031" stop-color="#D8E3FE"/>
<stop offset="0.9973" stop-color="#CDDBFF"/>
</linearGradient>
</defs>
</svg>
