<svg width="719" height="522" viewBox="0 0 719 522" fill="none" xmlns="http://www.w3.org/2000/svg">
<g filter="url(#filter0_f_163_2099)">
<path d="M125.028 464.859C114.59 464.859 105.164 469.161 98.4053 476.075C87.0558 466.126 72.2048 460.09 55.9198 460.09C51.0287 460.09 46.2599 460.657 41.6801 461.691C34.866 436.213 11.6335 417.449 -16.001 417.449C-23.9934 417.449 -31.6301 419.027 -38.5999 421.884C-38.422 427.698 -38.3553 433.478 -38.9667 439.603C-42.9573 469.272 -45.4807 498.64 -47.3037 528.02C-38.2108 533.634 -27.4838 536.88 -16.0121 536.88C-13.1219 536.88 -10.2873 536.668 -7.50831 536.268C-2.00587 566.304 24.2835 589.08 55.9087 589.08C86.6445 589.08 112.345 567.571 118.814 538.78C120.837 539.125 122.905 539.303 125.028 539.303C145.582 539.303 162.245 522.64 162.245 502.086C162.245 481.522 145.582 464.859 125.028 464.859Z" fill="#B4B4C8" fill-opacity="0.8"/>
</g>
<path d="M125.028 467.082C114.59 467.082 105.164 471.384 98.4051 478.298C87.0556 468.349 72.2046 462.313 55.9196 462.313C51.0286 462.313 46.2598 462.88 41.68 463.914C34.8658 438.436 11.6333 419.672 -16.0011 419.672C-23.9713 419.672 -31.5858 421.239 -38.5333 424.085C-38.4111 429.165 -38.4222 434.256 -38.9557 439.603C-43.0464 469.994 -45.592 500.074 -47.415 530.165C-38.2888 535.835 -27.5285 539.103 -15.99 539.103C-13.0998 539.103 -10.2653 538.892 -7.48625 538.491C-1.98381 568.527 24.3056 591.304 55.9307 591.304C86.6666 591.304 112.367 569.794 118.836 541.004C120.859 541.348 122.927 541.526 125.05 541.526C145.604 541.526 162.267 524.863 162.267 504.31C162.244 483.745 145.582 467.082 125.028 467.082Z" fill="url(#paint0_linear_163_2099)"/>
<g filter="url(#filter1_f_163_2099)">
<path d="M53.2627 479.315V572.668H121.415V479.315H53.2627ZM114.445 569.8H59.2209V563.753H114.445V569.8ZM114.445 561.085H59.2209V555.038H114.445V561.085ZM114.445 552.37H59.2209V546.323H114.445V552.37ZM114.445 543.655H59.2209V537.608H114.445V543.655ZM114.445 534.94H59.2209V528.893H114.445V534.94ZM114.445 526.225H59.2209V520.178H114.445V526.225ZM114.445 517.51H59.2209V511.463H114.445V517.51ZM114.445 508.795H59.2209V502.748H114.445V508.795ZM114.445 500.08H59.2209V494.033H114.445V500.08ZM114.445 491.376H59.2209V485.329H114.445V491.376Z" fill="#AF0505" fill-opacity="0.74"/>
</g>
<g filter="url(#filter2_f_163_2099)">
<path d="M54.1299 479.721V573.073H122.282V479.721H54.1299ZM115.313 570.205H60.0881V564.158H115.313V570.205ZM115.313 561.49H60.0881V555.443H115.313V561.49ZM115.313 552.775H60.0881V546.728H115.313V552.775ZM115.313 544.06H60.0881V538.013H115.313V544.06ZM115.313 535.346H60.0881V529.298H115.313V535.346ZM115.313 526.631H60.0881V520.583H115.313V526.631ZM115.313 517.916H60.0881V511.868H115.313V517.916ZM115.313 509.201H60.0881V503.154H115.313V509.201ZM115.313 500.486H60.0881V494.439H115.313V500.486ZM115.313 491.782H60.0881V485.735H115.313V491.782Z" fill="#780000" fill-opacity="0.9"/>
</g>
<path d="M54.1299 476.964V570.317H122.282V476.964H54.1299ZM115.313 567.438H60.0881V561.39H115.313V567.438ZM115.313 558.723H60.0881V552.675H115.313V558.723ZM115.313 550.008H60.0881V543.96H115.313V550.008ZM115.313 541.304H60.0881V535.257H115.313V541.304ZM115.313 532.589H60.0881V526.542H115.313V532.589ZM115.313 523.874H60.0881V517.827H115.313V523.874ZM115.313 515.159H60.0881V509.112H115.313V515.159ZM115.313 506.444H60.0881V500.397H115.313V506.444ZM115.313 497.729H60.0881V491.682H115.313V497.729ZM115.313 489.014H60.0881V482.967H115.313V489.014Z" fill="url(#paint1_linear_163_2099)"/>
<g opacity="0.7" filter="url(#filter3_f_163_2099)">
<path d="M241.801 383.717V402.448H212.222V589.642H216.99V582.483H224.972V589.642H229.741V582.483H237.722V589.642H243.235V570.911H247.326V563.753H255.307V570.911H260.076V563.753H268.058V570.911H272.826V563.753H280.808V570.911H286.321V383.717H241.801ZM224.961 579.104H216.979V571.122H224.961V579.104ZM224.961 567.732H216.979V559.74H224.961V567.732ZM224.961 556.36H216.979V548.379H224.961V556.36ZM224.961 545H216.979V537.019H224.961V545ZM224.961 533.639H216.979V525.658H224.961V533.639ZM224.961 522.268H216.979V514.286H224.961V522.268ZM224.961 510.907H216.979V502.926H224.961V510.907ZM224.961 499.546H216.979V491.565H224.961V499.546ZM224.961 488.186H216.979V480.204H224.961V488.186ZM224.961 476.825H216.979V468.833H224.961V476.825ZM224.961 465.442H216.979V457.461H224.961V465.442ZM224.961 454.082H216.979V446.1H224.961V454.082ZM224.961 442.721H216.979V434.74H224.961V442.721ZM224.961 431.361H216.979V423.379H224.961V431.361ZM224.961 419.989H216.979V412.008H224.961V419.989ZM237.711 579.104H229.729V571.122H237.711V579.104ZM237.711 567.732H229.729V559.74H237.711V567.732ZM237.711 556.36H229.729V548.379H237.711V556.36ZM237.711 545H229.729V537.019H237.711V545ZM237.711 533.639H229.729V525.658H237.711V533.639ZM237.711 522.268H229.729V514.286H237.711V522.268ZM237.711 510.907H229.729V502.926H237.711V510.907ZM237.711 499.546H229.729V491.565H237.711V499.546ZM237.711 488.186H229.729V480.204H237.711V488.186ZM237.711 476.825H229.729V468.833H237.711V476.825ZM237.711 465.442H229.729V457.461H237.711V465.442ZM237.711 454.082H229.729V446.1H237.711V454.082ZM237.711 442.721H229.729V434.74H237.711V442.721ZM237.711 431.361H229.729V423.379H237.711V431.361ZM237.711 419.989H229.729V412.008H237.711V419.989ZM255.296 560.362H247.315V552.381H255.296V560.362ZM255.296 549.002H247.315V541.009H255.296V549.002ZM255.296 537.63H247.315V529.649H255.296V537.63ZM255.296 526.269H247.315V518.288H255.296V526.269ZM255.296 514.898H247.315V506.916H255.296V514.898ZM255.296 503.537H247.315V495.556H255.296V503.537ZM255.296 492.176H247.315V484.195H255.296V492.176ZM255.296 480.816H247.315V472.835H255.296V480.816ZM255.296 469.444H247.315V461.463H255.296V469.444ZM255.296 458.084H247.315V450.091H255.296V458.084ZM255.296 446.712H247.315V438.731H255.296V446.712ZM255.296 435.351H247.315V427.37H255.296V435.351ZM255.296 423.991H247.315V416.009H255.296V423.991ZM255.296 412.619H247.315V404.638H255.296V412.619ZM255.296 401.258H247.315V393.277H255.296V401.258ZM268.046 560.362H260.065V552.381H268.046V560.362ZM268.046 549.002H260.065V541.009H268.046V549.002ZM268.046 537.63H260.065V529.649H268.046V537.63ZM268.046 526.269H260.065V518.288H268.046V526.269ZM268.046 514.898H260.065V506.916H268.046V514.898ZM268.046 503.537H260.065V495.556H268.046V503.537ZM268.046 492.176H260.065V484.195H268.046V492.176ZM268.046 480.816H260.065V472.835H268.046V480.816ZM268.046 469.444H260.065V461.463H268.046V469.444ZM268.046 458.084H260.065V450.091H268.046V458.084ZM268.046 446.712H260.065V438.731H268.046V446.712ZM268.046 435.351H260.065V427.37H268.046V435.351ZM268.046 423.991H260.065V416.009H268.046V423.991ZM268.046 412.619H260.065V404.638H268.046V412.619ZM268.046 401.258H260.065V393.277H268.046V401.258ZM280.785 560.362H272.804V552.381H280.785V560.362ZM280.785 549.002H272.804V541.009H280.785V549.002ZM280.785 537.63H272.804V529.649H280.785V537.63ZM280.785 526.269H272.804V518.288H280.785V526.269ZM280.785 514.898H272.804V506.916H280.785V514.898ZM280.785 503.537H272.804V495.556H280.785V503.537ZM280.785 492.176H272.804V484.195H280.785V492.176ZM280.785 480.816H272.804V472.835H280.785V480.816ZM280.785 469.444H272.804V461.463H280.785V469.444ZM280.785 458.084H272.804V450.091H280.785V458.084ZM280.785 446.712H272.804V438.731H280.785V446.712ZM280.785 435.351H272.804V427.37H280.785V435.351ZM280.785 423.991H272.804V416.009H280.785V423.991ZM280.785 412.619H272.804V404.638H280.785V412.619ZM280.785 401.258H272.804V393.277H280.785V401.258Z" fill="#5A5A9F"/>
</g>
<g opacity="0.7" filter="url(#filter4_f_163_2099)">
<path d="M238.466 383.717V402.448H208.887V589.642H213.656V582.483H221.637V589.642H226.406V582.483H234.387V589.642H239.9V570.911H243.991V563.753H251.972V570.911H256.741V563.753H264.723V570.911H269.491V563.753H277.473V570.911H282.986V383.717H238.466ZM221.626 579.104H213.644V571.122H221.626V579.104ZM221.626 567.732H213.644V559.74H221.626V567.732ZM221.626 556.36H213.644V548.379H221.626V556.36ZM221.626 545H213.644V537.019H221.626V545ZM221.626 533.639H213.644V525.658H221.626V533.639ZM221.626 522.268H213.644V514.286H221.626V522.268ZM221.626 510.907H213.644V502.926H221.626V510.907ZM221.626 499.546H213.644V491.565H221.626V499.546ZM221.626 488.186H213.644V480.204H221.626V488.186ZM221.626 476.825H213.644V468.833H221.626V476.825ZM221.626 465.442H213.644V457.461H221.626V465.442ZM221.626 454.082H213.644V446.1H221.626V454.082ZM221.626 442.721H213.644V434.74H221.626V442.721ZM221.626 431.361H213.644V423.379H221.626V431.361ZM221.626 419.989H213.644V412.008H221.626V419.989ZM234.376 579.104H226.394V571.122H234.376V579.104ZM234.376 567.732H226.394V559.74H234.376V567.732ZM234.376 556.36H226.394V548.379H234.376V556.36ZM234.376 545H226.394V537.019H234.376V545ZM234.376 533.639H226.394V525.658H234.376V533.639ZM234.376 522.268H226.394V514.286H234.376V522.268ZM234.376 510.907H226.394V502.926H234.376V510.907ZM234.376 499.546H226.394V491.565H234.376V499.546ZM234.376 488.186H226.394V480.204H234.376V488.186ZM234.376 476.825H226.394V468.833H234.376V476.825ZM234.376 465.442H226.394V457.461H234.376V465.442ZM234.376 454.082H226.394V446.1H234.376V454.082ZM234.376 442.721H226.394V434.74H234.376V442.721ZM234.376 431.361H226.394V423.379H234.376V431.361ZM234.376 419.989H226.394V412.008H234.376V419.989ZM251.961 560.362H243.98V552.381H251.961V560.362ZM251.961 549.002H243.98V541.009H251.961V549.002ZM251.961 537.63H243.98V529.649H251.961V537.63ZM251.961 526.269H243.98V518.288H251.961V526.269ZM251.961 514.898H243.98V506.916H251.961V514.898ZM251.961 503.537H243.98V495.556H251.961V503.537ZM251.961 492.176H243.98V484.195H251.961V492.176ZM251.961 480.816H243.98V472.835H251.961V480.816ZM251.961 469.444H243.98V461.463H251.961V469.444ZM251.961 458.084H243.98V450.091H251.961V458.084ZM251.961 446.712H243.98V438.731H251.961V446.712ZM251.961 435.351H243.98V427.37H251.961V435.351ZM251.961 423.991H243.98V416.009H251.961V423.991ZM251.961 412.619H243.98V404.638H251.961V412.619ZM251.961 401.258H243.98V393.277H251.961V401.258ZM264.711 560.362H256.73V552.381H264.711V560.362ZM264.711 549.002H256.73V541.009H264.711V549.002ZM264.711 537.63H256.73V529.649H264.711V537.63ZM264.711 526.269H256.73V518.288H264.711V526.269ZM264.711 514.898H256.73V506.916H264.711V514.898ZM264.711 503.537H256.73V495.556H264.711V503.537ZM264.711 492.176H256.73V484.195H264.711V492.176ZM264.711 480.816H256.73V472.835H264.711V480.816ZM264.711 469.444H256.73V461.463H264.711V469.444ZM264.711 458.084H256.73V450.091H264.711V458.084ZM264.711 446.712H256.73V438.731H264.711V446.712ZM264.711 435.351H256.73V427.37H264.711V435.351ZM264.711 423.991H256.73V416.009H264.711V423.991ZM264.711 412.619H256.73V404.638H264.711V412.619ZM264.711 401.258H256.73V393.277H264.711V401.258ZM277.45 560.362H269.469V552.381H277.45V560.362ZM277.45 549.002H269.469V541.009H277.45V549.002ZM277.45 537.63H269.469V529.649H277.45V537.63ZM277.45 526.269H269.469V518.288H277.45V526.269ZM277.45 514.898H269.469V506.916H277.45V514.898ZM277.45 503.537H269.469V495.556H277.45V503.537ZM277.45 492.176H269.469V484.195H277.45V492.176ZM277.45 480.816H269.469V472.835H277.45V480.816ZM277.45 469.444H269.469V461.463H277.45V469.444ZM277.45 458.084H269.469V450.091H277.45V458.084ZM277.45 446.712H269.469V438.731H277.45V446.712ZM277.45 435.351H269.469V427.37H277.45V435.351ZM277.45 423.991H269.469V416.009H277.45V423.991ZM277.45 412.619H269.469V404.638H277.45V412.619ZM277.45 401.258H269.469V393.277H277.45V401.258Z" fill="white"/>
</g>
<path d="M240.689 383.717V402.448H211.109V589.642H215.878V582.483H223.859V589.642H228.628V582.483H236.61V589.642H242.123V570.911H246.214V563.753H254.195V570.911H258.964V563.753H266.945V570.911H271.714V563.753H279.695V570.911H285.209V383.717H240.689ZM223.848 579.104H215.867V571.122H223.848V579.104ZM223.848 567.732H215.867V559.74H223.848V567.732ZM223.848 556.36H215.867V548.379H223.848V556.36ZM223.848 545H215.867V537.019H223.848V545ZM223.848 533.639H215.867V525.658H223.848V533.639ZM223.848 522.268H215.867V514.286H223.848V522.268ZM223.848 510.907H215.867V502.926H223.848V510.907ZM223.848 499.546H215.867V491.565H223.848V499.546ZM223.848 488.186H215.867V480.204H223.848V488.186ZM223.848 476.825H215.867V468.833H223.848V476.825ZM223.848 465.442H215.867V457.461H223.848V465.442ZM223.848 454.082H215.867V446.1H223.848V454.082ZM223.848 442.721H215.867V434.74H223.848V442.721ZM223.848 431.361H215.867V423.379H223.848V431.361ZM223.848 419.989H215.867V412.008H223.848V419.989ZM236.598 579.104H228.617V571.122H236.598V579.104ZM236.598 567.732H228.617V559.74H236.598V567.732ZM236.598 556.36H228.617V548.379H236.598V556.36ZM236.598 545H228.617V537.019H236.598V545ZM236.598 533.639H228.617V525.658H236.598V533.639ZM236.598 522.268H228.617V514.286H236.598V522.268ZM236.598 510.907H228.617V502.926H236.598V510.907ZM236.598 499.546H228.617V491.565H236.598V499.546ZM236.598 488.186H228.617V480.204H236.598V488.186ZM236.598 476.825H228.617V468.833H236.598V476.825ZM236.598 465.442H228.617V457.461H236.598V465.442ZM236.598 454.082H228.617V446.1H236.598V454.082ZM236.598 442.721H228.617V434.74H236.598V442.721ZM236.598 431.361H228.617V423.379H236.598V431.361ZM236.598 419.989H228.617V412.008H236.598V419.989ZM254.184 560.362H246.203V552.381H254.184V560.362ZM254.184 549.002H246.203V541.009H254.184V549.002ZM254.184 537.63H246.203V529.649H254.184V537.63ZM254.184 526.269H246.203V518.288H254.184V526.269ZM254.184 514.898H246.203V506.916H254.184V514.898ZM254.184 503.537H246.203V495.556H254.184V503.537ZM254.184 492.176H246.203V484.195H254.184V492.176ZM254.184 480.816H246.203V472.835H254.184V480.816ZM254.184 469.444H246.203V461.463H254.184V469.444ZM254.184 458.084H246.203V450.091H254.184V458.084ZM254.184 446.712H246.203V438.731H254.184V446.712ZM254.184 435.351H246.203V427.37H254.184V435.351ZM254.184 423.991H246.203V416.009H254.184V423.991ZM254.184 412.619H246.203V404.638H254.184V412.619ZM254.184 401.258H246.203V393.277H254.184V401.258ZM266.934 560.362H258.953V552.381H266.934V560.362ZM266.934 549.002H258.953V541.009H266.934V549.002ZM266.934 537.63H258.953V529.649H266.934V537.63ZM266.934 526.269H258.953V518.288H266.934V526.269ZM266.934 514.898H258.953V506.916H266.934V514.898ZM266.934 503.537H258.953V495.556H266.934V503.537ZM266.934 492.176H258.953V484.195H266.934V492.176ZM266.934 480.816H258.953V472.835H266.934V480.816ZM266.934 469.444H258.953V461.463H266.934V469.444ZM266.934 458.084H258.953V450.091H266.934V458.084ZM266.934 446.712H258.953V438.731H266.934V446.712ZM266.934 435.351H258.953V427.37H266.934V435.351ZM266.934 423.991H258.953V416.009H266.934V423.991ZM266.934 412.619H258.953V404.638H266.934V412.619ZM266.934 401.258H258.953V393.277H266.934V401.258ZM279.673 560.362H271.692V552.381H279.673V560.362ZM279.673 549.002H271.692V541.009H279.673V549.002ZM279.673 537.63H271.692V529.649H279.673V537.63ZM279.673 526.269H271.692V518.288H279.673V526.269ZM279.673 514.898H271.692V506.916H279.673V514.898ZM279.673 503.537H271.692V495.556H279.673V503.537ZM279.673 492.176H271.692V484.195H279.673V492.176ZM279.673 480.816H271.692V472.835H279.673V480.816ZM279.673 469.444H271.692V461.463H279.673V469.444ZM279.673 458.084H271.692V450.091H279.673V458.084ZM279.673 446.712H271.692V438.731H279.673V446.712ZM279.673 435.351H271.692V427.37H279.673V435.351ZM279.673 423.991H271.692V416.009H279.673V423.991ZM279.673 412.619H271.692V404.638H279.673V412.619ZM279.673 401.258H271.692V393.277H279.673V401.258Z" fill="url(#paint2_linear_163_2099)"/>
<g filter="url(#filter5_f_163_2099)">
<path d="M406.908 257.812H406.763V251.253H395.214V160.013L398.782 156.756V153.299L395.214 146.584H393.913V94.8171H392.701V71.5401H390.3V6H387.977V71.529H385.576V94.7949H384.376V146.562H383.064L379.507 153.276V156.733L383.064 159.99V251.231H371.525V257.789L363.655 265.993V269.061L364.078 270.25L364.767 272.151V278.854L366.079 280.044L369.48 283.134C369.091 283.134 368.691 283.189 368.324 283.278C366.279 283.79 364.767 285.646 364.767 287.847V289.025C364.767 289.159 364.778 289.303 364.789 289.426C364.789 289.492 364.8 289.559 364.811 289.614C364.811 289.67 364.822 289.748 364.845 289.803C365.156 291.349 366.523 292.527 368.168 292.527H380.485C380.485 292.916 380.496 293.327 380.496 293.716C380.529 297.396 380.552 301.075 380.552 304.743C380.585 311.835 380.585 318.905 380.552 325.953C380.541 328.043 380.529 330.144 380.518 332.222C380.507 334.301 380.485 336.391 380.463 338.469C380.452 340.115 380.44 341.76 380.418 343.394C380.407 344.483 380.396 345.573 380.374 346.662C379.762 395.928 377.873 442.571 375.227 481.088H386.888V293.75H391.512V481.133H403.173C400.16 437.258 398.115 382.811 397.859 325.986C397.826 318.95 397.826 311.869 397.859 304.777C397.87 301.108 397.893 297.429 397.915 293.75C397.915 293.361 397.926 292.949 397.926 292.56H410.243C411.888 292.56 413.255 291.382 413.566 289.837C413.588 289.703 413.611 289.581 413.622 289.448C413.633 289.314 413.644 289.17 413.644 289.048V287.869C413.644 285.657 412.121 283.812 410.087 283.301C409.72 283.212 409.331 283.156 408.931 283.156L412.332 280.066L413.644 278.876V272.173L414.333 270.273L414.756 269.083V266.015L406.908 257.812ZM412.054 277.843H366.379V275.608H412.054V277.843ZM395.014 259.69V266.526H379.851V259.69H395.014ZM376.105 259.69V266.526H365.345L371.814 259.69H376.105ZM398.76 259.69H406.608L413.077 266.526H398.76V259.69Z" fill="white"/>
<path d="M406.908 257.812H406.763V251.253H395.214V160.013L398.782 156.756V153.299L395.214 146.584H393.913V94.8171H392.701V71.5401H390.3V6H387.977V71.529H385.576V94.7949H384.376V146.562H383.064L379.507 153.276V156.733L383.064 159.99V251.231H371.525V257.789L363.655 265.993V269.061L364.078 270.25L364.767 272.151V278.854L366.079 280.044L369.48 283.134C369.091 283.134 368.691 283.189 368.324 283.278C366.279 283.79 364.767 285.646 364.767 287.847V289.025C364.767 289.159 364.778 289.303 364.789 289.426C364.789 289.492 364.8 289.559 364.811 289.614C364.811 289.67 364.822 289.748 364.845 289.803C365.156 291.349 366.523 292.527 368.168 292.527H380.485C380.485 292.916 380.496 293.327 380.496 293.716C380.529 297.396 380.552 301.075 380.552 304.743C380.585 311.835 380.585 318.905 380.552 325.953C380.541 328.043 380.529 330.144 380.518 332.222C380.507 334.301 380.485 336.391 380.463 338.469C380.452 340.115 380.44 341.76 380.418 343.394C380.407 344.483 380.396 345.573 380.374 346.662C379.762 395.928 377.873 442.571 375.227 481.088H386.888V293.75H391.512V481.133H403.173C400.16 437.258 398.115 382.811 397.859 325.986C397.826 318.95 397.826 311.869 397.859 304.777C397.87 301.108 397.893 297.429 397.915 293.75C397.915 293.361 397.926 292.949 397.926 292.56H410.243C411.888 292.56 413.255 291.382 413.566 289.837C413.588 289.703 413.611 289.581 413.622 289.448C413.633 289.314 413.644 289.17 413.644 289.048V287.869C413.644 285.657 412.121 283.812 410.087 283.301C409.72 283.212 409.331 283.156 408.931 283.156L412.332 280.066L413.644 278.876V272.173L414.333 270.273L414.756 269.083V266.015L406.908 257.812ZM412.054 277.843H366.379V275.608H412.054V277.843ZM395.014 259.69V266.526H379.851V259.69H395.014ZM376.105 259.69V266.526H365.345L371.814 259.69H376.105ZM398.76 259.69H406.608L413.077 266.526H398.76V259.69Z" fill="white"/>
<path d="M414.778 267.205H363.655V270.261H414.778V267.205Z" fill="white"/>
<path d="M414.778 267.205H363.655V270.261H414.778V267.205Z" fill="white"/>
<path d="M413.421 270.334H364.511V275.892H413.421V270.334Z" fill="white"/>
<path d="M413.421 270.334H364.511V275.892H413.421V270.334Z" fill="white"/>
<path d="M366.378 275.608H364.767V277.843H366.378V275.608Z" fill="white"/>
<path d="M366.378 275.608H364.767V277.843H366.378V275.608Z" fill="white"/>
<path d="M413.666 275.608H412.055V277.843H413.666V275.608Z" fill="white"/>
<path d="M413.666 275.608H412.055V277.843H413.666V275.608Z" fill="white"/>
<path d="M413.666 277.843H364.767V280.066H413.666V277.843Z" fill="white"/>
<path d="M413.666 277.843H364.767V280.066H413.666V277.843Z" fill="white"/>
<path d="M369.48 284.345H408.953L413.666 280.066H364.767L369.48 284.345Z" fill="white"/>
<path d="M369.48 284.345H408.953L413.666 280.066H364.767L369.48 284.345Z" fill="white"/>
<path d="M364.767 273.374H413.666L414.778 270.273H363.655L364.767 273.374Z" fill="white"/>
<path d="M364.767 273.374H413.666L414.778 270.273H363.655L364.767 273.374Z" fill="white"/>
<path d="M413.665 289.048C413.665 289.181 413.654 289.325 413.643 289.448C413.632 289.581 413.61 289.703 413.588 289.837C413.221 292.06 411.275 293.75 408.952 293.75H369.468C367.145 293.75 365.2 292.06 364.833 289.837C364.81 289.781 364.799 289.703 364.799 289.648C364.788 289.592 364.777 289.526 364.777 289.459C364.766 289.325 364.755 289.181 364.755 289.059C364.755 286.458 366.856 284.357 369.457 284.357H408.941C411.565 284.345 413.665 286.446 413.665 289.048Z" fill="white"/>
<path d="M413.665 289.048C413.665 289.181 413.654 289.325 413.643 289.448C413.632 289.581 413.61 289.703 413.588 289.837C413.221 292.06 411.275 293.75 408.952 293.75H369.468C367.145 293.75 365.2 292.06 364.833 289.837C364.81 289.781 364.799 289.703 364.799 289.648C364.788 289.592 364.777 289.526 364.777 289.459C364.766 289.325 364.755 289.181 364.755 289.059C364.755 286.458 366.856 284.357 369.457 284.357H408.941C411.565 284.345 413.665 286.446 413.665 289.048Z" fill="white"/>
<path d="M406.908 259.001H371.525L363.655 267.205H414.778L406.908 259.001ZM376.105 266.526H365.345L371.814 259.69H376.105V266.526ZM395.014 266.526H379.851V259.69H395.014V266.526ZM398.76 259.69H406.608L413.077 266.526H398.76V259.69Z" fill="white"/>
<path d="M406.908 259.001H371.525L363.655 267.205H414.778L406.908 259.001ZM376.105 266.526H365.345L371.814 259.69H376.105V266.526ZM395.014 266.526H379.851V259.69H395.014V266.526ZM398.76 259.69H406.608L413.077 266.526H398.76V259.69Z" fill="white"/>
<path d="M406.774 252.442H371.525V259.001H406.774V252.442Z" fill="white"/>
<path d="M406.774 252.442H371.525V259.001H406.774V252.442Z" fill="white"/>
<path d="M395.224 161.202H383.063V252.442H395.224V161.202Z" fill="white"/>
<path d="M395.224 161.202H383.063V252.442H395.224V161.202Z" fill="white"/>
<path d="M395.224 147.774H389.144H383.063L379.495 154.488V157.945L383.063 161.202H389.144H395.224L398.793 157.945V154.488L395.224 147.774Z" fill="white"/>
<path d="M395.224 147.774H389.144H383.063L379.495 154.488V157.945L383.063 161.202H389.144H395.224L398.793 157.945V154.488L395.224 147.774Z" fill="white"/>
<path d="M393.913 95.9954H384.375V147.774H393.913V95.9954Z" fill="white"/>
<path d="M393.913 95.9954H384.375V147.774H393.913V95.9954Z" fill="white"/>
<path d="M392.712 72.7296H385.587V95.9954H392.712V72.7296Z" fill="white"/>
<path d="M392.712 72.7296H385.587V95.9954H392.712V72.7296Z" fill="white"/>
<path d="M390.311 7.20053H387.977V72.7407H390.311V7.20053Z" fill="white"/>
<path d="M390.311 7.20053H387.977V72.7407H390.311V7.20053Z" fill="white"/>
<path d="M391.534 481.144H386.91V482.333H391.534V481.144Z" fill="white"/>
<path d="M391.534 481.144H386.91V482.333H391.534V481.144Z" fill="white"/>
<path d="M386.91 293.75V482.333H375.249C375.282 481.933 375.305 481.533 375.327 481.144C377.961 442.549 379.829 395.906 380.396 346.718C380.418 345.628 380.429 344.539 380.44 343.449C380.451 341.815 380.474 340.17 380.485 338.525C380.507 336.446 380.529 334.357 380.54 332.278C380.551 330.199 380.562 328.098 380.574 326.008C380.607 318.972 380.607 311.891 380.574 304.799C380.551 301.142 380.529 297.451 380.507 293.772H386.91V293.75Z" fill="white"/>
<path d="M386.91 293.75V482.333H375.249C375.282 481.933 375.305 481.533 375.327 481.144C377.961 442.549 379.829 395.906 380.396 346.718C380.418 345.628 380.429 344.539 380.44 343.449C380.451 341.815 380.474 340.17 380.485 338.525C380.507 336.446 380.529 334.357 380.54 332.278C380.551 330.199 380.562 328.098 380.574 326.008C380.607 318.972 380.607 311.891 380.574 304.799C380.551 301.142 380.529 297.451 380.507 293.772H386.91V293.75Z" fill="white"/>
<path d="M403.195 482.333H391.534V293.75H397.959C397.926 297.429 397.904 301.12 397.893 304.777C397.859 311.869 397.859 318.939 397.893 325.986C398.115 382.733 400.127 437.158 403.128 481.133C403.139 481.533 403.162 481.933 403.195 482.333Z" fill="white"/>
<path d="M403.195 482.333H391.534V293.75H397.959C397.926 297.429 397.904 301.12 397.893 304.777C397.859 311.869 397.859 318.939 397.893 325.986C398.115 382.733 400.127 437.158 403.128 481.133C403.139 481.533 403.162 481.933 403.195 482.333Z" fill="white"/>
</g>
<g filter="url(#filter6_f_163_2099)">
<path d="M410.243 257.812H410.098V251.253H398.549V160.013L402.117 156.756V153.299L398.549 146.584H397.248V94.8171H396.036V71.5401H393.635V6H391.312V71.529H388.911V94.7949H387.711V146.562H386.399L382.842 153.276V156.733L386.399 159.99V251.231H374.86V257.789L366.99 265.993V269.061L367.413 270.25L368.102 272.151V278.854L369.414 280.044L372.815 283.134C372.426 283.134 372.026 283.189 371.659 283.278C369.614 283.79 368.102 285.646 368.102 287.847V289.025C368.102 289.159 368.113 289.303 368.124 289.426C368.124 289.492 368.135 289.559 368.146 289.614C368.146 289.67 368.157 289.748 368.18 289.803C368.491 291.349 369.858 292.527 371.503 292.527H383.82C383.82 292.916 383.831 293.327 383.831 293.716C383.864 297.396 383.887 301.075 383.887 304.743C383.92 311.835 383.92 318.905 383.887 325.953C383.876 328.043 383.864 330.144 383.853 332.222C383.842 334.301 383.82 336.391 383.798 338.469C383.787 340.115 383.775 341.76 383.753 343.394C383.742 344.483 383.731 345.573 383.709 346.662C383.097 395.928 381.208 442.571 378.562 481.088H390.223V293.75H394.847V481.133H406.508C403.495 437.258 401.45 382.811 401.194 325.986C401.161 318.95 401.161 311.869 401.194 304.777C401.205 301.108 401.228 297.429 401.25 293.75C401.25 293.361 401.261 292.949 401.261 292.56H413.578C415.223 292.56 416.59 291.382 416.901 289.837C416.923 289.703 416.946 289.581 416.957 289.448C416.968 289.314 416.979 289.17 416.979 289.048V287.869C416.979 285.657 415.456 283.812 413.422 283.301C413.055 283.212 412.666 283.156 412.266 283.156L415.667 280.066L416.979 278.876V272.173L417.668 270.273L418.091 269.083V266.015L410.243 257.812ZM415.389 277.843H369.714V275.608H415.389V277.843ZM398.349 259.69V266.526H383.186V259.69H398.349ZM379.44 259.69V266.526H368.68L375.149 259.69H379.44ZM402.095 259.69H409.943L416.412 266.526H402.095V259.69Z" fill="#C4C4D7"/>
<path d="M410.243 257.812H410.098V251.253H398.549V160.013L402.117 156.756V153.299L398.549 146.584H397.248V94.8171H396.036V71.5401H393.635V6H391.312V71.529H388.911V94.7949H387.711V146.562H386.399L382.842 153.276V156.733L386.399 159.99V251.231H374.86V257.789L366.99 265.993V269.061L367.413 270.25L368.102 272.151V278.854L369.414 280.044L372.815 283.134C372.426 283.134 372.026 283.189 371.659 283.278C369.614 283.79 368.102 285.646 368.102 287.847V289.025C368.102 289.159 368.113 289.303 368.124 289.426C368.124 289.492 368.135 289.559 368.146 289.614C368.146 289.67 368.157 289.748 368.18 289.803C368.491 291.349 369.858 292.527 371.503 292.527H383.82C383.82 292.916 383.831 293.327 383.831 293.716C383.864 297.396 383.887 301.075 383.887 304.743C383.92 311.835 383.92 318.905 383.887 325.953C383.876 328.043 383.864 330.144 383.853 332.222C383.842 334.301 383.82 336.391 383.798 338.469C383.787 340.115 383.775 341.76 383.753 343.394C383.742 344.483 383.731 345.573 383.709 346.662C383.097 395.928 381.208 442.571 378.562 481.088H390.223V293.75H394.847V481.133H406.508C403.495 437.258 401.45 382.811 401.194 325.986C401.161 318.95 401.161 311.869 401.194 304.777C401.205 301.108 401.228 297.429 401.25 293.75C401.25 293.361 401.261 292.949 401.261 292.56H413.578C415.223 292.56 416.59 291.382 416.901 289.837C416.923 289.703 416.946 289.581 416.957 289.448C416.968 289.314 416.979 289.17 416.979 289.048V287.869C416.979 285.657 415.456 283.812 413.422 283.301C413.055 283.212 412.666 283.156 412.266 283.156L415.667 280.066L416.979 278.876V272.173L417.668 270.273L418.091 269.083V266.015L410.243 257.812ZM415.389 277.843H369.714V275.608H415.389V277.843ZM398.349 259.69V266.526H383.186V259.69H398.349ZM379.44 259.69V266.526H368.68L375.149 259.69H379.44ZM402.095 259.69H409.943L416.412 266.526H402.095V259.69Z" fill="#C4C4D7"/>
<path d="M418.113 267.205H366.99V270.261H418.113V267.205Z" fill="#C4C4D7"/>
<path d="M418.113 267.205H366.99V270.261H418.113V267.205Z" fill="#C4C4D7"/>
<path d="M416.757 270.334H367.847V275.892H416.757V270.334Z" fill="#C4C4D7"/>
<path d="M416.757 270.334H367.847V275.892H416.757V270.334Z" fill="#C4C4D7"/>
<path d="M369.713 275.608H368.102V277.843H369.713V275.608Z" fill="#C4C4D7"/>
<path d="M369.713 275.608H368.102V277.843H369.713V275.608Z" fill="#C4C4D7"/>
<path d="M417.001 275.608H415.39V277.843H417.001V275.608Z" fill="#C4C4D7"/>
<path d="M417.001 275.608H415.39V277.843H417.001V275.608Z" fill="#C4C4D7"/>
<path d="M417.001 277.843H368.102V280.066H417.001V277.843Z" fill="#C4C4D7"/>
<path d="M417.001 277.843H368.102V280.066H417.001V277.843Z" fill="#C4C4D7"/>
<path d="M372.815 284.345H412.288L417.001 280.066H368.102L372.815 284.345Z" fill="#C4C4D7"/>
<path d="M372.815 284.345H412.288L417.001 280.066H368.102L372.815 284.345Z" fill="#C4C4D7"/>
<path d="M368.102 273.374H417.001L418.113 270.273H366.99L368.102 273.374Z" fill="#C4C4D7"/>
<path d="M368.102 273.374H417.001L418.113 270.273H366.99L368.102 273.374Z" fill="#C4C4D7"/>
<path d="M417.001 289.048C417.001 289.181 416.99 289.325 416.979 289.448C416.968 289.581 416.946 289.703 416.924 289.837C416.557 292.06 414.611 293.75 412.288 293.75H372.804C370.481 293.75 368.535 292.06 368.169 289.837C368.146 289.781 368.135 289.703 368.135 289.648C368.124 289.592 368.113 289.526 368.113 289.459C368.102 289.325 368.091 289.181 368.091 289.059C368.091 286.458 370.192 284.357 372.793 284.357H412.277C414.9 284.345 417.001 286.446 417.001 289.048Z" fill="#C4C4D7"/>
<path d="M417.001 289.048C417.001 289.181 416.99 289.325 416.979 289.448C416.968 289.581 416.946 289.703 416.924 289.837C416.557 292.06 414.611 293.75 412.288 293.75H372.804C370.481 293.75 368.535 292.06 368.169 289.837C368.146 289.781 368.135 289.703 368.135 289.648C368.124 289.592 368.113 289.526 368.113 289.459C368.102 289.325 368.091 289.181 368.091 289.059C368.091 286.458 370.192 284.357 372.793 284.357H412.277C414.9 284.345 417.001 286.446 417.001 289.048Z" fill="#C4C4D7"/>
<path d="M410.243 259.001H374.86L366.99 267.205H418.113L410.243 259.001ZM379.44 266.526H368.68L375.149 259.69H379.44V266.526ZM398.349 266.526H383.186V259.69H398.349V266.526ZM402.095 259.69H409.943L416.412 266.526H402.095V259.69Z" fill="#C4C4D7"/>
<path d="M410.243 259.001H374.86L366.99 267.205H418.113L410.243 259.001ZM379.44 266.526H368.68L375.149 259.69H379.44V266.526ZM398.349 266.526H383.186V259.69H398.349V266.526ZM402.095 259.69H409.943L416.412 266.526H402.095V259.69Z" fill="#C4C4D7"/>
<path d="M410.109 252.442H374.86V259.001H410.109V252.442Z" fill="#C4C4D7"/>
<path d="M410.109 252.442H374.86V259.001H410.109V252.442Z" fill="#C4C4D7"/>
<path d="M398.559 161.202H386.398V252.442H398.559V161.202Z" fill="#C4C4D7"/>
<path d="M398.559 161.202H386.398V252.442H398.559V161.202Z" fill="#C4C4D7"/>
<path d="M398.56 147.774H392.48H386.399L382.831 154.488V157.945L386.399 161.202H392.48H398.56L402.128 157.945V154.488L398.56 147.774Z" fill="#C4C4D7"/>
<path d="M398.56 147.774H392.48H386.399L382.831 154.488V157.945L386.399 161.202H392.48H398.56L402.128 157.945V154.488L398.56 147.774Z" fill="#C4C4D7"/>
<path d="M397.249 95.9954H387.711V147.774H397.249V95.9954Z" fill="#C4C4D7"/>
<path d="M397.249 95.9954H387.711V147.774H397.249V95.9954Z" fill="#C4C4D7"/>
<path d="M396.047 72.7296H388.922V95.9954H396.047V72.7296Z" fill="#C4C4D7"/>
<path d="M396.047 72.7296H388.922V95.9954H396.047V72.7296Z" fill="#C4C4D7"/>
<path d="M393.647 7.20053H391.312V72.7407H393.647V7.20053Z" fill="#C4C4D7"/>
<path d="M393.647 7.20053H391.312V72.7407H393.647V7.20053Z" fill="#C4C4D7"/>
<path d="M394.869 481.144H390.245V482.333H394.869V481.144Z" fill="#C4C4D7"/>
<path d="M394.869 481.144H390.245V482.333H394.869V481.144Z" fill="#C4C4D7"/>
<path d="M390.246 293.75V482.333H378.585C378.618 481.933 378.641 481.533 378.663 481.144C381.297 442.549 383.165 395.906 383.732 346.718C383.754 345.628 383.765 344.539 383.776 343.449C383.787 341.815 383.809 340.17 383.821 338.525C383.843 336.446 383.865 334.357 383.876 332.278C383.887 330.199 383.898 328.098 383.91 326.008C383.943 318.972 383.943 311.891 383.91 304.799C383.887 301.142 383.865 297.451 383.843 293.772H390.246V293.75Z" fill="#C4C4D7"/>
<path d="M390.246 293.75V482.333H378.585C378.618 481.933 378.641 481.533 378.663 481.144C381.297 442.549 383.165 395.906 383.732 346.718C383.754 345.628 383.765 344.539 383.776 343.449C383.787 341.815 383.809 340.17 383.821 338.525C383.843 336.446 383.865 334.357 383.876 332.278C383.887 330.199 383.898 328.098 383.91 326.008C383.943 318.972 383.943 311.891 383.91 304.799C383.887 301.142 383.865 297.451 383.843 293.772H390.246V293.75Z" fill="#C4C4D7"/>
<path d="M406.53 482.333H394.869V293.75H401.294C401.261 297.429 401.239 301.12 401.228 304.777C401.194 311.869 401.194 318.939 401.228 325.986C401.45 382.733 403.462 437.158 406.463 481.133C406.474 481.533 406.497 481.933 406.53 482.333Z" fill="#C4C4D7"/>
<path d="M406.53 482.333H394.869V293.75H401.294C401.261 297.429 401.239 301.12 401.228 304.777C401.194 311.869 401.194 318.939 401.228 325.986C401.45 382.733 403.462 437.158 406.463 481.133C406.474 481.533 406.497 481.933 406.53 482.333Z" fill="#C4C4D7"/>
</g>
<g filter="url(#filter7_f_163_2099)">
<path d="M146.126 421.512V558.55H201.139V421.512H146.126ZM148.694 552.325H198.671V555.649H148.694V552.325ZM148.694 545.678H198.671V549.002H148.694V545.678ZM148.694 539.03H198.671V542.354H148.694V539.03ZM148.694 532.383H198.671V535.707H148.694V532.383ZM148.694 525.747H198.671V529.071H148.694V525.747ZM148.694 519.088H198.671V522.423H148.694V519.088ZM148.694 512.441H198.671V515.776H148.694V512.441ZM148.694 505.805H198.671V509.128H148.694V505.805ZM148.694 499.157H198.671V502.481H148.694V499.157ZM148.694 492.51H198.671V495.834H148.694V492.51ZM148.694 485.862H198.671V489.186H148.694V485.862ZM148.694 479.226H198.671V482.55H148.694V479.226ZM148.694 472.579H198.671V475.903H148.694V472.579ZM148.694 465.92H198.671V469.255H148.694V465.92ZM148.694 459.284H198.671V462.619H148.694V459.284ZM148.694 452.637H198.671V455.96H148.694V452.637ZM148.694 445.989H198.671V449.313H148.694V445.989ZM148.694 439.353H198.671V442.677H148.694V439.353ZM148.694 432.706H198.671V436.029H148.694V432.706ZM148.694 426.058H198.671V429.382H148.694V426.058Z" fill="#AAAAE1" fill-opacity="0.5"/>
</g>
<path d="M145.015 419.289V556.327H200.028V419.289H145.015ZM147.582 550.102H197.56V553.426H147.582V550.102ZM147.582 543.455H197.56V546.778H147.582V543.455ZM147.582 536.807H197.56V540.131H147.582V536.807ZM147.582 530.16H197.56V533.484H147.582V530.16ZM147.582 523.524H197.56V526.847H147.582V523.524ZM147.582 516.865H197.56V520.2H147.582V516.865ZM147.582 510.218H197.56V513.553H147.582V510.218ZM147.582 503.581H197.56V506.905H147.582V503.581ZM147.582 496.934H197.56V500.258H147.582V496.934ZM147.582 490.287H197.56V493.61H147.582V490.287ZM147.582 483.639H197.56V486.963H147.582V483.639ZM147.582 477.003H197.56V480.327H147.582V477.003ZM147.582 470.356H197.56V473.679H147.582V470.356ZM147.582 463.697H197.56V467.032H147.582V463.697ZM147.582 457.061H197.56V460.396H147.582V457.061ZM147.582 450.413H197.56V453.737H147.582V450.413ZM147.582 443.766H197.56V447.09H147.582V443.766ZM147.582 437.13H197.56V440.454H147.582V437.13ZM147.582 430.482H197.56V433.806H147.582V430.482ZM147.582 423.835H197.56V427.159H147.582V423.835Z" fill="url(#paint3_linear_163_2099)"/>
<g opacity="0.4" filter="url(#filter8_f_163_2099)">
<path d="M123.294 465.298V556.327H125.851V556.238H145.059V552.914H125.851V549.591H145.059V546.267H125.851V542.943H145.059V539.62H125.851V536.296H145.059V532.972H125.851V529.649H145.059V526.325H125.851V523.001H145.059V519.677H125.851V516.354H145.059V513.03H125.851V509.695H145.059V506.383H125.851V503.048H145.059V499.724H125.851V496.4H145.059V493.077H125.851V489.753H145.059V486.429H125.851V483.106H145.059V479.782H125.851V476.458H145.059V473.135H125.851V469.811H145.059V465.264H123.294V465.298Z" fill="white"/>
</g>
<path d="M145.015 420.4V557.439H200.028V420.4H145.015ZM147.582 551.214H197.56V554.537H147.582V551.214ZM147.582 544.566H197.56V547.89H147.582V544.566ZM147.582 537.919H197.56V541.243H147.582V537.919ZM147.582 531.271H197.56V534.595H147.582V531.271ZM147.582 524.635H197.56V527.959H147.582V524.635ZM147.582 517.977H197.56V521.312H147.582V517.977ZM147.582 511.329H197.56V514.664H147.582V511.329ZM147.582 504.693H197.56V508.017H147.582V504.693ZM147.582 498.046H197.56V501.369H147.582V498.046ZM147.582 491.398H197.56V494.722H147.582V491.398ZM147.582 484.751H197.56V488.075H147.582V484.751ZM147.582 478.115H197.56V481.438H147.582V478.115ZM147.582 471.467H197.56V474.791H147.582V471.467ZM147.582 464.809H197.56V468.144H147.582V464.809ZM147.582 458.172H197.56V461.507H147.582V458.172ZM147.582 451.525H197.56V454.849H147.582V451.525ZM147.582 444.878H197.56V448.201H147.582V444.878ZM147.582 438.241H197.56V441.565H147.582V438.241ZM147.582 431.594H197.56V434.918H147.582V431.594ZM147.582 424.947H197.56V428.27H147.582V424.947Z" fill="url(#paint4_linear_163_2099)"/>
<path d="M123.294 466.409V557.439H125.851V557.35H145.059V554.026H125.851V550.702H145.059V547.379H125.851V544.055H145.059V540.731H125.851V537.408H145.059V534.084H125.851V530.76H145.059V527.436H125.851V524.113H145.059V520.789H125.851V517.465H145.059V514.142H125.851V510.807H145.059V507.494H125.851V504.16H145.059V500.836H125.851V497.512H145.059V494.188H125.851V490.865H145.059V487.541H125.851V484.217H145.059V480.894H125.851V477.57H145.059V474.246H125.851V470.923H145.059V466.376H123.294V466.409Z" fill="url(#paint5_linear_163_2099)"/>
<g opacity="0.7" filter="url(#filter9_f_163_2099)">
<path d="M292.347 344.439V525.119H360.499V344.439H292.347ZM353.529 519.561H298.305V507.844H353.529V519.561ZM353.529 502.698H298.305V490.981H353.529V502.698ZM353.529 485.835H298.305V474.118H353.529V485.835ZM353.529 468.961H298.305V457.244H353.529V468.961ZM353.529 452.098H298.305V440.381H353.529V452.098ZM353.529 435.235H298.305V423.518H353.529V435.235ZM353.529 418.371H298.305V406.655H353.529V418.371ZM353.529 401.497H298.305V389.781H353.529V401.497ZM353.529 384.634H298.305V372.918H353.529V384.634ZM353.529 367.771H298.305V356.055H353.529V367.771Z" fill="white" fill-opacity="0.11"/>
</g>
<g opacity="0.7" filter="url(#filter10_f_163_2099)">
<path d="M293.458 346.662V527.342H361.61V346.662H293.458ZM354.641 521.784H299.416V510.068H354.641V521.784ZM354.641 504.921H299.416V493.205H354.641V504.921ZM354.641 488.058H299.416V476.342H354.641V488.058ZM354.641 471.184H299.416V459.467H354.641V471.184ZM354.641 454.321H299.416V442.604H354.641V454.321ZM354.641 437.458H299.416V425.741H354.641V437.458ZM354.641 420.595H299.416V408.878H354.641V420.595ZM354.641 403.721H299.416V392.004H354.641V403.721ZM354.641 386.858H299.416V375.141H354.641V386.858ZM354.641 369.995H299.416V358.278H354.641V369.995Z" fill="#A0A0D1" fill-opacity="0.7"/>
</g>
<path d="M293.458 344.439V525.119H361.61V344.439H293.458ZM354.641 519.561H299.416V507.844H354.641V519.561ZM354.641 502.698H299.416V490.981H354.641V502.698ZM354.641 485.835H299.416V474.118H354.641V485.835ZM354.641 468.961H299.416V457.244H354.641V468.961ZM354.641 452.098H299.416V440.381H354.641V452.098ZM354.641 435.235H299.416V423.518H354.641V435.235ZM354.641 418.371H299.416V406.655H354.641V418.371ZM354.641 401.497H299.416V389.781H354.641V401.497ZM354.641 384.634H299.416V372.918H354.641V384.634ZM354.641 367.771H299.416V356.055H354.641V367.771Z" fill="url(#paint6_linear_163_2099)"/>
<g opacity="0.7" filter="url(#filter11_f_163_2099)">
<path d="M403.418 373.713V494.503H443.887V373.713H403.418ZM439.749 490.787H406.956V482.955H439.749V490.787ZM439.749 479.514H406.956V471.681H439.749V479.514ZM439.749 468.24H406.956V460.408H439.749V468.24ZM439.749 456.959H406.956V449.127H439.749V456.959ZM439.749 445.686H406.956V437.853H439.749V445.686ZM439.749 434.413H406.956V426.58H439.749V434.413ZM439.749 423.139H406.956V415.306H439.749V423.139ZM439.749 411.858H406.956V404.026H439.749V411.858ZM439.749 400.585H406.956V392.752H439.749V400.585ZM439.749 389.311H406.956V381.479H439.749V389.311Z" fill="white" fill-opacity="0.11"/>
</g>
<g opacity="0.7" filter="url(#filter12_f_163_2099)">
<path d="M404.078 375.199V495.989H444.547V375.199H404.078ZM440.409 492.274H407.616V484.441H440.409V492.274ZM440.409 481H407.616V473.167H440.409V481ZM440.409 469.727H407.616V461.894H440.409V469.727ZM440.409 458.446H407.616V450.613H440.409V458.446ZM440.409 447.172H407.616V439.34H440.409V447.172ZM440.409 435.899H407.616V428.066H440.409V435.899ZM440.409 424.625H407.616V416.793H440.409V424.625ZM440.409 413.345H407.616V405.512H440.409V413.345ZM440.409 402.071H407.616V394.238H440.409V402.071ZM440.409 390.798H407.616V382.965H440.409V390.798Z" fill="#A0A0D1" fill-opacity="0.7"/>
</g>
<path d="M404.078 373.713V494.503H444.547V373.713H404.078ZM440.409 490.787H407.616V482.955H440.409V490.787ZM440.409 479.514H407.616V471.681H440.409V479.514ZM440.409 468.24H407.616V460.408H440.409V468.24ZM440.409 456.959H407.616V449.127H440.409V456.959ZM440.409 445.686H407.616V437.853H440.409V445.686ZM440.409 434.413H407.616V426.58H440.409V434.413ZM440.409 423.139H407.616V415.306H440.409V423.139ZM440.409 411.858H407.616V404.026H440.409V411.858ZM440.409 400.585H407.616V392.752H440.409V400.585ZM440.409 389.311H407.616V381.479H440.409V389.311Z" fill="url(#paint7_linear_163_2099)"/>
<g opacity="0.7" filter="url(#filter13_f_163_2099)">
<path d="M477.462 311.463V330.194H447.882V517.388H452.651V510.229H460.632V517.388H465.401V510.229H473.382V517.388H478.896V498.657H482.986V491.498H490.968V498.657H495.736V491.498H503.718V498.657H508.486V491.498H516.468V498.657H521.981V311.463H477.462ZM460.632 506.85H452.651V498.868H460.632V506.85ZM460.632 495.489H452.651V487.497H460.632V495.489ZM460.632 484.117H452.651V476.136H460.632V484.117ZM460.632 472.746H452.651V464.764H460.632V472.746ZM460.632 461.385H452.651V453.404H460.632V461.385ZM460.632 450.024H452.651V442.043H460.632V450.024ZM460.632 438.664H452.651V430.683H460.632V438.664ZM460.632 427.292H452.651V419.311H460.632V427.292ZM460.632 415.932H452.651V407.95H460.632V415.932ZM460.632 404.571H452.651V396.579H460.632V404.571ZM460.632 393.199H452.651V385.218H460.632V393.199ZM460.632 381.839H452.651V373.857H460.632V381.839ZM460.632 370.467H452.651V362.486H460.632V370.467ZM460.632 359.106H452.651V351.125H460.632V359.106ZM460.632 347.746H452.651V339.765H460.632V347.746ZM473.371 506.85H465.39V498.868H473.371V506.85ZM473.371 495.489H465.39V487.497H473.371V495.489ZM473.371 484.117H465.39V476.136H473.371V484.117ZM473.371 472.746H465.39V464.764H473.371V472.746ZM473.371 461.385H465.39V453.404H473.371V461.385ZM473.371 450.024H465.39V442.043H473.371V450.024ZM473.371 438.664H465.39V430.683H473.371V438.664ZM473.371 427.292H465.39V419.311H473.371V427.292ZM473.371 415.932H465.39V407.95H473.371V415.932ZM473.371 404.571H465.39V396.579H473.371V404.571ZM473.371 393.199H465.39V385.218H473.371V393.199ZM473.371 381.839H465.39V373.857H473.371V381.839ZM473.371 370.467H465.39V362.486H473.371V370.467ZM473.371 359.106H465.39V351.125H473.371V359.106ZM473.371 347.746H465.39V339.765H473.371V347.746ZM490.968 488.108H482.986V480.127H490.968V488.108ZM490.968 476.747H482.986V468.755H490.968V476.747ZM490.968 465.376H482.986V457.394H490.968V465.376ZM490.968 454.015H482.986V446.034H490.968V454.015ZM490.968 442.654H482.986V434.673H490.968V442.654ZM490.968 431.283H482.986V423.301H490.968V431.283ZM490.968 419.922H482.986V411.941H490.968V419.922ZM490.968 408.562H482.986V400.58H490.968V408.562ZM490.968 397.201H482.986V389.22H490.968V397.201ZM490.968 385.829H482.986V377.837H490.968V385.829ZM490.968 374.458H482.986V366.476H490.968V374.458ZM490.968 363.097H482.986V355.116H490.968V363.097ZM490.968 351.736H482.986V343.755H490.968V351.736ZM490.968 340.376H482.986V332.395H490.968V340.376ZM490.968 329.004H482.986V321.023H490.968V329.004ZM503.707 488.108H495.725V480.127H503.707V488.108ZM503.707 476.747H495.725V468.755H503.707V476.747ZM503.707 465.376H495.725V457.394H503.707V465.376ZM503.707 454.015H495.725V446.034H503.707V454.015ZM503.707 442.654H495.725V434.673H503.707V442.654ZM503.707 431.283H495.725V423.301H503.707V431.283ZM503.707 419.922H495.725V411.941H503.707V419.922ZM503.707 408.562H495.725V400.58H503.707V408.562ZM503.707 397.201H495.725V389.22H503.707V397.201ZM503.707 385.829H495.725V377.837H503.707V385.829ZM503.707 374.458H495.725V366.476H503.707V374.458ZM503.707 363.097H495.725V355.116H503.707V363.097ZM503.707 351.736H495.725V343.755H503.707V351.736ZM503.707 340.376H495.725V332.395H503.707V340.376ZM503.707 329.004H495.725V321.023H503.707V329.004ZM516.457 488.108H508.475V480.127H516.457V488.108ZM516.457 476.747H508.475V468.755H516.457V476.747ZM516.457 465.376H508.475V457.394H516.457V465.376ZM516.457 454.015H508.475V446.034H516.457V454.015ZM516.457 442.654H508.475V434.673H516.457V442.654ZM516.457 431.283H508.475V423.301H516.457V431.283ZM516.457 419.922H508.475V411.941H516.457V419.922ZM516.457 408.562H508.475V400.58H516.457V408.562ZM516.457 397.201H508.475V389.22H516.457V397.201ZM516.457 385.829H508.475V377.837H516.457V385.829ZM516.457 374.458H508.475V366.476H516.457V374.458ZM516.457 363.097H508.475V355.116H516.457V363.097ZM516.457 351.736H508.475V343.755H516.457V351.736ZM516.457 340.376H508.475V332.395H516.457V340.376ZM516.457 329.004H508.475V321.023H516.457V329.004Z" fill="#A0A0D1" fill-opacity="0.7"/>
</g>
<g opacity="0.7" filter="url(#filter14_f_163_2099)">
<path d="M473.015 308.128V326.859H443.436V514.053H448.204V506.894H456.186V514.053H460.954V506.894H468.936V514.053H474.449V495.322H478.54V488.164H486.521V495.322H491.29V488.164H499.271V495.322H504.04V488.164H512.021V495.322H517.535V308.128H473.015ZM456.186 503.515H448.204V495.533H456.186V503.515ZM456.186 492.154H448.204V484.162H456.186V492.154ZM456.186 480.782H448.204V472.801H456.186V480.782ZM456.186 469.411H448.204V461.429H456.186V469.411ZM456.186 458.05H448.204V450.069H456.186V458.05ZM456.186 446.69H448.204V438.708H456.186V446.69ZM456.186 435.329H448.204V427.348H456.186V435.329ZM456.186 423.957H448.204V415.976H456.186V423.957ZM456.186 412.597H448.204V404.615H456.186V412.597ZM456.186 401.236H448.204V393.244H456.186V401.236ZM456.186 389.864H448.204V381.883H456.186V389.864ZM456.186 378.504H448.204V370.523H456.186V378.504ZM456.186 367.132H448.204V359.151H456.186V367.132ZM456.186 355.772H448.204V347.79H456.186V355.772ZM456.186 344.411H448.204V336.43H456.186V344.411ZM468.925 503.515H460.943V495.533H468.925V503.515ZM468.925 492.154H460.943V484.162H468.925V492.154ZM468.925 480.782H460.943V472.801H468.925V480.782ZM468.925 469.411H460.943V461.429H468.925V469.411ZM468.925 458.05H460.943V450.069H468.925V458.05ZM468.925 446.69H460.943V438.708H468.925V446.69ZM468.925 435.329H460.943V427.348H468.925V435.329ZM468.925 423.957H460.943V415.976H468.925V423.957ZM468.925 412.597H460.943V404.615H468.925V412.597ZM468.925 401.236H460.943V393.244H468.925V401.236ZM468.925 389.864H460.943V381.883H468.925V389.864ZM468.925 378.504H460.943V370.523H468.925V378.504ZM468.925 367.132H460.943V359.151H468.925V367.132ZM468.925 355.772H460.943V347.79H468.925V355.772ZM468.925 344.411H460.943V336.43H468.925V344.411ZM486.521 484.773H478.54V476.792H486.521V484.773ZM486.521 473.413H478.54V465.42H486.521V473.413ZM486.521 462.041H478.54V454.06H486.521V462.041ZM486.521 450.68H478.54V442.699H486.521V450.68ZM486.521 439.32H478.54V431.338H486.521V439.32ZM486.521 427.948H478.54V419.967H486.521V427.948ZM486.521 416.587H478.54V408.606H486.521V416.587ZM486.521 405.227H478.54V397.245H486.521V405.227ZM486.521 393.866H478.54V385.885H486.521V393.866ZM486.521 382.494H478.54V374.502H486.521V382.494ZM486.521 371.123H478.54V363.142H486.521V371.123ZM486.521 359.762H478.54V351.781H486.521V359.762ZM486.521 348.402H478.54V340.42H486.521V348.402ZM486.521 337.041H478.54V329.06H486.521V337.041ZM486.521 325.669H478.54V317.688H486.521V325.669ZM499.26 484.773H491.279V476.792H499.26V484.773ZM499.26 473.413H491.279V465.42H499.26V473.413ZM499.26 462.041H491.279V454.06H499.26V462.041ZM499.26 450.68H491.279V442.699H499.26V450.68ZM499.26 439.32H491.279V431.338H499.26V439.32ZM499.26 427.948H491.279V419.967H499.26V427.948ZM499.26 416.587H491.279V408.606H499.26V416.587ZM499.26 405.227H491.279V397.245H499.26V405.227ZM499.26 393.866H491.279V385.885H499.26V393.866ZM499.26 382.494H491.279V374.502H499.26V382.494ZM499.26 371.123H491.279V363.142H499.26V371.123ZM499.26 359.762H491.279V351.781H499.26V359.762ZM499.26 348.402H491.279V340.42H499.26V348.402ZM499.26 337.041H491.279V329.06H499.26V337.041ZM499.26 325.669H491.279V317.688H499.26V325.669ZM512.01 484.773H504.029V476.792H512.01V484.773ZM512.01 473.413H504.029V465.42H512.01V473.413ZM512.01 462.041H504.029V454.06H512.01V462.041ZM512.01 450.68H504.029V442.699H512.01V450.68ZM512.01 439.32H504.029V431.338H512.01V439.32ZM512.01 427.948H504.029V419.967H512.01V427.948ZM512.01 416.587H504.029V408.606H512.01V416.587ZM512.01 405.227H504.029V397.245H512.01V405.227ZM512.01 393.866H504.029V385.885H512.01V393.866ZM512.01 382.494H504.029V374.502H512.01V382.494ZM512.01 371.123H504.029V363.142H512.01V371.123ZM512.01 359.762H504.029V351.781H512.01V359.762ZM512.01 348.402H504.029V340.42H512.01V348.402ZM512.01 337.041H504.029V329.06H512.01V337.041ZM512.01 325.669H504.029V317.688H512.01V325.669Z" fill="white"/>
</g>
<path d="M475.372 309.334V328.065H445.792V515.259H450.561V508.1H458.542V515.259H463.311V508.1H471.292V515.259H476.806V496.528H480.896V489.37H488.878V496.528H493.647V489.37H501.628V496.528H506.397V489.37H514.378V496.528H519.891V309.334H475.372ZM458.542 504.721H450.561V496.74H458.542V504.721ZM458.542 493.36H450.561V485.368H458.542V493.36ZM458.542 481.989H450.561V474.007H458.542V481.989ZM458.542 470.617H450.561V462.636H458.542V470.617ZM458.542 459.256H450.561V451.275H458.542V459.256ZM458.542 447.896H450.561V439.914H458.542V447.896ZM458.542 436.535H450.561V428.554H458.542V436.535ZM458.542 425.163H450.561V417.182H458.542V425.163ZM458.542 413.803H450.561V405.822H458.542V413.803ZM458.542 402.442H450.561V394.45H458.542V402.442ZM458.542 391.071H450.561V383.089H458.542V391.071ZM458.542 379.71H450.561V371.729H458.542V379.71ZM458.542 368.338H450.561V360.357H458.542V368.338ZM458.542 356.978H450.561V348.996H458.542V356.978ZM458.542 345.617H450.561V337.636H458.542V345.617ZM471.281 504.721H463.3V496.74H471.281V504.721ZM471.281 493.36H463.3V485.368H471.281V493.36ZM471.281 481.989H463.3V474.007H471.281V481.989ZM471.281 470.617H463.3V462.636H471.281V470.617ZM471.281 459.256H463.3V451.275H471.281V459.256ZM471.281 447.896H463.3V439.914H471.281V447.896ZM471.281 436.535H463.3V428.554H471.281V436.535ZM471.281 425.163H463.3V417.182H471.281V425.163ZM471.281 413.803H463.3V405.822H471.281V413.803ZM471.281 402.442H463.3V394.45H471.281V402.442ZM471.281 391.071H463.3V383.089H471.281V391.071ZM471.281 379.71H463.3V371.729H471.281V379.71ZM471.281 368.338H463.3V360.357H471.281V368.338ZM471.281 356.978H463.3V348.996H471.281V356.978ZM471.281 345.617H463.3V337.636H471.281V345.617ZM488.878 485.979H480.896V477.998H488.878V485.979ZM488.878 474.619H480.896V466.626H488.878V474.619ZM488.878 463.247H480.896V455.266H488.878V463.247ZM488.878 451.886H480.896V443.905H488.878V451.886ZM488.878 440.526H480.896V432.544H488.878V440.526ZM488.878 429.154H480.896V421.173H488.878V429.154ZM488.878 417.793H480.896V409.812H488.878V417.793ZM488.878 406.433H480.896V398.452H488.878V406.433ZM488.878 395.072H480.896V387.091H488.878V395.072ZM488.878 383.701H480.896V375.708H488.878V383.701ZM488.878 372.329H480.896V364.348H488.878V372.329ZM488.878 360.968H480.896V352.987H488.878V360.968ZM488.878 349.608H480.896V341.626H488.878V349.608ZM488.878 338.247H480.896V330.266H488.878V338.247ZM488.878 326.875H480.896V318.894H488.878V326.875ZM501.617 485.979H493.635V477.998H501.617V485.979ZM501.617 474.619H493.635V466.626H501.617V474.619ZM501.617 463.247H493.635V455.266H501.617V463.247ZM501.617 451.886H493.635V443.905H501.617V451.886ZM501.617 440.526H493.635V432.544H501.617V440.526ZM501.617 429.154H493.635V421.173H501.617V429.154ZM501.617 417.793H493.635V409.812H501.617V417.793ZM501.617 406.433H493.635V398.452H501.617V406.433ZM501.617 395.072H493.635V387.091H501.617V395.072ZM501.617 383.701H493.635V375.708H501.617V383.701ZM501.617 372.329H493.635V364.348H501.617V372.329ZM501.617 360.968H493.635V352.987H501.617V360.968ZM501.617 349.608H493.635V341.626H501.617V349.608ZM501.617 338.247H493.635V330.266H501.617V338.247ZM501.617 326.875H493.635V318.894H501.617V326.875ZM514.367 485.979H506.385V477.998H514.367V485.979ZM514.367 474.619H506.385V466.626H514.367V474.619ZM514.367 463.247H506.385V455.266H514.367V463.247ZM514.367 451.886H506.385V443.905H514.367V451.886ZM514.367 440.526H506.385V432.544H514.367V440.526ZM514.367 429.154H506.385V421.173H514.367V429.154ZM514.367 417.793H506.385V409.812H514.367V417.793ZM514.367 406.433H506.385V398.452H514.367V406.433ZM514.367 395.072H506.385V387.091H514.367V395.072ZM514.367 383.701H506.385V375.708H514.367V383.701ZM514.367 372.329H506.385V364.348H514.367V372.329ZM514.367 360.968H506.385V352.987H514.367V360.968ZM514.367 349.608H506.385V341.626H514.367V349.608ZM514.367 338.247H506.385V330.266H514.367V338.247ZM514.367 326.875H506.385V318.894H514.367V326.875Z" fill="url(#paint8_linear_163_2099)"/>
<path d="M409.131 257.812H408.987V251.253H397.437V160.013L401.006 156.756V153.299L397.437 146.584H396.137V94.8171H394.925V71.5401H392.524V6H390.201V71.529H387.8V94.7949H386.599V146.562H385.287L381.73 153.276V156.733L385.287 159.99V251.231H373.749V257.789L365.879 265.993V269.061L366.301 270.25L366.991 272.151V278.854L368.302 280.044L371.704 283.134C371.315 283.134 370.914 283.189 370.548 283.278C368.502 283.79 366.991 285.646 366.991 287.847V289.025C366.991 289.159 367.002 289.303 367.013 289.426C367.013 289.492 367.024 289.559 367.035 289.614C367.035 289.67 367.046 289.748 367.068 289.803C367.38 291.349 368.747 292.527 370.392 292.527H382.709C382.709 292.916 382.72 293.327 382.72 293.716C382.753 297.396 382.775 301.075 382.775 304.743C382.809 311.835 382.809 318.905 382.775 325.953C382.764 328.043 382.753 330.144 382.742 332.222C382.731 334.301 382.709 336.391 382.686 338.469C382.675 340.115 382.664 341.76 382.642 343.394C382.631 344.483 382.62 345.573 382.597 346.662C381.986 395.928 380.096 442.571 377.451 481.088H389.111V293.75H393.736V481.133H405.396C402.384 437.258 400.339 382.811 400.083 325.986C400.05 318.95 400.05 311.869 400.083 304.777C400.094 301.108 400.116 297.429 400.139 293.75C400.139 293.361 400.15 292.949 400.15 292.56H412.466C414.111 292.56 415.479 291.382 415.79 289.837C415.812 289.703 415.834 289.581 415.845 289.448C415.857 289.314 415.868 289.17 415.868 289.048V287.869C415.868 285.657 414.345 283.812 412.311 283.301C411.944 283.212 411.555 283.156 411.155 283.156L414.556 280.066L415.868 278.876V272.173L416.557 270.273L416.979 269.083V266.015L409.131 257.812ZM414.278 277.843H368.602V275.608H414.278V277.843ZM397.237 259.69V266.526H382.075V259.69H397.237ZM378.329 259.69V266.526H367.569L374.038 259.69H378.329ZM400.983 259.69H408.831L415.301 266.526H400.983V259.69Z" fill="url(#paint9_linear_163_2099)"/>
<path d="M409.131 257.812H408.987V251.253H397.437V160.013L401.006 156.756V153.299L397.437 146.584H396.137V94.8171H394.925V71.5401H392.524V6H390.201V71.529H387.8V94.7949H386.599V146.562H385.287L381.73 153.276V156.733L385.287 159.99V251.231H373.749V257.789L365.879 265.993V269.061L366.301 270.25L366.991 272.151V278.854L368.302 280.044L371.704 283.134C371.315 283.134 370.914 283.189 370.548 283.278C368.502 283.79 366.991 285.646 366.991 287.847V289.025C366.991 289.159 367.002 289.303 367.013 289.426C367.013 289.492 367.024 289.559 367.035 289.614C367.035 289.67 367.046 289.748 367.068 289.803C367.38 291.349 368.747 292.527 370.392 292.527H382.709C382.709 292.916 382.72 293.327 382.72 293.716C382.753 297.396 382.775 301.075 382.775 304.743C382.809 311.835 382.809 318.905 382.775 325.953C382.764 328.043 382.753 330.144 382.742 332.222C382.731 334.301 382.709 336.391 382.686 338.469C382.675 340.115 382.664 341.76 382.642 343.394C382.631 344.483 382.62 345.573 382.597 346.662C381.986 395.928 380.096 442.571 377.451 481.088H389.111V293.75H393.736V481.133H405.396C402.384 437.258 400.339 382.811 400.083 325.986C400.05 318.95 400.05 311.869 400.083 304.777C400.094 301.108 400.116 297.429 400.139 293.75C400.139 293.361 400.15 292.949 400.15 292.56H412.466C414.111 292.56 415.479 291.382 415.79 289.837C415.812 289.703 415.834 289.581 415.845 289.448C415.857 289.314 415.868 289.17 415.868 289.048V287.869C415.868 285.657 414.345 283.812 412.311 283.301C411.944 283.212 411.555 283.156 411.155 283.156L414.556 280.066L415.868 278.876V272.173L416.557 270.273L416.979 269.083V266.015L409.131 257.812ZM414.278 277.843H368.602V275.608H414.278V277.843ZM397.237 259.69V266.526H382.075V259.69H397.237ZM378.329 259.69V266.526H367.569L374.038 259.69H378.329ZM400.983 259.69H408.831L415.301 266.526H400.983V259.69Z" fill="url(#paint10_linear_163_2099)" fill-opacity="0.5"/>
<path d="M417.002 267.205H365.879V270.261H417.002V267.205Z" fill="url(#paint11_linear_163_2099)"/>
<path d="M417.002 267.205H365.879V270.261H417.002V267.205Z" fill="url(#paint12_linear_163_2099)" fill-opacity="0.5"/>
<path d="M415.645 270.334H366.734V275.892H415.645V270.334Z" fill="url(#paint13_linear_163_2099)"/>
<path d="M415.645 270.334H366.734V275.892H415.645V270.334Z" fill="url(#paint14_linear_163_2099)" fill-opacity="0.5"/>
<path d="M368.602 275.608H366.99V277.843H368.602V275.608Z" fill="url(#paint15_linear_163_2099)"/>
<path d="M415.89 275.608H414.278V277.843H415.89V275.608Z" fill="url(#paint16_linear_163_2099)"/>
<path d="M415.89 277.843H366.99V280.066H415.89V277.843Z" fill="url(#paint17_linear_163_2099)"/>
<path d="M371.703 284.345H411.176L415.89 280.066H366.99L371.703 284.345Z" fill="url(#paint18_linear_163_2099)"/>
<path d="M371.703 284.345H411.176L415.89 280.066H366.99L371.703 284.345Z" fill="url(#paint19_linear_163_2099)" fill-opacity="0.5"/>
<path d="M366.991 273.374H415.89L417.002 270.273H365.879L366.991 273.374Z" fill="url(#paint20_linear_163_2099)"/>
<path d="M366.991 273.374H415.89L417.002 270.273H365.879L366.991 273.374Z" fill="url(#paint21_linear_163_2099)" fill-opacity="0.5"/>
<path d="M415.889 289.048C415.889 289.181 415.878 289.325 415.867 289.448C415.856 289.581 415.833 289.703 415.811 289.837C415.444 292.06 413.499 293.75 411.176 293.75H371.692C369.368 293.75 367.423 292.06 367.056 289.837C367.034 289.781 367.023 289.703 367.023 289.648C367.012 289.592 367.001 289.526 367.001 289.459C366.99 289.325 366.979 289.181 366.979 289.059C366.979 286.458 369.079 284.357 371.681 284.357H411.165C413.788 284.345 415.889 286.446 415.889 289.048Z" fill="url(#paint22_linear_163_2099)"/>
<path d="M415.889 289.048C415.889 289.181 415.878 289.325 415.867 289.448C415.856 289.581 415.833 289.703 415.811 289.837C415.444 292.06 413.499 293.75 411.176 293.75H371.692C369.368 293.75 367.423 292.06 367.056 289.837C367.034 289.781 367.023 289.703 367.023 289.648C367.012 289.592 367.001 289.526 367.001 289.459C366.99 289.325 366.979 289.181 366.979 289.059C366.979 286.458 369.079 284.357 371.681 284.357H411.165C413.788 284.345 415.889 286.446 415.889 289.048Z" fill="url(#paint23_linear_163_2099)" fill-opacity="0.5"/>
<path d="M409.131 259.001H373.749L365.879 267.205H417.002L409.131 259.001ZM378.329 266.526H367.569L374.038 259.69H378.329V266.526ZM397.237 266.526H382.075V259.69H397.237V266.526ZM400.983 259.69H408.831L415.301 266.526H400.983V259.69Z" fill="url(#paint24_linear_163_2099)"/>
<path d="M409.131 259.001H373.749L365.879 267.205H417.002L409.131 259.001ZM378.329 266.526H367.569L374.038 259.69H378.329V266.526ZM397.237 266.526H382.075V259.69H397.237V266.526ZM400.983 259.69H408.831L415.301 266.526H400.983V259.69Z" fill="url(#paint25_linear_163_2099)" fill-opacity="0.5"/>
<path d="M408.998 252.442H373.749V259.001H408.998V252.442Z" fill="url(#paint26_linear_163_2099)"/>
<path d="M408.998 252.442H373.749V259.001H408.998V252.442Z" fill="url(#paint27_linear_163_2099)" fill-opacity="0.5"/>
<path d="M397.448 161.202H385.287V252.442H397.448V161.202Z" fill="url(#paint28_linear_163_2099)"/>
<path d="M397.448 161.202H385.287V252.442H397.448V161.202Z" fill="url(#paint29_linear_163_2099)" fill-opacity="0.5"/>
<path d="M397.448 147.774H391.367H385.287L381.719 154.488V157.945L385.287 161.202H391.367H397.448L401.016 157.945V154.488L397.448 147.774Z" fill="url(#paint30_linear_163_2099)"/>
<path d="M397.448 147.774H391.367H385.287L381.719 154.488V157.945L385.287 161.202H391.367H397.448L401.016 157.945V154.488L397.448 147.774Z" fill="url(#paint31_linear_163_2099)" fill-opacity="0.5"/>
<path d="M396.137 95.9954H386.6V147.774H396.137V95.9954Z" fill="url(#paint32_linear_163_2099)"/>
<path d="M396.137 95.9954H386.6V147.774H396.137V95.9954Z" fill="url(#paint33_linear_163_2099)" fill-opacity="0.5"/>
<path d="M394.936 72.7296H387.811V95.9954H394.936V72.7296Z" fill="url(#paint34_linear_163_2099)"/>
<path d="M394.936 72.7296H387.811V95.9954H394.936V72.7296Z" fill="url(#paint35_linear_163_2099)" fill-opacity="0.5"/>
<path d="M392.535 7.20053H390.2V72.7407H392.535V7.20053Z" fill="url(#paint36_linear_163_2099)"/>
<path d="M392.535 7.20053H390.2V72.7407H392.535V7.20053Z" fill="url(#paint37_linear_163_2099)" fill-opacity="0.5"/>
<path d="M393.758 481.144H389.134V482.333H393.758V481.144Z" fill="url(#paint38_linear_163_2099)"/>
<path d="M389.133 293.75V482.333H377.473C377.506 481.933 377.528 481.533 377.55 481.144C380.185 442.549 382.052 395.906 382.619 346.718C382.642 345.628 382.653 344.539 382.664 343.449C382.675 341.815 382.697 340.17 382.708 338.525C382.731 336.446 382.753 334.357 382.764 332.278C382.775 330.199 382.786 328.098 382.797 326.008C382.831 318.972 382.831 311.891 382.797 304.799C382.775 301.142 382.753 297.451 382.731 293.772H389.133V293.75Z" fill="url(#paint39_linear_163_2099)"/>
<path d="M389.133 293.75V482.333H377.473C377.506 481.933 377.528 481.533 377.55 481.144C380.185 442.549 382.052 395.906 382.619 346.718C382.642 345.628 382.653 344.539 382.664 343.449C382.675 341.815 382.697 340.17 382.708 338.525C382.731 336.446 382.753 334.357 382.764 332.278C382.775 330.199 382.786 328.098 382.797 326.008C382.831 318.972 382.831 311.891 382.797 304.799C382.775 301.142 382.753 297.451 382.731 293.772H389.133V293.75Z" fill="url(#paint40_linear_163_2099)" fill-opacity="0.5"/>
<path d="M405.419 482.333H393.758V293.75H400.183C400.15 297.429 400.127 301.12 400.116 304.777C400.083 311.869 400.083 318.939 400.116 325.986C400.339 382.733 402.351 437.158 405.352 481.133C405.363 481.533 405.385 481.933 405.419 482.333Z" fill="url(#paint41_linear_163_2099)"/>
<path d="M405.419 482.333H393.758V293.75H400.183C400.15 297.429 400.127 301.12 400.116 304.777C400.083 311.869 400.083 318.939 400.116 325.986C400.339 382.733 402.351 437.158 405.352 481.133C405.363 481.533 405.385 481.933 405.419 482.333Z" fill="url(#paint42_linear_163_2099)" fill-opacity="0.5"/>
<g filter="url(#filter15_f_163_2099)">
<path d="M180.293 355.037H57.709C60.1757 345.871 68.5364 339.124 78.4598 339.124C79.7215 339.124 80.9454 339.237 82.1317 339.445C82.1317 339.331 82.1129 339.237 82.1129 339.124C82.1129 322.001 95.9342 308.128 112.994 308.128C126.646 308.128 138.208 317.011 142.294 329.315C145.439 328.086 148.847 327.406 152.425 327.406C167.715 327.425 180.105 339.766 180.293 355.037Z" fill="#FCFCFC"/>
</g>
<g filter="url(#filter16_f_163_2099)">
<path d="M188.075 360.595H65.4902C67.957 351.429 76.3176 344.682 86.2411 344.682C87.5027 344.682 88.7266 344.795 89.9129 345.003C89.9129 344.889 89.8941 344.795 89.8941 344.682C89.8941 327.559 103.715 313.686 120.776 313.686C134.427 313.686 145.989 322.569 150.075 334.873C153.22 333.644 156.628 332.964 160.206 332.964C175.496 332.983 187.886 345.324 188.075 360.595Z" fill="#DFDFF1"/>
</g>
<path d="M183.344 356.672H60.7598C63.2265 347.506 71.5871 340.758 81.5106 340.758C82.7722 340.758 83.9962 340.872 85.1825 341.08C85.1825 340.966 85.1637 340.872 85.1637 340.758C85.1637 323.635 98.985 309.763 116.045 309.763C129.697 309.763 141.259 318.646 145.345 330.949C148.489 329.721 151.898 329.041 155.475 329.041C170.766 329.06 183.156 341.401 183.344 356.672Z" fill="url(#paint43_linear_163_2099)"/>
<g filter="url(#filter17_f_163_2099)">
<path d="M526.917 264.576H454.552C456.008 259.184 460.943 255.216 466.802 255.216C467.546 255.216 468.269 255.283 468.969 255.405C468.969 255.338 468.958 255.283 468.958 255.216C468.958 245.145 477.117 236.986 487.188 236.986C495.248 236.986 502.073 242.21 504.485 249.447C506.341 248.724 508.353 248.324 510.465 248.324C519.492 248.335 526.806 255.594 526.917 264.576Z" fill="#FCFCFC"/>
</g>
<g filter="url(#filter18_f_163_2099)">
<path d="M530.252 269.022H457.887C459.343 263.631 464.278 259.662 470.137 259.662C470.881 259.662 471.604 259.729 472.304 259.851C472.304 259.785 472.293 259.729 472.293 259.662C472.293 249.591 480.452 241.432 490.523 241.432C498.583 241.432 505.408 246.657 507.82 253.893C509.676 253.171 511.688 252.77 513.8 252.77C522.827 252.782 530.141 260.04 530.252 269.022Z" fill="#DFDFF1"/>
</g>
<path d="M528.718 265.537H456.353C457.809 260.146 462.744 256.177 468.602 256.177C469.347 256.177 470.07 256.244 470.77 256.366C470.77 256.3 470.759 256.244 470.759 256.177C470.759 246.106 478.918 237.947 488.989 237.947C497.048 237.947 503.874 243.172 506.286 250.408C508.142 249.686 510.154 249.286 512.266 249.286C521.292 249.297 528.607 256.555 528.718 265.537Z" fill="url(#paint44_linear_163_2099)"/>
<g filter="url(#filter19_f_163_2099)">
<path d="M47.894 505.188C43.3365 505.188 39.0012 506.166 35.0884 507.9C31.1644 488.514 14.0346 473.918 -6.50782 473.918C-29.9515 473.918 -48.96 492.927 -48.96 516.37C-48.96 539.814 -29.9515 558.823 -6.50782 558.823C3.19647 558.823 12.1338 555.554 19.2925 550.074C24.3169 560.846 35.2329 568.316 47.9052 568.316C65.3351 568.316 79.4636 554.187 79.4636 536.757C79.4636 519.327 65.324 505.188 47.894 505.188Z" fill="#670202"/>
</g>
<path d="M47.894 506.299C43.3365 506.299 39.0012 507.278 35.0884 509.012C31.1644 489.625 14.0346 475.03 -6.50782 475.03C-29.9515 475.03 -48.96 494.038 -48.96 517.482C-48.96 540.926 -29.9515 559.934 -6.50782 559.934C3.19647 559.934 12.1338 556.666 19.2925 551.186C24.3169 561.957 35.2329 569.427 47.9052 569.427C65.3351 569.427 79.4636 555.299 79.4636 537.869C79.4636 520.439 65.324 506.299 47.894 506.299Z" fill="url(#paint45_linear_163_2099)"/>
<path d="M47.894 506.299C43.3365 506.299 39.0012 507.278 35.0884 509.012C31.1644 489.625 14.0346 475.03 -6.50782 475.03C-29.9515 475.03 -48.96 494.038 -48.96 517.482C-48.96 540.926 -29.9515 559.934 -6.50782 559.934C3.19647 559.934 12.1338 556.666 19.2925 551.186C24.3169 561.957 35.2329 569.427 47.9052 569.427C65.3351 569.427 79.4636 555.299 79.4636 537.869C79.4636 520.439 65.324 506.299 47.894 506.299Z" fill="url(#paint46_linear_163_2099)" fill-opacity="0.5"/>
<g filter="url(#filter20_f_163_2099)">
<path d="M652.318 456.961C650.673 456.961 649.05 457.05 647.438 457.183C637.167 438.453 617.258 425.747 594.392 425.747C561 425.747 533.921 452.815 533.921 486.207C533.921 488.108 534.021 489.987 534.188 491.843C530.82 491.232 527.363 490.887 523.828 490.887C512.623 490.887 502.174 494.111 493.337 499.669C490.057 483.428 475.718 471.212 458.51 471.212C455.598 471.212 452.763 471.567 450.051 472.234C445.504 437.964 416.18 411.507 380.664 411.507C350.24 411.507 324.351 430.916 314.691 458.028C313.701 457.961 312.701 457.917 311.701 457.917C291.847 457.917 275.04 471.011 269.471 489.042C266.447 488.375 263.324 488.019 260.1 488.019C258.444 488.019 256.821 488.119 255.22 488.297C248.272 471.656 231.854 459.962 212.701 459.962C187.268 459.962 166.647 480.582 166.647 506.016C166.647 531.449 187.268 552.07 212.701 552.07C215.68 552.07 218.582 551.781 221.405 551.236C228.597 565.298 243.226 574.935 260.111 574.935C279.364 574.935 295.671 562.419 301.385 545.089C304.697 545.878 308.155 546.311 311.712 546.311C321.738 546.311 330.987 542.966 338.401 537.341C350.151 546.256 364.791 551.547 380.676 551.547C400.662 551.547 418.681 543.155 431.442 529.726C437.956 537.396 447.672 542.276 458.532 542.276C461.422 542.276 464.224 541.921 466.914 541.276C466.636 543.577 466.469 545.911 466.469 548.279C466.469 579.971 492.158 605.66 523.85 605.66C555.542 605.66 581.231 579.971 581.231 548.279C581.231 547.245 581.198 546.223 581.142 545.211C585.411 546.167 589.846 546.689 594.404 546.689C598.605 546.689 602.696 546.256 606.653 545.444C616.813 559.717 633.476 569.044 652.329 569.044C683.276 569.044 708.365 543.955 708.365 513.008C708.354 482.05 683.265 456.961 652.318 456.961Z" fill="#B3B3DF" fill-opacity="0.8"/>
</g>
<path d="M650.094 453.626C648.449 453.626 646.826 453.715 645.214 453.848C634.943 435.118 615.034 422.412 592.169 422.412C558.776 422.412 531.698 449.48 531.698 482.872C531.698 484.773 531.798 486.652 531.964 488.508C528.596 487.897 525.139 487.552 521.604 487.552C510.399 487.552 499.95 490.776 491.113 496.334C487.834 480.093 473.494 467.877 456.286 467.877C453.374 467.877 450.539 468.232 447.827 468.899C443.281 434.629 413.957 408.173 378.441 408.173C348.016 408.173 322.127 427.581 312.467 454.693C311.478 454.626 310.477 454.582 309.477 454.582C289.624 454.582 272.816 467.677 267.247 485.707C264.224 485.04 261.1 484.684 257.876 484.684C256.22 484.684 254.597 484.784 252.996 484.962C246.049 468.321 229.63 456.627 210.478 456.627C185.044 456.627 164.424 477.248 164.424 502.681C164.424 528.115 185.044 548.735 210.478 548.735C213.457 548.735 216.358 548.446 219.181 547.901C226.373 561.963 241.002 571.6 257.887 571.6C277.14 571.6 293.448 559.084 299.161 541.754C302.474 542.543 305.931 542.977 309.488 542.977C319.515 542.977 328.763 539.631 336.178 534.006C347.927 542.921 362.567 548.212 378.452 548.212C398.439 548.212 416.458 539.82 429.219 526.392C435.733 534.062 445.448 538.942 456.309 538.942C459.199 538.942 462 538.586 464.69 537.941C464.412 540.242 464.245 542.576 464.245 544.944C464.245 576.636 489.935 602.325 521.626 602.325C553.318 602.325 579.007 576.636 579.007 544.944C579.007 543.91 578.974 542.888 578.918 541.876C583.187 542.832 587.622 543.355 592.18 543.355C596.382 543.355 600.472 542.921 604.43 542.11C614.59 556.383 631.253 565.709 650.106 565.709C681.053 565.709 706.141 540.62 706.141 509.673C706.13 478.715 681.041 453.626 650.094 453.626Z" fill="url(#paint47_linear_163_2099)"/>
<path d="M650.094 453.626C648.449 453.626 646.826 453.715 645.214 453.848C634.943 435.118 615.034 422.412 592.169 422.412C558.776 422.412 531.698 449.48 531.698 482.872C531.698 484.773 531.798 486.652 531.964 488.508C528.596 487.897 525.139 487.552 521.604 487.552C510.399 487.552 499.95 490.776 491.113 496.334C487.834 480.093 473.494 467.877 456.286 467.877C453.374 467.877 450.539 468.232 447.827 468.899C443.281 434.629 413.957 408.173 378.441 408.173C348.016 408.173 322.127 427.581 312.467 454.693C311.478 454.626 310.477 454.582 309.477 454.582C289.624 454.582 272.816 467.677 267.247 485.707C264.224 485.04 261.1 484.684 257.876 484.684C256.22 484.684 254.597 484.784 252.996 484.962C246.049 468.321 229.63 456.627 210.478 456.627C185.044 456.627 164.424 477.248 164.424 502.681C164.424 528.115 185.044 548.735 210.478 548.735C213.457 548.735 216.358 548.446 219.181 547.901C226.373 561.963 241.002 571.6 257.887 571.6C277.14 571.6 293.448 559.084 299.161 541.754C302.474 542.543 305.931 542.977 309.488 542.977C319.515 542.977 328.763 539.631 336.178 534.006C347.927 542.921 362.567 548.212 378.452 548.212C398.439 548.212 416.458 539.82 429.219 526.392C435.733 534.062 445.448 538.942 456.309 538.942C459.199 538.942 462 538.586 464.69 537.941C464.412 540.242 464.245 542.576 464.245 544.944C464.245 576.636 489.935 602.325 521.626 602.325C553.318 602.325 579.007 576.636 579.007 544.944C579.007 543.91 578.974 542.888 578.918 541.876C583.187 542.832 587.622 543.355 592.18 543.355C596.382 543.355 600.472 542.921 604.43 542.11C614.59 556.383 631.253 565.709 650.106 565.709C681.053 565.709 706.141 540.62 706.141 509.673C706.13 478.715 681.041 453.626 650.094 453.626Z" fill="url(#paint48_linear_163_2099)" fill-opacity="0.5"/>
<defs>
<filter id="filter0_f_163_2099" x="-53.3037" y="411.449" width="221.548" height="183.632" filterUnits="userSpaceOnUse" color-interpolation-filters="sRGB">
<feFlood flood-opacity="0" result="BackgroundImageFix"/>
<feBlend mode="normal" in="SourceGraphic" in2="BackgroundImageFix" result="shape"/>
<feGaussianBlur stdDeviation="3" result="effect1_foregroundBlur_163_2099"/>
</filter>
<filter id="filter1_f_163_2099" x="49.2627" y="475.315" width="76.1523" height="101.352" filterUnits="userSpaceOnUse" color-interpolation-filters="sRGB">
<feFlood flood-opacity="0" result="BackgroundImageFix"/>
<feBlend mode="normal" in="SourceGraphic" in2="BackgroundImageFix" result="shape"/>
<feGaussianBlur stdDeviation="2" result="effect1_foregroundBlur_163_2099"/>
</filter>
<filter id="filter2_f_163_2099" x="50.1299" y="475.721" width="76.1523" height="101.352" filterUnits="userSpaceOnUse" color-interpolation-filters="sRGB">
<feFlood flood-opacity="0" result="BackgroundImageFix"/>
<feBlend mode="normal" in="SourceGraphic" in2="BackgroundImageFix" result="shape"/>
<feGaussianBlur stdDeviation="2" result="effect1_foregroundBlur_163_2099"/>
</filter>
<filter id="filter3_f_163_2099" x="208.222" y="379.717" width="82.0996" height="213.924" filterUnits="userSpaceOnUse" color-interpolation-filters="sRGB">
<feFlood flood-opacity="0" result="BackgroundImageFix"/>
<feBlend mode="normal" in="SourceGraphic" in2="BackgroundImageFix" result="shape"/>
<feGaussianBlur stdDeviation="2" result="effect1_foregroundBlur_163_2099"/>
</filter>
<filter id="filter4_f_163_2099" x="204.887" y="379.717" width="82.0996" height="213.924" filterUnits="userSpaceOnUse" color-interpolation-filters="sRGB">
<feFlood flood-opacity="0" result="BackgroundImageFix"/>
<feBlend mode="normal" in="SourceGraphic" in2="BackgroundImageFix" result="shape"/>
<feGaussianBlur stdDeviation="2" result="effect1_foregroundBlur_163_2099"/>
</filter>
<filter id="filter5_f_163_2099" x="357.655" y="0" width="63.123" height="488.333" filterUnits="userSpaceOnUse" color-interpolation-filters="sRGB">
<feFlood flood-opacity="0" result="BackgroundImageFix"/>
<feBlend mode="normal" in="SourceGraphic" in2="BackgroundImageFix" result="shape"/>
<feGaussianBlur stdDeviation="3" result="effect1_foregroundBlur_163_2099"/>
</filter>
<filter id="filter6_f_163_2099" x="360.99" y="0" width="63.123" height="488.333" filterUnits="userSpaceOnUse" color-interpolation-filters="sRGB">
<feFlood flood-opacity="0" result="BackgroundImageFix"/>
<feBlend mode="normal" in="SourceGraphic" in2="BackgroundImageFix" result="shape"/>
<feGaussianBlur stdDeviation="3" result="effect1_foregroundBlur_163_2099"/>
</filter>
<filter id="filter7_f_163_2099" x="142.126" y="417.512" width="63.0137" height="145.038" filterUnits="userSpaceOnUse" color-interpolation-filters="sRGB">
<feFlood flood-opacity="0" result="BackgroundImageFix"/>
<feBlend mode="normal" in="SourceGraphic" in2="BackgroundImageFix" result="shape"/>
<feGaussianBlur stdDeviation="2" result="effect1_foregroundBlur_163_2099"/>
</filter>
<filter id="filter8_f_163_2099" x="121.294" y="463.264" width="25.7656" height="95.0625" filterUnits="userSpaceOnUse" color-interpolation-filters="sRGB">
<feFlood flood-opacity="0" result="BackgroundImageFix"/>
<feBlend mode="normal" in="SourceGraphic" in2="BackgroundImageFix" result="shape"/>
<feGaussianBlur stdDeviation="1" result="effect1_foregroundBlur_163_2099"/>
</filter>
<filter id="filter9_f_163_2099" x="286.347" y="338.439" width="80.1523" height="192.68" filterUnits="userSpaceOnUse" color-interpolation-filters="sRGB">
<feFlood flood-opacity="0" result="BackgroundImageFix"/>
<feBlend mode="normal" in="SourceGraphic" in2="BackgroundImageFix" result="shape"/>
<feGaussianBlur stdDeviation="3" result="effect1_foregroundBlur_163_2099"/>
</filter>
<filter id="filter10_f_163_2099" x="287.458" y="340.662" width="80.1523" height="192.68" filterUnits="userSpaceOnUse" color-interpolation-filters="sRGB">
<feFlood flood-opacity="0" result="BackgroundImageFix"/>
<feBlend mode="normal" in="SourceGraphic" in2="BackgroundImageFix" result="shape"/>
<feGaussianBlur stdDeviation="3" result="effect1_foregroundBlur_163_2099"/>
</filter>
<filter id="filter11_f_163_2099" x="398.694" y="368.989" width="49.9172" height="130.238" filterUnits="userSpaceOnUse" color-interpolation-filters="sRGB">
<feFlood flood-opacity="0" result="BackgroundImageFix"/>
<feBlend mode="normal" in="SourceGraphic" in2="BackgroundImageFix" result="shape"/>
<feGaussianBlur stdDeviation="2.36186" result="effect1_foregroundBlur_163_2099"/>
</filter>
<filter id="filter12_f_163_2099" x="399.354" y="370.475" width="49.9172" height="130.238" filterUnits="userSpaceOnUse" color-interpolation-filters="sRGB">
<feFlood flood-opacity="0" result="BackgroundImageFix"/>
<feBlend mode="normal" in="SourceGraphic" in2="BackgroundImageFix" result="shape"/>
<feGaussianBlur stdDeviation="2.36186" result="effect1_foregroundBlur_163_2099"/>
</filter>
<filter id="filter13_f_163_2099" x="441.882" y="305.463" width="86.0996" height="217.925" filterUnits="userSpaceOnUse" color-interpolation-filters="sRGB">
<feFlood flood-opacity="0" result="BackgroundImageFix"/>
<feBlend mode="normal" in="SourceGraphic" in2="BackgroundImageFix" result="shape"/>
<feGaussianBlur stdDeviation="3" result="effect1_foregroundBlur_163_2099"/>
</filter>
<filter id="filter14_f_163_2099" x="437.436" y="302.128" width="86.0996" height="217.924" filterUnits="userSpaceOnUse" color-interpolation-filters="sRGB">
<feFlood flood-opacity="0" result="BackgroundImageFix"/>
<feBlend mode="normal" in="SourceGraphic" in2="BackgroundImageFix" result="shape"/>
<feGaussianBlur stdDeviation="3" result="effect1_foregroundBlur_163_2099"/>
</filter>
<filter id="filter15_f_163_2099" x="45.709" y="296.128" width="146.584" height="70.9087" filterUnits="userSpaceOnUse" color-interpolation-filters="sRGB">
<feFlood flood-opacity="0" result="BackgroundImageFix"/>
<feBlend mode="normal" in="SourceGraphic" in2="BackgroundImageFix" result="shape"/>
<feGaussianBlur stdDeviation="6" result="effect1_foregroundBlur_163_2099"/>
</filter>
<filter id="filter16_f_163_2099" x="59.4902" y="307.686" width="134.584" height="58.9087" filterUnits="userSpaceOnUse" color-interpolation-filters="sRGB">
<feFlood flood-opacity="0" result="BackgroundImageFix"/>
<feBlend mode="normal" in="SourceGraphic" in2="BackgroundImageFix" result="shape"/>
<feGaussianBlur stdDeviation="3" result="effect1_foregroundBlur_163_2099"/>
</filter>
<filter id="filter17_f_163_2099" x="448.552" y="230.986" width="84.3652" height="39.59" filterUnits="userSpaceOnUse" color-interpolation-filters="sRGB">
<feFlood flood-opacity="0" result="BackgroundImageFix"/>
<feBlend mode="normal" in="SourceGraphic" in2="BackgroundImageFix" result="shape"/>
<feGaussianBlur stdDeviation="3" result="effect1_foregroundBlur_163_2099"/>
</filter>
<filter id="filter18_f_163_2099" x="451.887" y="235.432" width="84.3652" height="39.59" filterUnits="userSpaceOnUse" color-interpolation-filters="sRGB">
<feFlood flood-opacity="0" result="BackgroundImageFix"/>
<feBlend mode="normal" in="SourceGraphic" in2="BackgroundImageFix" result="shape"/>
<feGaussianBlur stdDeviation="3" result="effect1_foregroundBlur_163_2099"/>
</filter>
<filter id="filter19_f_163_2099" x="-58.96" y="463.918" width="148.424" height="114.397" filterUnits="userSpaceOnUse" color-interpolation-filters="sRGB">
<feFlood flood-opacity="0" result="BackgroundImageFix"/>
<feBlend mode="normal" in="SourceGraphic" in2="BackgroundImageFix" result="shape"/>
<feGaussianBlur stdDeviation="5" result="effect1_foregroundBlur_163_2099"/>
</filter>
<filter id="filter20_f_163_2099" x="156.647" y="401.507" width="561.718" height="214.153" filterUnits="userSpaceOnUse" color-interpolation-filters="sRGB">
<feFlood flood-opacity="0" result="BackgroundImageFix"/>
<feBlend mode="normal" in="SourceGraphic" in2="BackgroundImageFix" result="shape"/>
<feGaussianBlur stdDeviation="5" result="effect1_foregroundBlur_163_2099"/>
</filter>
<linearGradient id="paint0_linear_163_2099" x1="57.4138" y1="588.68" x2="57.4138" y2="413.046" gradientUnits="userSpaceOnUse">
<stop stop-color="#D60000"/>
<stop offset="0.6239" stop-color="#8D0000"/>
<stop offset="1" stop-color="#660000"/>
</linearGradient>
<linearGradient id="paint1_linear_163_2099" x1="88.2091" y1="586.347" x2="88.2091" y2="492.995" gradientUnits="userSpaceOnUse">
<stop stop-color="#D60000"/>
<stop offset="1" stop-color="#970000"/>
</linearGradient>
<linearGradient id="paint2_linear_163_2099" x1="248.149" y1="624.156" x2="245.703" y2="382.389" gradientUnits="userSpaceOnUse">
<stop stop-color="#D60000"/>
<stop offset="0.806863" stop-color="#970000"/>
<stop offset="1" stop-color="#BE0303"/>
</linearGradient>
<linearGradient id="paint3_linear_163_2099" x1="270.857" y1="487.808" x2="116.344" y2="510.46" gradientUnits="userSpaceOnUse">
<stop stop-color="#EAEAFF"/>
<stop offset="0.247052" stop-color="#EAEAFF"/>
<stop offset="0.679406" stop-color="#F0F0F8"/>
<stop offset="1" stop-color="#D6D6F0"/>
</linearGradient>
<linearGradient id="paint4_linear_163_2099" x1="270.857" y1="488.919" x2="116.344" y2="511.572" gradientUnits="userSpaceOnUse">
<stop stop-color="#EAEAFF"/>
<stop offset="0.247052" stop-color="#EAEAFF"/>
<stop offset="0.679406" stop-color="#F0F0F8"/>
<stop offset="1" stop-color="#D6D6F0"/>
</linearGradient>
<linearGradient id="paint5_linear_163_2099" x1="173.082" y1="511.907" x2="111.109" y2="517.317" gradientUnits="userSpaceOnUse">
<stop stop-color="#EAEAFF"/>
<stop offset="0.247052" stop-color="#EAEAFF"/>
<stop offset="0.679406" stop-color="#F0F0F8"/>
<stop offset="1" stop-color="#D6D6F0"/>
</linearGradient>
<linearGradient id="paint6_linear_163_2099" x1="449.357" y1="434.779" x2="257.467" y2="461.212" gradientUnits="userSpaceOnUse">
<stop stop-color="#EAEAFF"/>
<stop offset="0.247052" stop-color="#EAEAFF"/>
<stop offset="0.679406" stop-color="#F0F0F8"/>
<stop offset="1" stop-color="#D6D6F0"/>
</linearGradient>
<linearGradient id="paint7_linear_163_2099" x1="496.652" y1="434.108" x2="382.257" y2="448.104" gradientUnits="userSpaceOnUse">
<stop stop-color="#EAEAFF"/>
<stop offset="0.247052" stop-color="#EAEAFF"/>
<stop offset="0.679406" stop-color="#F0F0F8"/>
<stop offset="1" stop-color="#D6D6F0"/>
</linearGradient>
<linearGradient id="paint8_linear_163_2099" x1="615.295" y1="412.297" x2="406.31" y2="439.759" gradientUnits="userSpaceOnUse">
<stop stop-color="#EAEAFF"/>
<stop offset="0.247052" stop-color="#EAEAFF"/>
<stop offset="0.679406" stop-color="#F0F0F8"/>
<stop offset="1" stop-color="#D6D6F0"/>
</linearGradient>
<linearGradient id="paint9_linear_163_2099" x1="482.771" y1="243.566" x2="336.389" y2="249.316" gradientUnits="userSpaceOnUse">
<stop stop-color="#EAEAFF"/>
<stop offset="0.247052" stop-color="#EAEAFF"/>
<stop offset="0.679406" stop-color="#F0F0F8"/>
<stop offset="1" stop-color="#D6D6F0"/>
</linearGradient>
<linearGradient id="paint10_linear_163_2099" x1="391.429" y1="6" x2="380.151" y2="481.471" gradientUnits="userSpaceOnUse">
<stop offset="0.927083" stop-color="white" stop-opacity="0"/>
<stop offset="0.995779" stop-color="white"/>
</linearGradient>
<linearGradient id="paint11_linear_163_2099" x1="482.822" y1="268.733" x2="478.992" y2="292.122" gradientUnits="userSpaceOnUse">
<stop stop-color="#EAEAFF"/>
<stop offset="0.247052" stop-color="#EAEAFF"/>
<stop offset="0.679406" stop-color="#F0F0F8"/>
<stop offset="1" stop-color="#D6D6F0"/>
</linearGradient>
<linearGradient id="paint12_linear_163_2099" x1="391.44" y1="267.205" x2="391.44" y2="270.265" gradientUnits="userSpaceOnUse">
<stop offset="0.927083" stop-color="white" stop-opacity="0"/>
<stop offset="0.995779" stop-color="white"/>
</linearGradient>
<linearGradient id="paint13_linear_163_2099" x1="478.617" y1="273.113" x2="466.23" y2="312.923" gradientUnits="userSpaceOnUse">
<stop stop-color="#EAEAFF"/>
<stop offset="0.247052" stop-color="#EAEAFF"/>
<stop offset="0.679406" stop-color="#F0F0F8"/>
<stop offset="1" stop-color="#D6D6F0"/>
</linearGradient>
<linearGradient id="paint14_linear_163_2099" x1="391.19" y1="270.334" x2="391.188" y2="275.899" gradientUnits="userSpaceOnUse">
<stop offset="0.927083" stop-color="white" stop-opacity="0"/>
<stop offset="0.995779" stop-color="white"/>
</linearGradient>
<linearGradient id="paint15_linear_163_2099" x1="367.796" y1="304.353" x2="367.796" y2="281.29" gradientUnits="userSpaceOnUse">
<stop stop-color="#FCFCFC"/>
<stop offset="0.3548" stop-color="#F0F0EF"/>
<stop offset="1" stop-color="#CFCFCE"/>
</linearGradient>
<linearGradient id="paint16_linear_163_2099" x1="415.085" y1="304.353" x2="415.085" y2="281.29" gradientUnits="userSpaceOnUse">
<stop stop-color="#FCFCFC"/>
<stop offset="0.3548" stop-color="#F0F0EF"/>
<stop offset="1" stop-color="#CFCFCE"/>
</linearGradient>
<linearGradient id="paint17_linear_163_2099" x1="391.44" y1="436.62" x2="391.44" y2="58.0289" gradientUnits="userSpaceOnUse">
<stop stop-color="#FCFCFC"/>
<stop offset="0.3548" stop-color="#F0F0EF"/>
<stop offset="1" stop-color="#CFCFCE"/>
</linearGradient>
<linearGradient id="paint18_linear_163_2099" x1="478.848" y1="282.206" x2="471.228" y2="314.001" gradientUnits="userSpaceOnUse">
<stop stop-color="#EAEAFF"/>
<stop offset="0.247052" stop-color="#EAEAFF"/>
<stop offset="0.679406" stop-color="#F0F0F8"/>
<stop offset="1" stop-color="#D6D6F0"/>
</linearGradient>
<linearGradient id="paint19_linear_163_2099" x1="391.44" y1="280.066" x2="391.439" y2="284.351" gradientUnits="userSpaceOnUse">
<stop offset="0.927083" stop-color="white" stop-opacity="0"/>
<stop offset="0.995779" stop-color="white"/>
</linearGradient>
<linearGradient id="paint20_linear_163_2099" x1="482.822" y1="271.823" x2="478.883" y2="295.534" gradientUnits="userSpaceOnUse">
<stop stop-color="#EAEAFF"/>
<stop offset="0.247052" stop-color="#EAEAFF"/>
<stop offset="0.679406" stop-color="#F0F0F8"/>
<stop offset="1" stop-color="#D6D6F0"/>
</linearGradient>
<linearGradient id="paint21_linear_163_2099" x1="391.44" y1="270.273" x2="391.44" y2="273.378" gradientUnits="userSpaceOnUse">
<stop offset="0.927083" stop-color="white" stop-opacity="0"/>
<stop offset="0.995779" stop-color="white"/>
</linearGradient>
<linearGradient id="paint22_linear_163_2099" x1="478.861" y1="289.053" x2="448.462" y2="346.861" gradientUnits="userSpaceOnUse">
<stop stop-color="#EAEAFF"/>
<stop offset="0.247052" stop-color="#EAEAFF"/>
<stop offset="0.679406" stop-color="#F0F0F8"/>
<stop offset="1" stop-color="#D6D6F0"/>
</linearGradient>
<linearGradient id="paint23_linear_163_2099" x1="391.434" y1="284.357" x2="391.429" y2="293.762" gradientUnits="userSpaceOnUse">
<stop offset="0.927083" stop-color="white" stop-opacity="0"/>
<stop offset="0.995779" stop-color="white"/>
</linearGradient>
<linearGradient id="paint24_linear_163_2099" x1="482.822" y1="263.103" x2="459.085" y2="317.122" gradientUnits="userSpaceOnUse">
<stop stop-color="#EAEAFF"/>
<stop offset="0.247052" stop-color="#EAEAFF"/>
<stop offset="0.679406" stop-color="#F0F0F8"/>
<stop offset="1" stop-color="#D6D6F0"/>
</linearGradient>
<linearGradient id="paint25_linear_163_2099" x1="391.44" y1="259.001" x2="391.437" y2="267.215" gradientUnits="userSpaceOnUse">
<stop offset="0.927083" stop-color="white" stop-opacity="0"/>
<stop offset="0.995779" stop-color="white"/>
</linearGradient>
<linearGradient id="paint26_linear_163_2099" x1="454.381" y1="255.722" x2="433.54" y2="296.628" gradientUnits="userSpaceOnUse">
<stop stop-color="#EAEAFF"/>
<stop offset="0.247052" stop-color="#EAEAFF"/>
<stop offset="0.679406" stop-color="#F0F0F8"/>
<stop offset="1" stop-color="#D6D6F0"/>
</linearGradient>
<linearGradient id="paint27_linear_163_2099" x1="391.374" y1="252.442" x2="391.37" y2="259.009" gradientUnits="userSpaceOnUse">
<stop offset="0.927083" stop-color="white" stop-opacity="0"/>
<stop offset="0.995779" stop-color="white"/>
</linearGradient>
<linearGradient id="paint28_linear_163_2099" x1="413.105" y1="206.822" x2="378.298" y2="208.516" gradientUnits="userSpaceOnUse">
<stop stop-color="#EAEAFF"/>
<stop offset="0.247052" stop-color="#EAEAFF"/>
<stop offset="0.679406" stop-color="#F0F0F8"/>
<stop offset="1" stop-color="#D6D6F0"/>
</linearGradient>
<linearGradient id="paint29_linear_163_2099" x1="391.368" y1="161.202" x2="389.62" y2="252.525" gradientUnits="userSpaceOnUse">
<stop offset="0.927083" stop-color="white" stop-opacity="0"/>
<stop offset="0.995779" stop-color="white"/>
</linearGradient>
<linearGradient id="paint30_linear_163_2099" x1="425.862" y1="154.488" x2="382.453" y2="177.269" gradientUnits="userSpaceOnUse">
<stop stop-color="#EAEAFF"/>
<stop offset="0.247052" stop-color="#EAEAFF"/>
<stop offset="0.679406" stop-color="#F0F0F8"/>
<stop offset="1" stop-color="#D6D6F0"/>
</linearGradient>
<linearGradient id="paint31_linear_163_2099" x1="391.367" y1="147.774" x2="391.344" y2="161.219" gradientUnits="userSpaceOnUse">
<stop offset="0.927083" stop-color="white" stop-opacity="0"/>
<stop offset="0.995779" stop-color="white"/>
</linearGradient>
<linearGradient id="paint32_linear_163_2099" x1="408.417" y1="121.885" x2="381.177" y2="123.717" gradientUnits="userSpaceOnUse">
<stop stop-color="#EAEAFF"/>
<stop offset="0.247052" stop-color="#EAEAFF"/>
<stop offset="0.679406" stop-color="#F0F0F8"/>
<stop offset="1" stop-color="#D6D6F0"/>
</linearGradient>
<linearGradient id="paint33_linear_163_2099" x1="391.368" y1="95.9954" x2="390.651" y2="147.83" gradientUnits="userSpaceOnUse">
<stop offset="0.927083" stop-color="white" stop-opacity="0"/>
<stop offset="0.995779" stop-color="white"/>
</linearGradient>
<linearGradient id="paint34_linear_163_2099" x1="404.11" y1="84.3625" x2="383.92" y2="86.6206" gradientUnits="userSpaceOnUse">
<stop stop-color="#EAEAFF"/>
<stop offset="0.247052" stop-color="#EAEAFF"/>
<stop offset="0.679406" stop-color="#F0F0F8"/>
<stop offset="1" stop-color="#D6D6F0"/>
</linearGradient>
<linearGradient id="paint35_linear_163_2099" x1="391.373" y1="72.7296" x2="391.179" y2="96.0235" gradientUnits="userSpaceOnUse">
<stop offset="0.927083" stop-color="white" stop-opacity="0"/>
<stop offset="0.995779" stop-color="white"/>
</linearGradient>
<linearGradient id="paint36_linear_163_2099" x1="395.54" y1="39.9706" x2="388.844" y2="40.0577" gradientUnits="userSpaceOnUse">
<stop stop-color="#EAEAFF"/>
<stop offset="0.247052" stop-color="#EAEAFF"/>
<stop offset="0.679406" stop-color="#F0F0F8"/>
<stop offset="1" stop-color="#D6D6F0"/>
</linearGradient>
<linearGradient id="paint37_linear_163_2099" x1="391.367" y1="7.20053" x2="386.691" y2="72.4893" gradientUnits="userSpaceOnUse">
<stop offset="0.927083" stop-color="white" stop-opacity="0"/>
<stop offset="0.995779" stop-color="white"/>
</linearGradient>
<linearGradient id="paint38_linear_163_2099" x1="391.44" y1="483.443" x2="391.44" y2="480.542" gradientUnits="userSpaceOnUse">
<stop stop-color="#D60000"/>
<stop offset="0.6239" stop-color="#8D0000"/>
<stop offset="1" stop-color="#660000"/>
</linearGradient>
<linearGradient id="paint39_linear_163_2099" x1="404.147" y1="388.041" x2="370.709" y2="388.796" gradientUnits="userSpaceOnUse">
<stop stop-color="#EAEAFF"/>
<stop offset="0.247052" stop-color="#EAEAFF"/>
<stop offset="0.679406" stop-color="#F0F0F8"/>
<stop offset="1" stop-color="#D6D6F0"/>
</linearGradient>
<linearGradient id="paint40_linear_163_2099" x1="383.303" y1="293.75" x2="375.526" y2="482.253" gradientUnits="userSpaceOnUse">
<stop offset="0.927083" stop-color="white" stop-opacity="0"/>
<stop offset="0.995779" stop-color="white"/>
</linearGradient>
<linearGradient id="paint41_linear_163_2099" x1="420.432" y1="388.041" x2="386.994" y2="388.796" gradientUnits="userSpaceOnUse">
<stop stop-color="#EAEAFF"/>
<stop offset="0.247052" stop-color="#EAEAFF"/>
<stop offset="0.679406" stop-color="#F0F0F8"/>
<stop offset="1" stop-color="#D6D6F0"/>
</linearGradient>
<linearGradient id="paint42_linear_163_2099" x1="399.588" y1="293.75" x2="391.811" y2="482.253" gradientUnits="userSpaceOnUse">
<stop offset="0.927083" stop-color="white" stop-opacity="0"/>
<stop offset="0.995779" stop-color="white"/>
</linearGradient>
<linearGradient id="paint43_linear_163_2099" x1="341.171" y1="333.217" x2="157.11" y2="508.874" gradientUnits="userSpaceOnUse">
<stop stop-color="#EAEAFF"/>
<stop offset="0.247052" stop-color="#EAEAFF"/>
<stop offset="0.679406" stop-color="#F0F0F8"/>
<stop offset="1" stop-color="#D6D6F0"/>
</linearGradient>
<linearGradient id="paint44_linear_163_2099" x1="621.888" y1="251.742" x2="513.612" y2="355.455" gradientUnits="userSpaceOnUse">
<stop stop-color="#EAEAFF"/>
<stop offset="0.247052" stop-color="#EAEAFF"/>
<stop offset="0.679406" stop-color="#F0F0F8"/>
<stop offset="1" stop-color="#D6D6F0"/>
</linearGradient>
<linearGradient id="paint45_linear_163_2099" x1="244.809" y1="522.229" x2="-50.6986" y2="669.045" gradientUnits="userSpaceOnUse">
<stop stop-color="#EAEAFF"/>
<stop offset="0.247052" stop-color="#EAEAFF"/>
<stop offset="0.679406" stop-color="#F0F0F8"/>
<stop offset="1" stop-color="#D6D6F0"/>
</linearGradient>
<linearGradient id="paint46_linear_163_2099" x1="15.2518" y1="475.03" x2="15.0746" y2="569.547" gradientUnits="userSpaceOnUse">
<stop offset="0.927083" stop-color="white" stop-opacity="0"/>
<stop offset="0.995779" stop-color="white"/>
</linearGradient>
<linearGradient id="paint47_linear_163_2099" x1="1403.6" y1="505.249" x2="641.086" y2="1282.21" gradientUnits="userSpaceOnUse">
<stop stop-color="#EAEAFF"/>
<stop offset="0.247052" stop-color="#EAEAFF"/>
<stop offset="0.679406" stop-color="#F0F0F8"/>
<stop offset="1" stop-color="#D6D6F0"/>
</linearGradient>
<linearGradient id="paint48_linear_163_2099" x1="435.283" y1="408.173" x2="435.105" y2="602.573" gradientUnits="userSpaceOnUse">
<stop offset="0.927083" stop-color="white" stop-opacity="0"/>
<stop offset="0.995779" stop-color="white"/>
</linearGradient>
</defs>
</svg>
