<svg width="34" height="34" viewBox="0 0 34 34" fill="none" xmlns="http://www.w3.org/2000/svg">
<path d="M0 25.1203V8.87977C0 3.97255 3.97252 4.19617e-05 8.87973 4.19617e-05H25.1203C30.0275 4.19617e-05 34 3.97255 34 8.87977V25.1203C34 30.0275 30.0275 34 25.1203 34H8.87973C3.97252 34 0 30.0275 0 25.1203Z" fill="url(#paint0_linear_903_1637)"/>
<path d="M26.5223 11.0992C25.9382 11.3329 25.2371 11.5666 24.6529 11.6834C25.0035 11.6834 25.354 11.0992 25.5877 10.8655C25.8213 10.515 26.055 10.1645 26.1718 9.69715V9.58031H26.055C25.354 9.93083 24.6529 10.2813 23.8351 10.3982C23.7182 10.3982 23.7182 10.3982 23.7182 10.3982C23.6014 10.2813 23.6014 10.2813 23.4846 10.1645C23.134 9.93083 22.7835 9.69715 22.433 9.46347C21.9656 9.2298 21.3815 9.11295 20.7973 9.22979C20.2131 9.22979 19.7457 9.46347 19.2784 9.69715C18.811 9.93082 18.3437 10.2813 17.9932 10.7487C17.6426 11.216 17.409 11.6834 17.2921 12.2676C17.1753 12.8518 17.1753 13.3191 17.2921 13.9033C17.2921 14.0202 17.2921 14.0202 17.1753 14.0202C14.1375 13.5528 11.567 12.5013 9.46394 10.1645C9.3471 10.0477 9.3471 10.0477 9.23026 10.1645C8.29555 11.5666 8.7629 13.6697 9.93129 14.7212C10.0481 14.838 10.2818 14.9549 10.3987 15.1886C10.2818 15.1886 9.58078 15.0717 8.87975 14.7212C8.76291 14.7212 8.7629 14.7212 8.7629 14.838C8.7629 14.9549 8.7629 15.0717 8.7629 15.3054C8.87974 16.7075 9.93129 17.9927 11.2165 18.46C11.3334 18.5769 11.567 18.5769 11.6839 18.5769C11.3333 18.6937 11.0997 18.6937 10.2818 18.5769C10.165 18.5769 10.165 18.5769 10.165 18.6937C10.7492 20.4463 12.1512 20.9136 13.2028 21.2642C13.3196 21.2642 13.4364 21.2642 13.6701 21.2642C13.3196 21.7315 12.1512 22.1989 11.567 22.3157C10.5155 22.6662 9.46394 22.7831 8.41239 22.6662C8.29555 22.6662 8.17871 22.6662 8.17871 22.6662V22.7831C8.41239 22.8999 8.64607 23.0167 8.87975 23.1336C9.58078 23.4841 10.2818 23.8346 10.9828 23.9514C14.8385 25.003 19.0447 24.1851 21.9657 21.381C24.1856 19.1611 25.0035 16.1233 25.0035 12.9686C25.0035 12.8518 25.1203 12.7349 25.2371 12.7349C25.8213 12.2676 26.2887 11.8002 26.756 11.2161C26.5224 11.3329 26.5223 11.216 26.5223 11.0992Z" fill="#F0F0F8"/>
<defs>
<linearGradient id="paint0_linear_903_1637" x1="31.5071" y1="2.51195" x2="2.59113" y2="31.4278" gradientUnits="userSpaceOnUse">
<stop stop-color="#33CCFF"/>
<stop offset="1" stop-color="#337FFF"/>
</linearGradient>
</defs>
</svg>
