<svg width="34" height="34" viewBox="0 0 34 34" fill="none" xmlns="http://www.w3.org/2000/svg">
<path d="M0 25.1203V8.87977C0 3.97255 3.97252 3.8147e-05 8.87973 3.8147e-05H25.1203C30.0275 3.8147e-05 34 3.97255 34 8.87977V25.1203C34 30.0275 30.0275 34 25.1203 34H8.87973C3.97252 34 0 30.0275 0 25.1203Z" fill="url(#paint0_linear_903_1634)"/>
<path d="M26.1719 14.4885C26.1719 12.2685 24.3025 10.3991 22.0826 10.3991H11.5671C9.3472 10.3991 7.47778 12.2685 7.47778 14.4885V19.3957C7.47778 21.6156 9.3472 23.485 11.5671 23.485H22.0826C24.3025 23.485 26.1719 21.6156 26.1719 19.3957V14.4885ZM20.0963 17.2926L15.4228 19.6294C15.1891 19.7462 14.6049 19.6294 14.6049 19.3957V14.6053C14.6049 14.3716 15.1891 14.2548 15.4228 14.3716L19.9795 16.8252C20.0963 16.9421 20.2132 17.1758 20.0963 17.2926Z" fill="#F0F0F8"/>
<defs>
<linearGradient id="paint0_linear_903_1634" x1="31.5258" y1="2.49314" x2="2.6097" y2="31.4093" gradientUnits="userSpaceOnUse">
<stop stop-color="#FF0000"/>
<stop offset="1" stop-color="#850000"/>
</linearGradient>
</defs>
</svg>
